{"glyphs":{"0":{"ha":972,"x_min":28,"x_max":935,"o":"m 496 1056 q 756 968 640 1054 q 919 746 871 882 q 934 381 976 593 q 775 68 892 168 q 509 -29 667 -25 q 219 69 351 -33 q 51 322 97 172 q 28 642 4 472 q 187 935 53 811 q 496 1056 321 1058 m 336 278 q 484 219 403 224 q 632 265 565 214 q 716 419 697 318 q 718 614 735 519 q 642 758 701 697 q 514 824 582 818 q 381 793 453 829 q 278 682 308 757 q 242 539 247 608 q 253 419 238 469 q 290 333 268 368 q 336 278 311 299 z "},"1":{"ha":972,"x_min":201,"x_max":650,"o":"m 318 733 q 201 806 222 736 q 201 879 185 838 q 282 965 218 921 q 374 1026 344 1007 q 455 1058 404 1044 q 550 1063 506 1072 q 618 1015 594 1053 q 646 943 642 978 q 650 854 650 908 q 644 452 650 772 q 635 89 639 132 q 592 14 632 43 q 515 -12 553 -15 q 444 17 479 -10 q 404 94 410 44 q 403 295 401 147 q 408 601 404 443 l 411 760 q 407 756 417 760 q 318 733 360 738 z "},"2":{"ha":972,"x_min":121,"x_max":872,"o":"m 324 774 q 265 725 303 739 q 183 726 226 711 q 122 792 136 743 q 142 907 107 840 q 303 1038 188 989 q 553 1053 418 1086 q 760 900 689 1018 q 814 665 831 782 q 763 485 800 554 q 654 336 726 415 q 594 276 626 307 q 543 231 561 246 l 525 215 q 758 210 528 210 q 847 175 821 201 q 872 101 872 149 q 843 23 878 49 q 735 -3 808 -3 l 247 -3 q 176 24 219 -7 q 132 96 133 54 q 158 175 131 139 q 276 294 186 211 q 325 340 286 303 q 381 392 364 376 q 431 441 397 407 q 484 497 465 475 q 526 547 503 518 q 562 601 549 576 q 582 649 575 626 q 582 760 601 714 q 510 825 563 806 q 388 829 436 851 q 324 774 344 810 z "},"3":{"ha":972,"x_min":144,"x_max":808,"o":"m 676 539 q 713 504 692 526 q 772 417 735 482 q 808 290 808 351 q 744 91 810 178 q 569 -12 678 4 q 496 -18 519 -18 q 207 94 319 -18 q 145 201 157 146 q 157 285 133 256 q 240 331 185 326 q 333 300 294 336 q 465 217 407 224 l 486 217 q 551 231 522 217 q 585 275 581 246 q 564 355 592 319 q 506 404 536 390 l 485 414 q 436 436 453 428 q 400 462 419 444 q 372 500 381 479 q 376 576 357 539 q 433 633 396 613 q 551 717 538 689 q 532 826 585 782 q 475 844 511 844 q 376 824 418 844 q 226 833 289 779 q 197 906 194 860 q 257 1006 200 963 q 483 1064 340 1064 q 685 1008 603 1064 q 794 731 817 921 q 760 640 789 688 q 703 565 731 592 l 676 539 z "},"4":{"ha":972,"x_min":57,"x_max":928,"o":"m 489 1001 q 626 1049 540 1060 q 701 1016 665 1044 q 738 942 738 988 q 735 489 735 664 q 847 483 810 486 q 902 450 876 482 q 928 379 928 418 q 902 298 928 333 q 829 263 876 263 l 729 261 q 734 243 733 258 q 734 203 735 228 q 731 157 733 179 q 727 108 729 135 q 725 71 725 82 q 694 8 724 33 q 629 -18 664 -18 q 557 5 593 -18 q 517 65 521 28 q 512 138 513 89 q 513 225 511 188 l 514 263 q 204 267 532 254 q 67 350 110 271 q 58 430 49 385 q 97 515 67 475 q 298 767 142 572 q 489 1001 454 963 m 344 499 l 511 500 l 517 711 l 344 499 z "},"5":{"ha":972,"x_min":171,"x_max":826,"o":"m 271 1029 q 664 1035 513 1035 q 756 1003 719 1035 q 792 917 793 972 q 756 835 790 867 q 658 804 721 804 l 396 801 l 397 649 q 456 653 419 651 q 576 642 493 654 q 706 594 658 629 q 826 233 871 476 q 710 48 804 122 q 482 -22 617 -26 q 179 115 250 -15 q 171 202 157 161 q 219 261 185 243 q 385 225 283 296 q 501 198 431 192 q 603 246 572 204 q 622 349 638 292 q 550 436 607 407 q 349 443 479 471 q 238 458 285 431 q 190 535 190 485 l 190 944 q 214 1006 192 982 q 271 1029 236 1029 z "},"6":{"ha":972,"x_min":136,"x_max":817,"o":"m 625 611 q 792 471 732 583 q 817 213 853 358 q 699 48 790 106 q 504 -10 607 -10 q 381 14 440 -10 q 182 205 242 69 q 136 568 122 340 q 237 886 150 768 q 439 1036 324 1004 q 524 1047 481 1047 q 726 976 642 1047 q 764 909 761 947 q 747 849 767 871 q 671 810 726 810 q 617 819 644 810 q 535 832 576 832 q 426 793 458 832 q 354 585 354 704 q 511 626 417 626 q 625 611 561 626 m 607 253 q 620 271 607 253 q 632 328 633 289 q 603 399 631 367 q 536 442 576 431 q 506 446 521 446 q 435 428 469 446 q 389 376 400 410 q 393 261 363 306 q 503 206 433 206 q 538 210 519 206 q 607 253 581 217 z "},"7":{"ha":972,"x_min":111,"x_max":879,"o":"m 318 825 l 643 822 q 386 138 403 204 q 394 52 374 89 q 456 6 414 15 q 528 8 503 -6 q 586 65 553 21 q 738 448 610 96 q 879 861 865 800 q 857 978 896 933 q 761 1026 818 1024 q 276 1039 728 1028 q 156 998 197 1040 q 111 892 114 956 q 114 649 106 711 q 145 595 117 615 q 210 575 174 575 q 278 594 246 575 q 313 642 310 613 l 318 825 z "},"8":{"ha":972,"x_min":150,"x_max":831,"o":"m 279 563 q 255 587 269 571 q 215 652 240 603 q 190 753 190 701 q 333 1029 186 950 q 531 1061 408 1074 q 724 979 654 1049 q 788 871 768 935 q 806 758 807 807 q 793 674 804 710 q 764 617 785 647 q 725 572 743 588 l 708 556 q 773 485 731 546 q 831 347 815 425 q 806 149 851 240 q 669 19 761 57 q 546 -12 611 -4 q 406 -6 481 -21 q 275 53 331 10 q 166 190 193 117 q 150 357 139 263 q 189 464 157 413 q 250 539 221 515 l 279 563 m 583 724 q 608 770 603 740 q 603 825 613 800 q 588 850 599 838 q 552 874 578 863 q 492 885 526 886 q 419 851 442 882 q 394 790 396 821 q 411 735 392 765 q 469 697 431 704 q 583 724 539 683 m 582 408 q 517 435 558 431 q 444 428 476 440 q 388 385 414 417 q 368 294 363 353 q 397 226 371 253 q 449 191 424 199 q 499 182 475 183 q 575 205 533 181 q 624 275 617 229 q 582 408 639 357 z "},"9":{"ha":972,"x_min":150,"x_max":826,"o":"m 683 1011 q 826 700 817 915 q 772 464 829 603 q 758 425 767 450 q 676 225 739 371 q 594 47 614 79 q 507 -15 558 -15 q 468 -8 492 -15 q 414 39 431 3 q 408 138 388 90 q 464 264 417 161 q 517 381 511 367 l 508 381 q 290 432 360 381 q 185 562 222 483 q 150 729 149 640 q 199 901 153 819 q 317 1018 246 983 q 508 1057 401 1057 q 683 1011 617 1057 m 574 625 q 608 676 593 636 q 614 757 622 717 q 564 832 604 807 q 485 857 524 857 l 479 857 q 406 826 442 856 q 363 753 369 796 q 375 668 354 710 q 435 610 396 626 q 479 601 453 601 q 574 625 539 601 z "},"\u0001":{"ha":694,"x_min":0,"x_max":0,"o":""}," ":{"ha":550,"x_min":0,"x_max":0,"o":""},"!":{"ha":414,"x_min":76,"x_max":342,"o":"m 306 1008 q 342 876 346 961 q 292 346 294 364 q 208 269 279 274 l 204 269 q 122 347 140 269 q 97 599 115 374 q 76 885 79 824 q 111 1001 72 958 q 218 1047 150 1047 q 306 1008 271 1047 m 224 233 q 318 174 290 219 q 329 72 342 131 q 286 -3 319 26 q 208 -32 253 -32 q 114 8 151 -32 q 76 99 76 49 q 108 192 76 149 q 194 236 139 236 q 224 233 204 236 z "},"\"":{"ha":625,"x_min":64,"x_max":569,"o":"m 176 868 q 166 869 172 868 q 142 874 160 869 q 110 885 125 878 q 82 906 96 892 q 64 938 68 919 q 80 1035 50 988 q 164 1083 110 1082 q 246 1050 210 1085 q 285 972 282 1015 q 275 882 288 929 q 240 806 263 835 q 198 768 219 779 q 163 764 176 757 q 150 817 128 782 q 163 821 158 818 q 169 829 167 824 q 173 838 172 835 q 174 852 174 842 q 176 868 175 863 m 463 868 q 452 869 458 868 q 428 874 446 869 q 397 885 411 878 q 368 906 382 892 q 350 938 354 919 q 365 1035 336 988 q 449 1083 394 1082 q 531 1051 496 1085 q 569 972 567 1017 q 560 883 574 931 q 525 806 547 836 q 447 764 481 749 q 436 817 413 782 q 446 831 440 824 q 453 840 451 838 q 458 850 456 843 q 463 868 461 857 z "},"#":{"ha":1093,"x_min":38,"x_max":1050,"o":"m 926 664 l 901 664 q 863 415 878 515 q 885 415 872 415 q 906 413 899 414 q 918 413 914 413 q 997 376 968 410 q 1024 294 1025 342 q 988 221 1022 251 q 886 190 953 190 l 825 190 q 800 67 806 83 q 761 1 786 18 q 694 -17 736 -17 q 625 13 653 -17 q 601 103 597 43 q 606 140 601 110 q 614 192 611 169 q 506 192 579 192 q 399 194 433 193 q 378 90 388 121 q 267 -14 346 -14 q 194 23 224 -14 q 172 124 165 60 q 183 197 174 140 q 165 199 175 199 q 38 311 44 208 q 80 388 38 354 q 186 421 122 421 l 219 421 q 263 669 235 515 q 218 671 242 671 q 85 779 92 681 q 122 863 81 825 q 224 901 163 901 l 306 901 q 311 926 306 907 q 328 990 319 967 q 350 1038 336 1014 q 388 1071 364 1061 q 443 1076 411 1081 q 515 1023 496 1071 q 522 917 535 975 q 519 900 522 914 q 626 899 554 900 q 731 897 697 899 q 736 925 733 910 q 739 943 739 940 q 785 1040 750 1013 q 864 1058 821 1067 q 927 1016 903 1051 q 944 933 951 981 q 938 892 942 917 q 944 890 940 890 q 1025 846 996 885 q 1050 769 1054 807 q 1012 697 1046 731 q 926 664 978 664 m 651 418 q 672 545 658 461 q 692 665 686 629 q 586 666 658 665 q 479 667 514 667 q 439 419 450 482 q 544 419 472 419 q 651 418 617 418 z "},"$":{"ha":735,"x_min":33,"x_max":696,"o":"m 468 554 q 696 253 725 419 q 450 33 663 65 q 444 8 449 19 q 368 -35 424 -35 q 335 -28 347 -35 q 286 35 297 -11 q 197 60 239 42 q 137 90 156 78 q 85 129 118 103 l 76 135 q 33 218 31 171 q 75 290 33 260 q 131 310 103 310 q 219 278 164 310 q 283 247 264 256 q 284 344 283 281 q 286 439 285 408 q 138 527 192 485 q 57 629 85 569 q 41 780 24 700 q 118 913 58 860 q 292 992 189 974 q 313 1043 292 1019 q 386 1078 343 1078 q 443 1051 417 1078 q 471 988 468 1024 q 529 972 500 983 q 647 897 608 944 q 686 804 686 850 q 646 739 686 758 q 567 735 606 719 q 519 767 544 744 q 469 800 488 792 l 469 724 q 469 639 469 696 q 468 554 468 582 m 235 733 q 289 646 222 693 q 290 728 289 676 q 290 800 290 781 q 235 733 249 782 m 501 256 q 508 307 517 285 q 467 353 501 328 q 465 314 465 335 q 464 222 465 272 q 501 256 490 233 z "},"%":{"ha":1057,"x_min":40,"x_max":1006,"o":"m 926 982 q 947 926 947 956 q 939 881 947 897 q 913 836 931 864 l 911 833 q 601 457 883 793 q 539 381 574 424 q 482 313 504 339 q 450 275 460 286 l 432 251 q 251 42 300 89 q 186 15 225 15 q 115 40 146 15 q 98 100 93 60 q 135 183 103 140 q 328 424 174 238 q 506 644 478 608 q 689 864 543 694 q 757 946 749 935 q 868 1013 813 1013 q 926 982 903 1013 m 444 939 q 485 816 481 888 q 463 683 490 744 q 390 601 442 636 q 272 565 339 565 q 257 567 263 565 q 40 724 76 578 q 53 883 21 800 q 164 1010 85 967 q 257 1033 208 1033 q 366 1005 314 1033 q 444 939 418 976 m 319 772 q 322 816 326 793 q 304 850 318 839 q 271 860 293 860 q 225 847 247 860 q 200 818 203 835 q 215 753 192 782 q 258 733 232 733 q 319 772 308 733 m 1006 308 q 1002 170 1031 243 q 926 60 974 97 q 789 14 872 14 q 699 33 740 14 q 606 122 644 60 q 568 246 568 185 q 613 383 568 326 q 739 463 657 439 q 796 471 768 471 q 921 426 864 471 q 1006 308 978 382 m 831 286 q 822 294 831 286 q 786 303 813 303 q 745 280 760 303 q 731 236 731 257 q 748 199 731 219 q 788 179 765 179 l 792 179 q 838 203 824 182 q 850 250 851 224 q 831 286 849 269 z "},"&":{"ha":924,"x_min":68,"x_max":876,"o":"m 876 143 q 835 40 899 85 q 729 42 792 10 q 681 78 704 54 q 438 -33 565 -29 l 421 -33 q 213 13 315 -33 q 68 143 110 58 q 75 426 1 285 q 188 554 107 488 q 107 669 135 610 q 107 910 51 792 q 219 1030 142 983 q 388 1076 296 1076 q 486 1060 440 1076 q 636 940 589 1024 q 679 765 683 857 q 640 647 678 701 q 554 563 603 592 q 497 526 531 551 q 660 371 613 414 q 736 404 703 404 l 739 404 q 809 376 778 403 q 846 314 840 349 q 819 215 854 260 q 876 143 865 172 m 363 676 q 457 811 476 738 q 427 857 451 839 q 372 875 403 875 q 349 872 356 875 q 301 832 317 864 q 297 771 286 804 q 363 676 314 718 m 319 415 q 243 292 239 356 q 284 205 247 239 q 383 164 321 171 q 521 225 454 154 l 319 415 z "},"'":{"ha":414,"x_min":97,"x_max":318,"o":"m 210 868 q 199 869 206 868 q 176 874 193 869 q 144 885 158 878 q 117 906 131 892 q 97 938 103 919 q 114 1035 85 989 q 197 1083 143 1082 q 279 1050 243 1085 q 318 972 315 1015 q 308 882 321 929 q 274 806 296 835 q 231 768 253 779 q 196 764 210 757 q 183 817 160 781 q 194 831 188 824 q 202 840 200 838 q 206 850 204 843 q 210 868 208 857 z "},"(":{"ha":556,"x_min":68,"x_max":457,"o":"m 408 940 q 313 778 361 888 q 263 522 265 668 q 274 401 261 460 q 312 290 286 342 q 356 209 338 239 q 406 136 374 179 q 442 88 438 93 q 456 -51 504 -7 q 421 -73 440 -65 q 371 -76 401 -81 q 311 -49 340 -71 q 246 15 279 -24 q 170 120 213 54 q 99 286 128 186 q 68 499 71 386 q 86 704 65 606 q 142 874 107 803 q 210 990 178 944 q 272 1064 242 1035 q 442 1088 371 1158 q 456 1024 465 1064 q 408 940 447 985 z "},")":{"ha":556,"x_min":76,"x_max":465,"o":"m 125 940 q 77 1024 86 985 q 92 1088 68 1064 q 261 1064 163 1158 q 402 846 335 993 q 465 499 469 699 q 434 286 463 386 q 363 120 406 186 q 288 15 321 54 q 222 -49 254 -24 q 163 -76 193 -71 q 113 -73 132 -81 q 78 -51 93 -65 q 92 88 29 -7 q 128 136 96 93 q 178 209 160 179 q 222 290 196 239 q 260 401 247 342 q 271 522 272 460 q 220 778 268 668 q 125 940 172 888 z "},"*":{"ha":706,"x_min":67,"x_max":644,"o":"m 606 606 q 631 503 668 554 q 569 472 608 472 q 514 490 542 472 q 497 502 508 493 q 462 529 485 511 q 422 560 439 547 q 422 530 422 550 q 421 499 421 510 l 421 485 q 406 414 419 435 q 353 389 393 393 l 346 389 q 294 413 315 389 q 271 478 274 438 q 269 554 271 517 q 190 496 199 501 q 129 472 156 472 q 83 496 103 472 q 69 556 63 524 q 106 615 75 589 q 226 708 125 632 q 108 800 115 794 q 67 906 42 856 q 132 946 86 946 q 186 929 158 946 q 271 865 232 897 l 271 946 q 296 1022 267 990 q 356 1049 322 1049 q 410 1021 396 1047 q 425 949 424 994 q 426 861 426 935 q 496 914 463 888 l 500 917 q 578 951 546 951 q 629 925 607 951 q 644 881 646 903 q 583 794 642 844 q 474 708 539 761 q 533 662 503 686 q 583 623 564 638 q 606 606 601 608 z "},"+":{"ha":976,"x_min":44,"x_max":932,"o":"m 803 628 q 895 611 861 628 q 932 544 929 594 q 915 492 935 513 q 794 454 886 460 q 581 453 767 453 q 576 168 578 192 q 492 71 571 71 q 424 102 451 71 q 397 181 397 133 l 397 282 q 396 453 396 329 q 146 456 190 453 q 44 532 44 460 q 73 600 44 574 q 150 629 101 626 q 292 631 164 631 l 394 631 q 396 897 394 881 q 472 1015 404 1007 q 547 992 517 1021 q 581 911 578 963 q 582 631 582 886 q 714 629 632 629 q 772 628 742 629 l 803 628 z "},",":{"ha":413,"x_min":103,"x_max":317,"o":"m 213 -6 q 202 -5 208 -6 q 179 0 196 -4 q 149 10 163 4 q 121 30 135 17 q 103 61 107 43 q 119 155 90 110 q 200 201 147 200 q 280 170 246 203 q 317 94 314 138 q 307 8 319 54 q 274 -65 294 -37 q 199 -106 231 -121 q 188 -56 164 -89 q 204 -45 199 -50 q 210 -37 210 -40 q 211 -23 211 -33 q 213 -6 211 -12 z "},"-":{"ha":682,"x_min":65,"x_max":614,"o":"m 196 279 q 107 294 138 279 q 65 351 76 310 q 98 427 64 393 q 185 463 132 461 q 285 460 226 460 q 407 461 344 460 q 486 463 469 463 q 573 440 535 463 q 614 386 611 418 q 595 315 618 347 q 519 281 572 282 q 427 273 492 274 q 285 276 363 272 q 196 279 207 279 z "},".":{"ha":390,"x_min":82,"x_max":314,"o":"m 203 -36 q 117 0 150 -31 q 82 72 85 31 q 113 158 78 117 q 207 196 147 200 q 290 156 265 193 q 314 71 314 118 q 279 -3 314 32 q 203 -36 244 -39 z "},"/":{"ha":719,"x_min":47,"x_max":646,"o":"m 472 988 q 619 1074 532 1121 q 646 921 706 1028 q 578 781 635 900 q 455 524 521 661 q 374 356 389 388 q 201 43 261 121 q 139 2 176 8 q 79 11 101 -4 q 47 61 53 25 q 65 158 42 97 q 173 381 81 194 q 288 622 265 568 q 389 827 313 682 q 472 988 465 972 z "},":":{"ha":431,"x_min":96,"x_max":338,"o":"m 217 681 q 131 719 161 685 q 96 797 100 754 q 137 880 92 838 q 235 913 182 922 q 313 869 288 903 q 338 792 338 836 q 305 710 343 743 q 217 681 267 678 m 211 169 q 132 209 163 175 q 101 286 101 243 q 156 363 117 325 q 239 393 194 400 q 308 353 285 386 q 332 282 332 321 q 297 202 332 240 q 211 169 263 164 z "},";":{"ha":431,"x_min":101,"x_max":333,"o":"m 222 676 q 137 713 169 682 q 101 785 104 743 q 132 872 97 831 q 226 908 167 913 q 309 867 285 906 q 333 783 333 829 q 299 709 333 744 q 222 676 264 674 m 214 185 q 203 185 210 185 q 181 190 197 186 q 151 201 164 194 q 124 220 138 207 q 106 251 110 233 q 122 345 93 300 q 201 392 150 390 q 281 360 247 393 q 318 285 315 328 q 308 199 321 244 q 275 125 296 153 q 235 88 256 99 q 200 83 214 76 q 189 133 167 100 q 202 140 197 136 q 209 148 207 143 q 212 156 211 153 q 213 169 213 160 q 214 185 213 178 z "},"<":{"ha":903,"x_min":50,"x_max":854,"o":"m 736 808 l 726 803 q 497 663 697 786 q 281 531 297 540 q 771 269 531 394 q 825 229 807 250 q 846 195 843 208 q 849 156 849 182 l 849 154 q 822 98 849 122 q 767 74 796 74 q 617 129 711 74 q 532 176 611 132 q 101 432 132 407 q 53 482 67 458 q 50 543 40 506 q 146 657 60 589 l 151 661 q 592 943 215 713 l 617 958 q 763 1010 701 1010 q 792 1004 781 1010 q 842 965 824 993 q 854 911 860 936 q 828 872 850 893 q 792 842 807 851 q 736 808 776 832 z "},"=":{"ha":904,"x_min":47,"x_max":851,"o":"m 182 643 q 92 665 121 647 q 57 719 63 683 q 83 797 51 767 q 165 831 114 828 q 461 830 208 828 q 744 831 714 832 q 774 819 756 826 q 799 810 793 813 q 817 803 806 808 q 832 793 829 797 q 840 781 835 789 q 846 765 844 774 q 847 744 847 757 q 818 673 853 699 q 732 647 783 647 q 454 638 675 638 q 182 643 233 639 m 714 433 q 814 415 779 433 q 851 347 849 397 q 813 278 854 297 q 701 256 772 260 q 423 253 638 253 q 154 257 208 254 q 47 333 47 261 q 78 405 47 378 q 160 435 110 432 q 320 436 224 436 q 561 435 417 436 q 714 433 706 433 z "},">":{"ha":903,"x_min":44,"x_max":850,"o":"m 850 543 q 845 483 858 506 q 799 432 832 460 q 367 176 761 401 q 283 129 317 149 q 132 74 188 74 q 77 99 104 74 q 50 154 50 124 l 50 156 q 53 195 50 182 q 74 229 56 208 q 129 269 92 250 q 618 531 342 379 q 174 803 179 800 l 163 808 q 107 842 122 832 q 70 872 92 851 q 44 911 49 893 q 58 965 40 936 q 107 1004 75 993 q 138 1010 118 1010 q 282 958 199 1010 l 307 943 q 747 661 683 713 l 753 657 q 850 543 839 589 z "},"?":{"ha":751,"x_min":49,"x_max":700,"o":"m 396 233 q 490 174 463 219 q 503 72 515 132 q 459 -3 493 26 q 381 -32 425 -32 q 287 8 324 -32 q 250 99 250 49 q 281 192 250 149 q 367 236 311 236 q 396 233 376 236 m 642 949 q 700 810 689 883 q 695 679 711 738 q 644 572 679 621 q 565 472 614 529 q 504 385 508 403 q 465 310 493 346 q 389 275 438 275 q 319 303 344 275 q 293 382 290 332 q 429 614 303 510 q 484 703 471 650 q 467 806 497 757 q 372 843 440 843 q 338 839 354 843 q 260 749 289 818 q 136 660 217 650 q 68 697 93 664 q 49 788 40 735 q 219 1022 78 956 q 390 1058 296 1058 q 642 949 561 1058 z "},"@":{"ha":1119,"x_min":57,"x_max":1064,"o":"m 931 933 q 1064 522 1104 775 q 998 384 1051 440 q 867 317 944 328 q 818 313 842 313 q 721 332 760 313 q 590 307 675 307 q 482 321 528 307 q 373 393 419 339 q 328 524 326 447 q 397 692 329 631 q 554 758 465 754 q 701 724 631 763 q 793 628 771 686 q 810 507 818 567 q 875 543 856 501 q 825 767 918 672 q 578 863 729 863 q 497 853 532 863 q 344 772 414 831 q 257 624 274 713 q 268 432 239 524 q 364 290 297 340 q 508 234 415 251 q 665 217 600 217 q 746 231 685 217 q 860 246 828 250 q 918 206 899 239 q 922 124 940 165 q 739 31 901 67 q 621 19 683 19 q 303 90 454 19 q 101 292 168 153 q 57 600 35 431 q 152 839 75 732 q 347 1006 229 946 q 571 1050 433 1050 q 774 1019 679 1050 q 931 933 869 988 m 643 515 q 644 575 658 546 q 614 606 636 596 q 575 614 593 614 q 523 595 546 614 q 490 546 500 576 q 494 497 479 518 q 557 461 514 465 q 606 472 581 458 q 643 515 631 486 z "},"A":{"ha":1136,"x_min":54,"x_max":1090,"o":"m 1083 136 q 1090 54 1103 92 q 1039 0 1076 17 q 953 -3 1007 -19 q 871 67 900 14 q 778 283 849 108 l 382 282 q 367 249 368 251 q 263 49 289 86 q 200 -15 228 -1 q 125 -19 172 -29 q 54 34 75 -8 q 56 143 33 76 q 211 474 74 192 q 364 794 349 757 q 385 849 368 804 q 411 913 403 893 q 436 963 419 932 q 469 1012 453 994 q 504 1038 486 1029 q 624 1047 553 1060 q 722 990 696 1035 q 910 553 743 956 q 1083 136 1076 150 m 589 742 q 483 508 538 628 l 683 510 l 589 742 z "},"B":{"ha":947,"x_min":114,"x_max":849,"o":"m 767 518 q 849 264 863 375 q 601 -3 818 18 q 419 -11 508 -11 q 286 -7 386 -11 q 239 -6 267 -6 q 161 26 197 -6 q 119 106 125 57 q 114 879 111 161 l 114 918 q 150 1011 114 975 q 247 1051 186 1047 q 404 1056 310 1056 q 610 1046 536 1056 q 744 976 686 1036 q 817 846 803 915 q 763 550 847 690 q 757 542 760 547 l 754 536 q 767 518 756 535 m 596 796 q 451 832 571 832 q 430 831 443 832 q 413 831 417 831 l 401 831 q 346 800 349 831 q 344 735 344 785 q 343 669 344 685 q 354 629 342 647 q 382 615 367 617 l 389 615 q 464 611 439 611 q 582 636 550 611 q 617 708 611 660 q 596 796 624 756 m 343 263 q 354 224 340 239 q 382 210 365 210 l 386 210 q 472 206 436 206 q 599 229 568 206 q 635 297 629 253 q 614 381 642 340 q 457 415 589 415 l 414 415 l 401 415 q 346 383 349 415 q 344 324 344 369 q 343 263 344 278 z "},"C":{"ha":1001,"x_min":90,"x_max":915,"o":"m 806 258 q 890 217 861 258 q 915 117 928 167 q 817 22 899 57 q 625 -6 753 -6 q 335 51 433 -6 q 271 94 301 69 q 199 165 240 118 q 132 268 158 213 q 92 408 106 324 q 90 588 78 492 q 138 758 101 681 q 221 886 174 836 q 326 972 268 936 q 439 1023 385 1007 q 543 1040 493 1039 q 551 1041 546 1040 q 560 1042 557 1042 q 775 999 675 1042 q 908 903 875 956 q 907 756 961 824 q 835 724 879 724 q 747 753 792 724 q 600 790 689 790 q 522 782 561 790 q 400 701 460 767 q 335 551 340 636 q 436 292 325 383 q 527 249 469 264 q 638 235 585 235 q 668 236 658 235 q 731 247 696 240 q 806 258 783 258 z "},"D":{"ha":1056,"x_min":113,"x_max":976,"o":"m 874 875 q 958 681 933 797 q 976 452 983 565 q 936 244 968 339 q 782 59 893 121 q 550 -6 671 -3 l 535 -6 q 339 -8 390 -8 q 238 -6 279 -8 q 113 149 108 8 l 113 404 q 115 883 113 851 q 181 999 121 958 q 317 1039 240 1039 l 322 1039 l 372 1039 q 443 1040 393 1040 q 874 875 750 1040 m 764 489 q 693 711 767 636 q 457 789 618 789 l 435 789 l 421 789 l 413 789 l 401 789 q 356 776 369 789 q 342 733 342 764 l 342 663 l 342 293 q 408 239 344 239 q 418 238 411 239 q 431 238 425 238 q 493 235 461 235 q 764 489 756 235 z "},"E":{"ha":921,"x_min":111,"x_max":846,"o":"m 736 225 q 803 188 779 224 q 826 113 826 151 q 799 40 826 76 q 733 1 772 3 q 240 -6 606 -6 q 111 114 117 -6 q 114 735 107 213 q 115 883 115 807 q 243 1024 115 1019 l 319 1024 q 747 1018 639 1024 q 820 983 794 1017 q 846 903 846 949 q 817 826 846 854 q 735 794 788 797 q 556 793 704 793 l 408 793 l 383 793 q 354 758 358 793 q 351 626 351 747 q 710 618 693 618 q 764 594 740 618 q 794 507 797 557 q 765 440 792 471 q 699 407 738 408 q 636 406 689 406 q 350 408 506 406 q 349 260 349 333 q 399 228 349 228 q 736 225 678 228 z "},"F":{"ha":907,"x_min":114,"x_max":847,"o":"m 357 760 l 357 686 q 725 685 653 682 q 783 660 758 685 q 815 572 818 624 q 786 501 814 533 q 718 465 758 468 q 360 461 658 461 q 364 213 363 271 q 364 153 364 182 q 364 108 364 125 l 365 90 q 331 15 365 46 q 254 -19 296 -17 l 246 -19 q 223 -18 235 -19 q 192 -9 211 -17 q 159 10 174 -1 q 133 46 144 22 q 121 101 122 69 q 114 874 114 249 q 243 1015 114 1014 q 746 1011 375 1019 q 822 977 796 1010 q 847 900 847 944 q 817 819 847 849 q 735 789 788 790 q 556 788 704 788 l 406 788 l 381 788 q 357 760 361 788 z "},"G":{"ha":1103,"x_min":97,"x_max":1033,"o":"m 922 563 q 999 522 965 558 q 1033 435 1032 486 q 1033 411 1033 426 q 1024 353 1032 396 q 1002 271 1015 310 q 958 184 989 232 q 888 103 928 136 q 575 3 767 3 q 475 8 521 3 q 288 83 374 19 q 157 221 203 146 q 97 365 111 296 q 254 907 29 722 q 593 1028 400 1028 q 743 1013 657 1028 q 889 944 831 996 q 957 846 947 892 q 940 754 968 788 q 858 713 907 713 q 781 744 826 713 q 756 760 764 756 q 704 783 729 775 q 614 794 664 794 q 558 790 589 794 q 472 761 528 786 q 379 692 415 736 q 321 565 336 640 q 325 414 306 490 q 400 290 344 338 q 592 225 478 225 q 696 239 646 225 q 815 368 789 264 q 676 367 776 367 q 588 391 626 367 q 547 457 549 415 q 574 528 546 500 q 676 564 607 564 l 719 565 q 778 566 739 565 q 835 567 817 567 q 922 563 894 567 z "},"H":{"ha":1111,"x_min":110,"x_max":1000,"o":"m 110 875 q 110 890 110 881 q 114 922 110 899 q 128 962 118 944 q 160 994 138 979 q 213 1008 182 1008 q 315 963 286 1008 q 344 856 344 918 l 344 607 l 760 604 q 763 847 763 789 q 800 979 764 944 q 899 1008 836 1014 q 967 967 949 1003 q 990 868 986 932 q 1000 119 1000 715 q 965 19 1000 51 q 874 -6 931 -12 q 803 26 822 -1 q 771 117 785 53 q 765 207 767 138 q 764 336 763 276 l 764 396 l 354 401 q 353 122 358 182 q 228 -7 343 -7 q 145 35 175 -7 q 118 138 115 76 q 115 516 119 185 q 110 875 110 847 z "},"I":{"ha":461,"x_min":108,"x_max":357,"o":"m 353 504 q 357 143 358 172 q 330 43 354 76 q 242 6 306 10 q 235 4 239 4 q 149 49 178 4 q 118 158 121 94 q 109 536 114 268 q 110 899 104 804 q 152 980 115 950 q 233 1010 189 1010 q 317 972 282 1010 q 349 885 350 936 q 353 504 347 844 z "},"J":{"ha":858,"x_min":51,"x_max":746,"o":"m 632 1019 q 746 874 746 1017 q 739 594 746 806 q 726 311 732 383 q 657 117 721 193 q 481 13 593 40 q 376 0 431 0 q 219 29 292 0 q 101 111 146 58 q 51 332 -7 235 q 136 374 75 374 q 226 329 194 374 l 235 318 q 268 276 256 290 q 307 250 281 263 q 368 238 333 238 l 376 238 q 476 279 440 239 q 514 393 511 319 q 517 647 517 465 q 515 876 517 828 q 551 990 513 950 q 628 1019 581 1019 l 632 1019 z "},"K":{"ha":993,"x_min":114,"x_max":954,"o":"m 915 204 q 953 131 944 174 q 946 58 963 88 q 840 4 915 4 q 772 22 803 4 q 521 217 707 58 q 376 326 482 251 q 366 335 374 329 q 357 342 358 340 q 358 133 358 235 q 333 33 356 67 q 246 -4 310 0 l 236 -4 q 152 40 181 -4 q 121 146 124 85 q 114 542 117 219 q 117 936 111 864 q 158 1017 122 988 q 239 1047 194 1047 q 321 1011 288 1047 q 354 925 356 974 q 354 690 351 883 q 568 854 488 788 q 603 882 594 875 l 617 893 q 701 960 675 940 q 763 999 726 981 q 824 1018 799 1018 q 898 985 865 1017 q 931 914 931 953 q 825 761 933 844 q 554 515 763 714 q 656 429 567 504 q 823 287 744 354 q 915 204 901 219 z "},"L":{"ha":1001,"x_min":115,"x_max":939,"o":"m 808 265 q 903 228 869 265 q 939 140 936 192 q 907 56 942 92 q 807 13 871 15 q 307 10 654 10 q 230 24 269 10 q 156 79 190 38 q 119 185 121 121 q 116 569 117 283 q 117 910 115 856 q 153 1015 119 976 q 243 1053 186 1053 q 338 1014 301 1053 q 374 911 376 975 q 378 433 374 910 l 378 421 q 378 371 378 396 q 378 330 378 346 q 379 311 379 314 q 418 267 379 267 l 553 267 q 701 266 607 267 q 808 265 794 265 z "},"M":{"ha":1189,"x_min":111,"x_max":1081,"o":"m 1078 690 q 1081 111 1085 174 q 1049 38 1078 67 q 978 7 1021 10 q 897 33 933 4 q 860 111 861 61 q 846 489 850 388 l 843 593 q 696 383 714 401 q 601 339 654 339 q 499 390 547 339 q 343 576 440 454 q 342 118 343 158 q 307 38 339 71 q 228 3 275 4 l 221 3 q 111 114 124 3 q 113 733 104 176 l 113 739 q 113 816 113 775 q 114 860 114 857 q 204 1019 114 989 q 236 1024 221 1024 q 307 997 274 1024 q 386 918 340 971 q 594 622 456 836 q 846 999 804 965 q 949 1036 892 1036 q 1018 1013 988 1036 q 1066 944 1056 982 q 1076 846 1076 907 q 1077 792 1076 844 q 1078 694 1078 739 l 1078 690 z "},"N":{"ha":1147,"x_min":114,"x_max":1039,"o":"m 929 1040 q 1005 1007 971 1039 q 1039 929 1039 975 q 1031 117 1039 244 q 991 43 1028 76 q 903 10 954 10 q 832 28 867 10 q 347 614 756 68 q 349 345 349 529 q 349 117 350 161 q 313 46 347 74 q 236 15 279 18 q 161 43 194 13 q 122 132 128 74 q 115 522 118 188 q 114 904 113 856 q 147 991 117 957 q 228 1032 176 1025 q 237 1033 231 1032 q 247 1033 243 1033 q 397 960 329 1033 q 814 396 429 925 l 814 925 q 849 1008 814 976 q 926 1040 883 1040 l 929 1040 z "},"O":{"ha":1144,"x_min":86,"x_max":1060,"o":"m 1060 660 q 1047 317 1108 492 q 853 71 985 143 q 586 8 736 8 q 274 97 392 8 q 110 333 168 178 q 86 657 51 489 q 246 915 117 801 q 547 1031 375 1028 l 558 1031 q 873 927 733 1031 q 1060 660 1013 824 m 818 410 q 760 706 872 588 q 574 778 692 778 q 406 722 469 778 q 332 439 289 625 q 417 314 349 365 q 572 258 485 263 q 724 297 650 256 q 818 410 797 338 z "},"P":{"ha":981,"x_min":114,"x_max":928,"o":"m 676 1036 q 857 940 783 1031 q 928 728 931 850 q 861 512 925 607 q 685 407 797 417 q 475 400 608 400 q 358 401 378 400 q 359 241 360 367 q 356 85 358 115 q 315 6 350 35 q 236 -22 279 -22 q 159 4 194 -22 q 117 78 124 31 q 114 813 110 119 l 114 910 q 145 1004 114 969 q 233 1046 176 1039 q 318 1049 267 1049 q 676 1036 460 1049 m 367 647 q 374 628 368 632 q 397 625 379 625 l 418 624 l 493 624 q 614 626 564 624 q 700 736 694 632 q 685 798 703 771 q 636 828 668 825 q 399 835 550 835 q 369 796 369 835 q 368 754 369 772 q 367 647 365 674 z "},"Q":{"ha":1126,"x_min":85,"x_max":1054,"o":"m 981 229 q 1025 178 1010 197 q 1044 111 1047 149 q 1010 64 1040 74 q 948 40 989 40 q 871 68 907 39 q 846 90 865 74 l 842 89 q 836 85 839 86 q 532 25 697 14 q 268 110 367 36 q 100 344 161 192 q 85 660 39 497 q 241 912 115 801 q 536 1025 367 1022 q 853 925 713 1028 q 1039 663 993 822 q 1053 438 1069 554 q 981 229 1038 322 m 561 254 q 661 267 607 250 q 656 273 658 269 q 651 278 653 276 q 642 414 600 346 q 708 448 661 444 q 796 415 754 451 q 813 400 801 411 q 817 411 815 408 q 756 718 871 597 q 573 792 688 789 q 388 735 458 796 q 311 442 268 635 q 399 312 328 365 q 561 254 469 258 z "},"R":{"ha":990,"x_min":110,"x_max":931,"o":"m 754 424 q 882 151 863 210 q 878 65 897 103 q 822 8 858 26 q 746 5 793 -10 q 678 67 699 19 q 528 394 653 126 q 338 393 475 393 q 336 90 342 142 q 299 19 331 46 q 226 -8 267 -8 q 154 17 186 -8 q 115 85 122 42 q 111 231 113 106 q 110 492 110 357 q 113 763 111 626 q 114 913 114 900 q 224 1039 114 1026 q 672 1029 317 1049 q 856 935 778 1024 q 931 728 933 846 q 881 548 928 636 q 754 424 833 460 m 349 633 q 355 610 349 618 q 368 601 361 603 q 390 600 375 600 q 608 603 568 600 q 685 637 656 606 q 718 722 714 668 q 695 797 721 760 q 632 839 669 835 q 505 838 618 840 q 390 844 392 836 q 351 797 351 844 q 350 751 351 790 q 348 685 349 713 q 349 633 347 657 z "},"S":{"ha":825,"x_min":71,"x_max":764,"o":"m 764 881 q 754 808 775 842 q 701 768 735 776 q 660 763 671 763 q 574 792 622 763 q 439 828 517 828 q 415 825 429 828 q 363 791 383 818 q 347 731 343 764 q 482 600 354 667 q 608 510 546 567 q 700 394 671 453 q 718 207 743 306 q 613 51 693 108 q 371 -10 524 -10 q 299 -7 349 -10 q 192 22 254 -3 q 110 68 129 46 q 71 146 76 104 q 89 221 65 188 q 186 274 129 274 q 251 258 221 274 q 394 229 322 229 q 449 239 429 229 q 485 293 481 257 q 464 356 490 326 q 363 425 444 376 q 182 558 231 504 q 125 666 142 606 q 113 779 108 726 q 135 882 117 832 q 253 1023 169 978 q 432 1068 338 1068 q 526 1057 479 1068 q 691 979 631 1029 q 764 881 751 929 z "},"T":{"ha":981,"x_min":31,"x_max":953,"o":"m 857 1061 q 928 1024 903 1057 q 953 956 953 992 q 924 888 953 919 q 847 858 894 857 q 614 857 824 860 q 613 472 613 801 q 611 113 613 143 q 588 19 608 50 q 507 -14 567 -11 q 425 24 453 -18 q 394 128 397 67 q 392 469 392 201 q 396 854 392 738 q 158 851 192 850 q 69 874 100 854 q 31 949 39 893 q 65 1033 24 1003 q 164 1067 107 1064 q 515 1068 217 1069 q 857 1061 813 1067 z "},"U":{"ha":1086,"x_min":110,"x_max":976,"o":"m 867 1029 q 947 990 918 1029 q 976 881 976 950 q 965 335 976 472 q 847 108 954 207 q 569 7 739 8 l 564 7 q 251 108 367 7 q 124 390 135 208 q 110 879 110 585 q 143 989 110 949 q 235 1029 176 1029 l 240 1029 q 356 876 356 1025 q 353 796 356 865 q 369 394 342 467 q 435 286 396 324 q 554 249 474 249 l 560 249 q 688 287 644 250 q 742 404 731 324 q 744 800 751 475 q 743 894 743 842 q 778 992 743 954 q 867 1029 813 1029 z "},"V":{"ha":1064,"x_min":50,"x_max":1028,"o":"m 972 1000 q 1027 923 1017 972 q 1019 839 1038 874 q 840 473 1008 806 q 639 88 672 140 q 515 21 597 21 q 385 94 432 21 q 204 472 326 189 q 50 840 82 754 q 99 1010 7 958 q 144 1022 119 1022 q 272 926 218 1022 q 393 663 296 885 q 525 358 490 440 q 603 518 539 385 q 733 788 667 651 q 804 938 799 925 q 853 992 821 968 q 919 1015 885 1015 q 972 1000 946 1015 z "},"W":{"ha":1192,"x_min":38,"x_max":1151,"o":"m 38 867 q 113 1013 22 982 q 207 994 167 1031 q 265 904 247 958 l 403 438 q 415 463 406 436 q 435 530 424 489 q 457 613 446 571 q 479 692 468 656 q 497 740 490 729 q 594 800 529 799 q 696 735 660 801 q 743 614 717 694 q 786 472 769 533 l 801 411 q 831 488 808 408 q 885 688 847 540 q 950 924 935 878 q 1015 997 968 981 q 1103 992 1063 1014 q 1149 938 1135 978 q 1151 861 1164 897 q 1096 666 1151 860 q 983 289 1040 472 q 904 67 926 106 q 794 10 863 6 q 700 60 726 14 q 658 158 683 88 q 614 286 632 229 l 597 343 q 583 279 603 343 q 537 144 564 215 q 494 56 510 72 q 394 17 454 8 q 301 88 333 25 q 156 485 268 151 q 38 867 44 819 z "},"X":{"ha":968,"x_min":32,"x_max":933,"o":"m 629 521 q 874 211 853 242 q 908 150 899 175 q 910 95 918 125 q 871 36 903 65 q 806 10 842 7 q 740 31 769 13 q 682 79 710 49 q 474 338 617 157 q 244 74 263 90 q 190 28 214 42 q 135 16 167 14 q 69 46 104 18 q 32 108 38 71 q 40 178 26 144 q 81 243 54 211 q 124 295 90 256 q 216 405 157 335 q 321 529 275 475 q 81 843 103 807 q 65 937 54 896 q 107 1003 75 978 q 184 1026 132 1029 q 269 979 236 1022 q 478 713 278 965 q 732 1001 703 975 q 823 1033 779 1036 q 897 1003 867 1031 q 933 928 929 975 q 900 835 938 882 q 629 521 868 801 z "},"Y":{"ha":1015,"x_min":61,"x_max":979,"o":"m 61 856 q 75 1014 1 961 q 166 1033 118 1043 q 250 982 214 1024 l 524 678 q 589 749 528 674 q 719 909 650 824 q 806 1007 789 994 q 878 1035 839 1033 q 951 1007 917 1038 q 978 923 982 971 q 949 835 975 875 q 842 690 919 790 q 700 513 764 590 l 636 435 q 645 406 643 433 q 646 335 647 378 q 642 249 644 292 q 638 165 640 207 q 635 108 635 124 q 599 28 633 61 q 519 -6 565 -6 q 433 33 465 -4 q 397 129 400 69 l 396 450 q 319 538 399 443 q 154 736 239 632 q 61 856 69 840 z "},"Z":{"ha":892,"x_min":50,"x_max":847,"o":"m 194 788 q 94 816 136 788 q 50 893 51 844 q 85 982 47 947 q 194 1018 122 1017 q 632 1017 347 1022 q 768 926 739 1013 q 773 894 774 911 q 770 863 772 876 q 758 825 768 849 q 743 790 749 801 q 722 747 738 778 q 619 592 710 722 q 444 343 528 461 l 360 225 q 736 221 365 210 q 815 193 786 222 q 847 119 844 164 q 825 45 850 75 q 744 10 800 15 q 460 6 692 6 q 188 7 228 6 q 92 44 131 10 q 54 138 54 79 q 74 213 54 174 q 133 303 94 251 q 181 369 171 354 q 283 518 207 413 q 421 708 358 624 l 483 792 q 428 783 488 783 q 284 785 369 782 q 194 788 199 788 z "},"[":{"ha":536,"x_min":103,"x_max":500,"o":"m 103 1003 q 132 1093 100 1061 q 210 1125 164 1125 q 331 1124 240 1125 q 438 1124 421 1124 q 492 1099 479 1122 q 500 1036 504 1076 q 413 961 494 961 q 363 951 396 951 q 307 954 331 950 l 283 958 q 282 836 285 949 q 276 589 279 724 q 275 401 274 454 q 284 267 283 340 q 281 153 285 194 l 276 111 q 317 104 285 106 q 380 104 349 103 q 438 103 411 106 q 499 25 499 97 q 493 -35 515 -11 q 421 -61 471 -58 q 210 -62 365 -76 q 141 -45 174 -74 q 103 36 108 -17 q 103 517 101 65 q 103 1003 106 969 z "},"¥":{"ha":694,"x_min":0,"x_max":0,"o":""},"]":{"ha":550,"x_min":46,"x_max":447,"o":"m 442 1003 q 447 517 442 993 q 442 36 453 40 q 408 -46 436 -19 q 336 -62 379 -72 q 124 -61 190 -75 q 96 -56 107 -60 q 78 -49 85 -51 q 65 -35 71 -46 q 58 -19 60 -24 q 52 3 57 -15 q 46 25 47 21 q 61 78 46 56 q 107 103 76 100 q 182 104 124 104 q 269 111 269 104 q 273 156 271 128 q 278 265 275 183 q 271 401 281 346 q 271 717 274 492 q 263 958 268 942 q 133 961 183 940 q 46 1036 50 961 q 66 1094 43 1068 q 108 1124 89 1121 q 215 1124 124 1124 q 336 1125 306 1125 q 414 1093 382 1125 q 442 1003 446 1061 z "},"^":{"ha":868,"x_min":35,"x_max":844,"o":"m 453 836 q 196 410 228 450 q 163 370 188 383 q 116 358 139 357 q 75 365 93 360 q 35 408 47 378 q 38 486 22 439 q 242 818 56 529 q 303 922 268 858 q 362 1023 339 986 q 400 1068 385 1060 q 472 1076 425 1085 q 542 1036 519 1068 q 665 809 564 1004 q 783 572 765 614 q 804 530 789 560 q 828 481 819 500 q 843 438 838 461 q 844 403 849 415 q 797 360 833 374 q 726 360 760 346 q 699 379 714 364 q 668 422 685 394 q 640 470 651 449 q 608 529 628 492 q 579 583 589 567 l 453 836 z "},"_":{"ha":761,"x_min":24,"x_max":738,"o":"m 608 -39 q 701 -56 667 -39 q 738 -122 735 -72 q 721 -175 740 -154 q 600 -212 692 -207 q 379 -214 569 -214 q 125 -211 192 -214 q 24 -135 24 -207 q 52 -67 24 -93 q 129 -37 81 -40 q 368 -36 142 -36 q 452 -37 429 -36 q 526 -37 475 -37 q 581 -39 554 -37 l 608 -39 z "},"`":{"ha":611,"x_min":136,"x_max":385,"o":"m 276 1043 q 385 931 349 988 q 384 851 413 886 q 322 829 356 815 q 168 910 201 879 q 137 974 139 935 q 164 1042 135 1013 q 276 1043 214 1089 z "},"a":{"ha":888,"x_min":75,"x_max":794,"o":"m 582 63 q 553 44 572 56 q 474 17 533 33 q 354 6 415 0 q 161 85 242 15 q 75 279 81 156 q 274 638 64 536 q 535 653 401 692 q 725 525 668 615 q 777 397 761 469 q 794 278 793 325 q 789 166 794 232 q 783 96 783 100 q 751 15 782 43 q 669 -12 719 -12 q 619 6 642 -12 q 589 44 597 25 l 582 63 m 556 286 q 568 352 568 318 q 540 419 568 386 q 461 467 513 453 q 343 449 386 486 q 285 349 300 413 q 309 246 272 293 q 414 199 346 199 q 498 223 460 199 q 556 286 536 247 z "},"b":{"ha":871,"x_min":101,"x_max":803,"o":"m 103 907 q 142 1000 101 968 q 232 1026 182 1032 q 308 982 276 1021 q 340 900 340 943 l 344 683 q 395 683 346 683 q 496 677 444 682 q 612 645 547 672 q 715 571 676 618 q 803 344 797 471 q 742 131 808 218 q 570 23 685 50 q 338 0 456 -4 q 193 14 225 3 q 110 140 118 39 q 102 543 101 182 q 103 907 103 904 m 324 254 q 392 205 325 213 q 504 225 460 197 q 564 302 550 250 q 553 399 578 354 q 522 439 540 424 q 478 460 503 454 q 437 467 453 465 q 394 468 421 468 q 338 451 356 468 q 319 393 319 433 q 324 254 319 307 z "},"c":{"ha":768,"x_min":71,"x_max":714,"o":"m 593 10 q 321 17 479 -24 q 149 128 219 40 q 71 336 79 215 q 131 570 64 467 q 328 708 197 674 q 463 725 397 729 q 572 707 528 721 q 646 674 615 693 q 699 531 729 619 q 647 465 683 483 q 567 463 611 447 q 470 483 517 481 q 381 463 424 486 q 328 385 339 439 q 349 289 317 328 q 463 240 381 250 q 555 244 493 238 q 638 244 617 250 q 690 213 665 239 q 714 133 714 186 q 593 10 714 44 z "},"d":{"ha":874,"x_min":72,"x_max":772,"o":"m 768 144 q 729 48 763 81 q 667 10 696 15 q 565 3 638 4 q 542 1 550 1 q 309 22 425 -4 q 136 128 193 49 q 72 341 68 215 q 158 568 76 467 q 240 633 190 607 q 338 669 289 660 q 430 682 386 678 q 500 685 474 686 l 528 683 q 530 692 529 683 q 531 717 531 700 q 531 751 531 733 q 531 793 531 768 q 530 834 531 818 q 528 873 529 850 q 528 901 528 896 q 560 983 528 943 q 636 1029 592 1024 q 727 1003 686 1035 q 767 911 768 971 q 772 547 767 893 q 768 144 776 200 m 556 394 q 538 451 556 433 q 481 468 519 468 q 438 467 454 468 q 397 459 421 465 q 353 438 372 453 q 321 397 335 422 q 312 301 297 353 q 372 224 326 249 q 484 206 417 197 q 553 256 551 214 q 556 394 556 308 z "},"e":{"ha":743,"x_min":74,"x_max":664,"o":"m 74 385 q 100 523 74 454 q 185 644 126 592 q 319 706 243 697 q 639 563 547 731 q 663 413 681 485 q 579 299 646 342 q 484 269 547 278 q 375 264 421 261 l 328 265 q 340 249 329 264 q 367 223 351 233 q 424 206 383 213 q 524 215 464 199 q 616 180 576 228 q 625 78 656 132 q 531 10 601 35 q 342 7 460 -14 q 74 385 74 54 m 472 479 q 428 528 464 514 q 351 528 392 543 q 319 432 281 463 q 380 420 343 421 q 448 437 417 419 q 472 479 479 454 z "},"f":{"ha":826,"x_min":42,"x_max":768,"o":"m 703 982 q 768 808 815 906 q 710 754 749 769 q 647 753 672 739 q 591 767 626 768 q 538 740 556 767 q 510 686 521 721 q 614 682 588 683 q 689 635 661 678 q 719 546 717 593 q 685 465 722 497 q 590 432 647 433 q 494 428 557 431 q 488 108 488 119 q 456 34 488 67 q 386 -1 424 1 q 315 24 349 -4 q 276 99 282 51 q 274 424 271 143 q 249 425 256 424 q 174 431 201 428 q 114 444 146 435 q 65 471 82 453 q 42 517 47 489 q 59 631 28 583 q 164 685 90 679 q 278 689 174 686 q 308 842 278 782 q 397 951 339 903 q 545 1009 451 997 q 703 982 639 1021 z "},"g":{"ha":818,"x_min":75,"x_max":733,"o":"m 513 154 q 472 151 510 154 q 413 147 433 149 q 353 148 393 146 q 285 156 313 150 q 223 177 257 163 q 164 214 189 192 q 76 385 97 271 q 90 576 54 500 q 246 735 139 686 q 474 751 353 783 q 724 417 683 697 q 733 239 733 329 q 709 56 733 149 q 640 -96 685 -37 q 513 -193 590 -160 q 342 -221 436 -226 q 192 -177 254 -215 q 117 -87 131 -139 q 135 1 106 -43 q 214 39 164 44 q 291 22 238 36 q 375 14 344 8 q 513 154 524 39 m 499 410 q 463 532 521 468 q 383 560 438 560 q 296 521 328 561 q 290 426 268 478 q 354 367 311 374 q 499 410 475 349 z "},"h":{"ha":882,"x_min":106,"x_max":779,"o":"m 107 893 q 132 1004 114 979 q 207 1036 154 1036 q 301 992 271 1036 q 331 893 331 949 l 342 636 l 356 640 q 393 648 368 644 q 450 652 418 651 q 526 643 482 653 q 615 613 571 633 q 779 324 761 546 q 778 86 792 164 q 749 26 772 53 q 678 0 725 0 q 599 29 626 0 q 567 96 571 58 q 563 207 564 119 q 561 313 563 294 q 523 394 558 365 q 447 423 488 424 q 372 392 406 422 q 335 308 338 361 q 335 216 335 301 q 332 126 335 131 q 294 32 321 60 q 219 0 268 4 q 143 25 167 -4 q 114 121 119 54 q 106 517 108 171 q 107 893 104 864 z "},"i":{"ha":465,"x_min":104,"x_max":371,"o":"m 246 663 q 139 703 181 658 q 104 811 97 749 q 180 915 114 886 q 289 921 246 944 q 371 786 371 879 q 339 703 371 739 q 246 663 307 668 m 111 143 q 110 463 97 293 q 153 573 114 538 q 242 611 192 608 q 326 567 294 611 q 358 438 358 524 q 359 346 358 407 q 360 249 360 285 q 358 170 360 213 q 351 101 357 128 q 224 -12 326 -21 q 176 1 196 -10 q 145 24 156 11 q 127 60 135 36 q 117 99 119 83 q 111 143 114 114 z "},"j":{"ha":749,"x_min":42,"x_max":676,"o":"m 522 658 q 438 701 475 663 q 400 783 400 739 q 439 885 400 836 q 542 929 478 935 q 643 877 607 924 q 676 785 679 831 q 628 696 672 739 q 522 658 585 653 m 414 439 q 447 558 411 511 q 544 604 482 604 q 624 564 603 604 q 649 443 644 524 q 633 67 654 319 q 549 -106 625 -37 q 385 -190 474 -175 q 211 -184 293 -206 q 78 -111 129 -162 q 42 -27 47 -81 q 71 69 38 26 q 141 101 97 100 q 219 79 185 103 q 296 55 253 58 q 364 64 339 51 q 403 101 389 75 q 420 173 417 128 q 423 253 424 218 q 419 350 422 288 q 414 439 415 413 z "},"k":{"ha":761,"x_min":107,"x_max":694,"o":"m 479 383 q 668 185 635 225 q 690 106 692 153 q 668 38 688 60 q 630 12 656 22 q 566 4 604 1 q 497 35 528 7 q 328 201 475 54 q 326 104 328 115 q 294 29 324 61 q 214 -8 265 -3 q 137 22 163 -12 q 114 111 111 56 q 113 323 115 142 q 109 691 111 504 q 107 894 107 878 q 199 1022 107 1022 q 291 986 256 1022 q 326 900 326 950 q 327 842 326 893 q 328 716 328 792 q 328 569 328 640 q 521 718 476 688 q 612 738 561 746 q 682 692 663 729 q 694 609 703 656 q 649 533 685 563 q 584 479 626 517 q 511 413 542 442 l 479 383 z "},"l":{"ha":442,"x_min":104,"x_max":342,"o":"m 335 147 q 332 98 333 113 q 325 60 331 83 q 309 28 319 38 q 279 10 299 19 q 231 0 260 1 q 139 44 168 -4 q 107 164 110 92 q 105 532 103 233 q 114 888 107 831 q 157 975 121 944 q 238 1006 193 1006 q 311 970 279 1006 q 342 875 343 935 q 338 508 340 832 q 335 147 336 183 z "},"m":{"ha":1132,"x_min":104,"x_max":1028,"o":"m 104 582 q 132 674 104 639 q 204 710 160 710 q 276 694 250 710 q 321 636 303 679 q 342 653 328 643 q 397 679 356 663 q 478 694 438 696 q 561 673 524 692 q 614 636 599 654 l 629 618 q 661 628 633 611 q 736 665 689 644 q 824 682 783 686 q 957 617 899 675 q 1028 463 1015 558 q 1024 69 1046 331 q 994 11 1021 33 q 928 -11 968 -11 q 838 76 851 -11 q 835 231 832 104 q 833 382 838 357 q 757 444 821 444 q 714 431 729 444 q 689 382 699 418 q 680 221 682 353 q 676 79 678 89 q 644 19 674 42 q 574 -3 615 -3 q 485 74 506 -3 q 474 234 476 100 q 469 381 471 368 q 407 461 463 456 q 326 394 342 467 q 320 224 322 374 q 313 53 318 74 q 280 3 307 22 q 219 -15 253 -15 q 147 8 181 -15 q 110 79 113 32 q 104 582 104 188 z "},"n":{"ha":894,"x_min":103,"x_max":793,"o":"m 106 593 q 139 678 111 649 q 208 711 167 708 q 282 686 244 713 q 322 632 319 660 q 331 639 325 635 q 356 656 336 643 q 398 672 375 668 q 460 680 421 676 q 542 671 499 683 q 708 579 649 649 q 785 392 767 510 q 793 79 807 242 q 767 15 790 42 q 707 -14 744 -11 q 600 79 610 -19 q 596 221 597 122 q 590 358 594 319 q 553 443 585 419 q 464 467 522 467 q 360 435 399 467 q 322 328 321 404 q 321 78 324 207 q 222 -14 317 -10 q 115 86 133 -21 q 103 335 107 142 q 106 593 100 528 z "},"o":{"ha":825,"x_min":64,"x_max":761,"o":"m 410 -7 q 199 62 296 -7 q 72 264 103 131 q 65 351 61 304 q 78 447 68 399 q 115 539 88 494 q 181 617 143 583 q 276 671 218 651 q 404 690 333 690 q 553 663 488 689 q 658 598 618 638 q 722 506 697 558 q 756 406 747 454 q 761 308 764 357 q 660 85 753 176 q 410 -7 567 -7 m 549 307 q 554 358 553 331 q 535 419 556 386 q 475 472 515 453 q 348 470 407 506 q 276 386 289 435 q 290 282 264 333 q 382 218 315 231 q 492 233 447 204 q 549 307 538 261 z "},"p":{"ha":822,"x_min":107,"x_max":765,"o":"m 107 576 q 113 616 108 599 q 122 647 118 633 q 138 672 126 661 q 153 689 149 682 q 175 701 158 696 q 197 708 192 706 q 225 713 203 711 q 253 716 247 715 q 286 717 258 717 q 319 718 314 718 q 706 586 607 725 q 765 369 771 499 q 678 139 760 239 q 598 74 646 100 q 504 40 550 49 q 417 27 458 31 q 351 25 376 24 l 326 28 q 333 -3 333 17 q 331 -55 333 -22 q 328 -107 328 -87 q 300 -188 328 -150 q 229 -232 272 -226 q 147 -206 181 -237 q 115 -114 114 -175 q 108 205 117 -83 q 107 576 100 493 m 301 325 q 319 268 301 286 q 375 250 336 250 q 434 252 413 250 q 487 271 456 254 q 535 319 518 288 q 546 416 560 364 q 486 493 532 468 q 374 512 442 519 q 304 463 307 504 q 301 325 301 411 z "},"q":{"ha":813,"x_min":60,"x_max":717,"o":"m 708 -114 q 678 -206 711 -175 q 596 -232 644 -237 q 524 -188 553 -226 q 496 -107 496 -150 l 499 28 q 435 16 489 21 q 290 44 382 11 q 147 139 199 76 q 60 369 65 239 q 119 586 54 499 q 506 718 218 725 q 638 706 611 714 q 717 576 707 681 q 717 199 725 490 q 708 -114 708 -93 m 521 463 q 451 512 518 504 q 339 493 383 519 q 279 416 293 468 q 290 319 265 364 q 322 279 303 294 q 365 258 340 264 q 406 251 390 253 q 449 250 422 250 q 506 268 489 250 q 524 325 524 286 q 521 463 524 411 z "},"r":{"ha":756,"x_min":100,"x_max":701,"o":"m 100 579 q 196 735 92 735 q 280 704 250 735 q 310 622 310 674 l 310 551 q 341 566 318 546 q 406 617 364 586 q 489 663 447 649 q 626 672 563 688 q 701 599 689 657 q 685 508 715 540 q 569 453 654 476 q 344 242 390 403 q 331 153 338 217 q 308 55 324 90 q 257 10 293 19 q 208 1 229 3 q 173 5 188 -1 q 150 16 158 11 q 135 38 142 21 q 127 62 129 56 q 122 92 125 68 q 118 119 119 115 q 107 352 111 158 q 100 579 103 546 z "},"s":{"ha":683,"x_min":61,"x_max":600,"o":"m 119 604 q 180 709 139 671 q 262 759 221 747 q 360 774 303 771 q 515 750 450 776 q 600 679 581 724 q 596 588 619 635 q 514 540 572 542 q 449 551 489 540 q 383 563 410 563 q 338 540 357 563 q 327 513 328 524 q 340 490 326 503 q 368 470 354 478 q 402 451 382 463 q 433 429 422 439 q 465 402 451 414 q 497 371 478 390 q 528 333 515 351 q 552 290 540 315 q 569 242 564 265 q 575 188 575 218 q 567 128 575 158 q 481 -5 540 35 q 311 -42 421 -44 q 72 49 139 -40 q 61 93 58 64 q 74 151 64 122 q 115 196 85 179 q 186 204 146 213 q 231 194 197 201 q 280 183 265 186 q 317 178 294 181 q 350 182 339 176 q 365 199 361 188 q 352 247 376 225 q 280 296 328 269 q 213 340 232 322 q 119 604 78 463 z "},"t":{"ha":713,"x_min":36,"x_max":676,"o":"m 564 707 q 650 659 622 700 q 676 576 678 618 q 636 502 675 531 q 533 474 597 474 l 461 474 l 461 132 q 363 -4 461 -4 q 286 29 308 -4 q 256 136 264 63 q 251 474 249 222 q 36 572 36 467 q 103 676 36 642 q 264 713 171 710 q 288 847 267 808 q 374 886 310 886 q 426 872 406 886 q 453 826 446 857 q 463 774 461 796 q 464 711 464 751 q 514 710 472 711 q 564 707 556 708 z "},"u":{"ha":867,"x_min":90,"x_max":771,"o":"m 93 550 q 113 672 88 635 q 199 711 139 708 q 282 673 253 715 q 315 575 311 631 q 316 519 315 564 q 318 433 317 474 q 322 347 319 393 q 334 271 325 301 q 356 233 343 240 q 415 216 379 219 q 485 226 450 213 q 535 269 521 239 q 553 374 549 299 q 556 512 558 450 q 557 615 554 574 q 675 704 564 713 q 747 660 726 701 q 771 519 767 618 q 756 238 778 335 q 550 10 710 42 q 251 29 363 -29 q 111 235 140 88 q 91 384 94 322 q 91 489 88 446 q 93 550 94 532 z "},"v":{"ha":961,"x_min":35,"x_max":908,"o":"m 51 526 q 35 628 26 586 q 92 699 44 671 q 188 701 144 725 q 264 617 231 678 l 463 265 q 480 281 467 264 q 513 326 493 297 q 554 390 532 354 q 600 463 576 425 q 644 534 624 501 q 680 593 664 567 q 703 629 696 619 q 868 688 781 743 q 908 525 951 636 q 843 415 901 506 q 715 219 785 325 q 628 86 644 114 q 469 -3 572 -1 q 300 93 365 -6 q 51 526 76 454 z "},"w":{"ha":1004,"x_min":42,"x_max":954,"o":"m 951 650 q 954 571 969 608 q 950 560 953 568 q 942 537 947 553 q 933 508 938 521 q 758 49 796 103 q 721 7 739 19 q 669 -6 703 -6 q 622 6 638 -6 q 589 43 606 17 q 563 102 582 53 q 526 194 544 151 q 501 240 508 238 q 408 36 426 53 q 394 21 403 31 q 381 8 385 11 q 367 2 376 6 q 346 -1 358 -1 q 292 14 313 -1 q 251 64 272 29 q 135 328 224 111 q 42 582 47 544 q 103 718 22 694 q 139 724 128 724 q 219 694 185 724 q 268 624 253 664 q 347 399 278 600 q 406 549 393 528 q 500 606 442 606 q 594 544 558 606 q 661 382 621 499 q 751 638 728 579 q 864 713 781 713 q 903 703 878 713 q 951 650 929 693 z "},"x":{"ha":767,"x_min":33,"x_max":742,"o":"m 693 208 q 707 190 694 207 q 724 164 719 172 q 736 138 729 156 q 741 106 743 119 q 729 73 739 92 q 699 36 719 54 q 626 7 667 7 q 506 75 563 7 q 382 210 458 131 q 236 57 261 82 q 140 6 185 6 q 74 28 104 6 q 33 97 40 56 q 78 215 28 158 q 222 372 96 239 q 72 538 86 513 q 49 628 44 586 q 88 697 53 671 q 161 721 118 721 q 260 669 224 721 q 382 539 275 647 q 518 676 506 665 q 601 706 554 707 q 679 676 647 706 q 708 601 708 649 q 676 517 711 553 q 542 376 672 513 q 693 208 675 235 z "},"y":{"ha":851,"x_min":33,"x_max":814,"o":"m 63 506 q 34 615 31 569 q 83 690 38 660 q 182 701 132 721 q 272 621 232 681 l 417 401 q 463 444 425 394 q 547 561 500 493 q 613 647 594 629 q 656 680 632 667 q 715 690 681 693 q 779 657 750 688 q 813 590 810 625 q 802 524 817 554 q 754 449 788 493 q 326 -104 388 -53 q 272 -147 289 -135 q 221 -158 256 -158 q 149 -128 186 -158 q 179 81 76 -72 q 224 140 201 113 q 260 178 247 167 l 272 188 q 258 215 278 185 q 189 317 243 239 q 63 506 78 474 z "},"z":{"ha":750,"x_min":44,"x_max":708,"o":"m 160 497 q 44 581 49 504 q 76 664 42 628 q 172 701 110 700 q 557 704 268 704 q 643 648 607 704 q 642 539 679 592 q 562 440 631 524 q 431 282 493 357 l 367 207 q 427 198 369 200 q 540 197 485 196 q 622 197 594 199 q 683 165 656 194 q 708 92 711 136 q 672 18 704 44 q 588 -8 639 -8 q 469 -14 560 -14 q 274 -11 378 -14 q 164 -8 171 -8 q 98 20 129 -8 q 57 78 67 49 q 66 151 47 114 q 126 235 85 188 l 365 501 q 362 497 367 499 q 348 495 357 496 q 327 494 339 494 q 301 493 315 493 q 271 494 286 493 q 239 494 256 494 q 209 495 222 494 q 182 497 196 496 q 160 497 168 497 z "},"{":{"ha":481,"x_min":122,"x_max":436,"o":"m 403 981 q 342 871 342 931 q 344 830 342 858 q 346 793 346 801 q 350 631 357 683 q 279 497 340 561 q 336 365 332 435 q 335 265 338 347 q 347 100 324 138 q 393 42 364 74 q 425 -12 422 10 q 410 -69 429 -47 q 350 -93 390 -93 q 258 -35 306 -93 q 194 88 211 22 q 192 251 182 135 q 194 342 197 326 q 161 403 190 367 q 122 476 126 446 q 181 603 110 551 q 207 657 197 614 q 208 739 217 700 q 240 1044 161 954 q 363 1107 296 1107 q 424 1085 406 1107 q 436 1040 439 1068 q 403 981 432 1003 z "},"|":{"ha":433,"x_min":128,"x_max":314,"o":"m 313 996 q 313 481 315 949 q 308 -25 311 13 q 224 -124 303 -124 q 157 -92 185 -124 q 129 -14 129 -60 l 129 89 q 128 982 124 925 q 204 1100 136 1090 q 279 1076 249 1106 q 313 996 310 1046 z "},"}":{"ha":494,"x_min":67,"x_max":381,"o":"m 99 981 q 67 1040 69 1006 q 79 1085 64 1068 q 139 1107 97 1107 q 261 1044 207 1107 q 294 739 342 954 q 296 657 286 700 q 322 603 306 614 q 381 476 392 553 q 342 403 375 444 q 308 342 313 367 q 311 251 303 317 q 308 88 321 135 q 244 -35 292 22 q 153 -93 197 -93 q 92 -69 113 -93 q 78 -12 74 -49 q 110 42 81 13 q 156 100 139 74 q 168 265 176 133 q 165 365 164 328 q 222 497 171 432 q 153 631 163 564 q 156 793 146 676 q 161 871 161 851 q 141 933 161 903 q 99 981 121 964 z "},"~":{"ha":561,"x_min":56,"x_max":503,"o":"m 164 944 q 104 928 128 928 q 65 951 81 929 q 56 1008 47 975 q 96 1065 64 1042 q 176 1087 125 1086 q 276 1068 228 1088 q 359 1051 314 1053 q 424 1058 404 1049 q 469 1058 446 1068 q 503 1022 493 1047 q 501 965 514 993 q 449 921 489 938 q 392 909 421 910 q 344 914 363 908 q 294 931 326 919 q 164 944 211 963 z "},"\\":{"ha":722,"x_min":71,"x_max":669,"o":"m 244 988 q 328 827 251 972 q 429 622 404 682 q 544 381 451 568 q 651 158 636 194 q 669 61 675 97 q 638 11 664 25 q 578 2 615 -4 q 515 42 540 8 q 343 356 454 124 q 262 524 328 388 q 139 781 196 661 q 71 921 82 900 q 97 1074 11 1028 q 244 988 185 1121 z "},"¦":{"ha":694,"x_min":0,"x_max":0,"o":""},"¡":{"ha":694,"x_min":0,"x_max":0,"o":""},"¢":{"ha":694,"x_min":0,"x_max":0,"o":""},"£":{"ha":694,"x_min":0,"x_max":0,"o":""},"⁄":{"ha":694,"x_min":0,"x_max":0,"o":""},"¤":{"ha":694,"x_min":0,"x_max":0,"o":""},"«":{"ha":694,"x_min":0,"x_max":0,"o":""},"‹":{"ha":694,"x_min":0,"x_max":0,"o":""},"›":{"ha":694,"x_min":0,"x_max":0,"o":""},"ﬁ":{"ha":694,"x_min":0,"x_max":0,"o":""},"ﬂ":{"ha":694,"x_min":0,"x_max":0,"o":""},"‒":{"ha":694,"x_min":0,"x_max":0,"o":""},"·":{"ha":694,"x_min":0,"x_max":0,"o":""},"•":{"ha":694,"x_min":0,"x_max":0,"o":""},"‚":{"ha":694,"x_min":0,"x_max":0,"o":""},"„":{"ha":694,"x_min":0,"x_max":0,"o":""},"»":{"ha":694,"x_min":0,"x_max":0,"o":""},"¿":{"ha":694,"x_min":0,"x_max":0,"o":""},"́":{"ha":694,"x_min":0,"x_max":0,"o":""},"̂":{"ha":694,"x_min":0,"x_max":0,"o":""},"¯":{"ha":694,"x_min":0,"x_max":0,"o":""},"̆":{"ha":694,"x_min":0,"x_max":0,"o":""},"̇":{"ha":694,"x_min":0,"x_max":0,"o":""},"̈":{"ha":694,"x_min":0,"x_max":0,"o":""},"̊":{"ha":694,"x_min":0,"x_max":0,"o":""},"¸":{"ha":694,"x_min":0,"x_max":0,"o":""},"̋":{"ha":694,"x_min":0,"x_max":0,"o":""},"̨":{"ha":694,"x_min":0,"x_max":0,"o":""},"̌":{"ha":694,"x_min":0,"x_max":0,"o":""},"̶":{"ha":694,"x_min":0,"x_max":0,"o":""},"Æ":{"ha":694,"x_min":0,"x_max":0,"o":""},"ª":{"ha":694,"x_min":0,"x_max":0,"o":""},"Ł":{"ha":694,"x_min":0,"x_max":0,"o":""},"Ø":{"ha":694,"x_min":0,"x_max":0,"o":""},"Œ":{"ha":694,"x_min":0,"x_max":0,"o":""},"º":{"ha":694,"x_min":0,"x_max":0,"o":""},"æ":{"ha":694,"x_min":0,"x_max":0,"o":""},"ı":{"ha":694,"x_min":0,"x_max":0,"o":""},"ł":{"ha":694,"x_min":0,"x_max":0,"o":""},"ø":{"ha":694,"x_min":0,"x_max":0,"o":""},"œ":{"ha":694,"x_min":0,"x_max":0,"o":""},"ß":{"ha":694,"x_min":0,"x_max":0,"o":""},"­":{"ha":694,"x_min":0,"x_max":0,"o":""},"©":{"ha":694,"x_min":0,"x_max":0,"o":""},"¬":{"ha":694,"x_min":0,"x_max":0,"o":""},"®":{"ha":694,"x_min":0,"x_max":0,"o":""},"²":{"ha":694,"x_min":0,"x_max":0,"o":""},"³":{"ha":694,"x_min":0,"x_max":0,"o":""},"µ":{"ha":694,"x_min":0,"x_max":0,"o":""},"¹":{"ha":694,"x_min":0,"x_max":0,"o":""},"¼":{"ha":694,"x_min":0,"x_max":0,"o":""},"½":{"ha":694,"x_min":0,"x_max":0,"o":""},"¾":{"ha":694,"x_min":0,"x_max":0,"o":""},"À":{"ha":694,"x_min":0,"x_max":0,"o":""},"Á":{"ha":694,"x_min":0,"x_max":0,"o":""},"Â":{"ha":694,"x_min":0,"x_max":0,"o":""},"Ã":{"ha":694,"x_min":0,"x_max":0,"o":""},"Ä":{"ha":694,"x_min":0,"x_max":0,"o":""},"Å":{"ha":694,"x_min":0,"x_max":0,"o":""},"Ç":{"ha":694,"x_min":0,"x_max":0,"o":""},"È":{"ha":694,"x_min":0,"x_max":0,"o":""},"É":{"ha":694,"x_min":0,"x_max":0,"o":""},"Ê":{"ha":694,"x_min":0,"x_max":0,"o":""},"Ë":{"ha":694,"x_min":0,"x_max":0,"o":""},"Ì":{"ha":694,"x_min":0,"x_max":0,"o":""},"Í":{"ha":694,"x_min":0,"x_max":0,"o":""},"Î":{"ha":694,"x_min":0,"x_max":0,"o":""},"Ï":{"ha":694,"x_min":0,"x_max":0,"o":""},"Ð":{"ha":694,"x_min":0,"x_max":0,"o":""},"Ñ":{"ha":694,"x_min":0,"x_max":0,"o":""},"Ò":{"ha":694,"x_min":0,"x_max":0,"o":""},"Ó":{"ha":694,"x_min":0,"x_max":0,"o":""},"Ô":{"ha":694,"x_min":0,"x_max":0,"o":""},"Õ":{"ha":694,"x_min":0,"x_max":0,"o":""},"Ö":{"ha":694,"x_min":0,"x_max":0,"o":""},"Ù":{"ha":694,"x_min":0,"x_max":0,"o":""},"Ú":{"ha":694,"x_min":0,"x_max":0,"o":""},"Û":{"ha":694,"x_min":0,"x_max":0,"o":""},"Ü":{"ha":694,"x_min":0,"x_max":0,"o":""},"Ý":{"ha":694,"x_min":0,"x_max":0,"o":""},"Þ":{"ha":694,"x_min":0,"x_max":0,"o":""},"à":{"ha":694,"x_min":0,"x_max":0,"o":""},"á":{"ha":694,"x_min":0,"x_max":0,"o":""},"â":{"ha":694,"x_min":0,"x_max":0,"o":""},"ã":{"ha":694,"x_min":0,"x_max":0,"o":""},"ä":{"ha":694,"x_min":0,"x_max":0,"o":""},"å":{"ha":694,"x_min":0,"x_max":0,"o":""},"ç":{"ha":694,"x_min":0,"x_max":0,"o":""},"è":{"ha":694,"x_min":0,"x_max":0,"o":""},"é":{"ha":694,"x_min":0,"x_max":0,"o":""},"ê":{"ha":694,"x_min":0,"x_max":0,"o":""},"ë":{"ha":694,"x_min":0,"x_max":0,"o":""},"ì":{"ha":694,"x_min":0,"x_max":0,"o":""},"í":{"ha":694,"x_min":0,"x_max":0,"o":""},"î":{"ha":694,"x_min":0,"x_max":0,"o":""},"ï":{"ha":694,"x_min":0,"x_max":0,"o":""},"ð":{"ha":694,"x_min":0,"x_max":0,"o":""},"ñ":{"ha":694,"x_min":0,"x_max":0,"o":""},"ò":{"ha":694,"x_min":0,"x_max":0,"o":""},"ó":{"ha":694,"x_min":0,"x_max":0,"o":""},"ô":{"ha":694,"x_min":0,"x_max":0,"o":""},"õ":{"ha":694,"x_min":0,"x_max":0,"o":""},"ö":{"ha":694,"x_min":0,"x_max":0,"o":""},"ù":{"ha":694,"x_min":0,"x_max":0,"o":""},"ú":{"ha":694,"x_min":0,"x_max":0,"o":""},"û":{"ha":694,"x_min":0,"x_max":0,"o":""},"ü":{"ha":694,"x_min":0,"x_max":0,"o":""},"ý":{"ha":694,"x_min":0,"x_max":0,"o":""},"þ":{"ha":694,"x_min":0,"x_max":0,"o":""},"ÿ":{"ha":694,"x_min":0,"x_max":0,"o":""},"Š":{"ha":694,"x_min":0,"x_max":0,"o":""},"Ÿ":{"ha":694,"x_min":0,"x_max":0,"o":""},"Ž":{"ha":694,"x_min":0,"x_max":0,"o":""},"̅":{"ha":694,"x_min":0,"x_max":0,"o":""},"š":{"ha":694,"x_min":0,"x_max":0,"o":""},"™":{"ha":694,"x_min":0,"x_max":0,"o":""},"ž":{"ha":694,"x_min":0,"x_max":0,"o":""}," ":{"ha":694,"x_min":0,"x_max":0,"o":""},"￨":{"ha":694,"x_min":0,"x_max":0,"o":""},"‾":{"ha":694,"x_min":0,"x_max":0,"o":""},"｡":{"ha":714,"x_min":61,"x_max":408,"o":"m 219 -39 q 61 136 76 -29 q 113 263 56 200 q 247 311 169 325 q 368 246 328 296 q 408 129 408 196 q 359 8 422 61 q 219 -39 296 -46 m 286 143 q 274 179 286 163 q 239 199 261 196 q 194 185 214 203 q 174 144 174 167 q 185 99 175 108 q 225 86 196 90 q 269 103 251 83 q 286 143 286 122 z "},"｢":{"ha":906,"x_min":278,"x_max":842,"o":"m 468 911 q 461 17 461 79 q 447 -42 463 -21 q 415 -68 432 -64 q 371 -72 397 -72 q 285 13 294 -72 q 278 976 278 74 q 317 1063 278 1025 q 417 1101 357 1101 q 572 1101 431 1101 q 761 1094 713 1100 q 821 1061 800 1090 q 842 997 842 1032 q 809 944 842 969 q 724 917 776 918 l 468 911 z "},"｣":{"ha":903,"x_min":58,"x_max":622,"o":"m 432 118 q 439 1013 439 950 q 474 1077 450 1053 q 529 1101 499 1101 q 615 1017 606 1101 q 622 51 622 954 q 583 -35 622 3 q 483 -72 543 -72 q 139 -65 415 -99 q 79 -32 100 -61 q 58 31 58 -3 q 91 85 58 60 q 176 111 124 110 l 432 118 z "},"､":{"ha":711,"x_min":86,"x_max":390,"o":"m 117 117 q 86 235 51 175 q 149 274 107 271 q 225 251 192 278 q 300 184 250 232 q 364 125 350 136 q 390 6 433 64 q 338 -33 368 -24 q 269 -19 308 -43 q 181 58 242 1 q 117 117 121 114 z "},"･":{"ha":717,"x_min":222,"x_max":513,"o":"m 367 428 q 263 474 299 432 q 222 574 228 517 q 271 681 218 628 q 390 721 324 733 q 513 568 513 697 q 469 469 513 514 q 367 428 426 424 z "},"ｦ":{"ha":694,"x_min":0,"x_max":0,"o":""},"ｧ":{"ha":694,"x_min":0,"x_max":0,"o":""},"ｨ":{"ha":694,"x_min":0,"x_max":0,"o":""},"ｩ":{"ha":694,"x_min":0,"x_max":0,"o":""},"ｪ":{"ha":694,"x_min":0,"x_max":0,"o":""},"ｫ":{"ha":694,"x_min":0,"x_max":0,"o":""},"ｬ":{"ha":694,"x_min":0,"x_max":0,"o":""},"ｭ":{"ha":694,"x_min":0,"x_max":0,"o":""},"ｮ":{"ha":694,"x_min":0,"x_max":0,"o":""},"ｯ":{"ha":694,"x_min":0,"x_max":0,"o":""},"ｰ":{"ha":647,"x_min":49,"x_max":597,"o":"m 179 474 q 90 489 121 474 q 49 546 60 504 q 81 622 47 588 q 168 657 115 656 q 269 654 210 654 q 390 656 328 654 q 469 657 453 657 q 556 635 518 657 q 597 581 594 613 q 578 509 601 542 q 503 475 556 476 q 410 467 475 468 q 268 470 346 467 q 179 474 190 474 z "},"ｱ":{"ha":694,"x_min":0,"x_max":0,"o":""},"ｲ":{"ha":694,"x_min":0,"x_max":0,"o":""},"ｳ":{"ha":694,"x_min":0,"x_max":0,"o":""},"ｴ":{"ha":694,"x_min":0,"x_max":0,"o":""},"ｵ":{"ha":694,"x_min":0,"x_max":0,"o":""},"ｶ":{"ha":694,"x_min":0,"x_max":0,"o":""},"ｷ":{"ha":694,"x_min":0,"x_max":0,"o":""},"ｸ":{"ha":694,"x_min":0,"x_max":0,"o":""},"ｹ":{"ha":694,"x_min":0,"x_max":0,"o":""},"ｺ":{"ha":694,"x_min":0,"x_max":0,"o":""},"ｻ":{"ha":694,"x_min":0,"x_max":0,"o":""},"ｼ":{"ha":694,"x_min":0,"x_max":0,"o":""},"ｽ":{"ha":694,"x_min":0,"x_max":0,"o":""},"ｾ":{"ha":694,"x_min":0,"x_max":0,"o":""},"ｿ":{"ha":694,"x_min":0,"x_max":0,"o":""},"ﾀ":{"ha":694,"x_min":0,"x_max":0,"o":""},"ﾁ":{"ha":694,"x_min":0,"x_max":0,"o":""},"ﾂ":{"ha":694,"x_min":0,"x_max":0,"o":""},"ﾃ":{"ha":694,"x_min":0,"x_max":0,"o":""},"ﾄ":{"ha":694,"x_min":0,"x_max":0,"o":""},"ﾅ":{"ha":694,"x_min":0,"x_max":0,"o":""},"ﾆ":{"ha":694,"x_min":0,"x_max":0,"o":""},"ﾇ":{"ha":694,"x_min":0,"x_max":0,"o":""},"ﾈ":{"ha":694,"x_min":0,"x_max":0,"o":""},"ﾉ":{"ha":694,"x_min":0,"x_max":0,"o":""},"ﾊ":{"ha":694,"x_min":0,"x_max":0,"o":""},"ﾋ":{"ha":694,"x_min":0,"x_max":0,"o":""},"ﾌ":{"ha":694,"x_min":0,"x_max":0,"o":""},"ﾍ":{"ha":694,"x_min":0,"x_max":0,"o":""},"ﾎ":{"ha":694,"x_min":0,"x_max":0,"o":""},"ﾏ":{"ha":694,"x_min":0,"x_max":0,"o":""},"ﾐ":{"ha":694,"x_min":0,"x_max":0,"o":""},"ﾑ":{"ha":694,"x_min":0,"x_max":0,"o":""},"ﾒ":{"ha":694,"x_min":0,"x_max":0,"o":""},"ﾓ":{"ha":694,"x_min":0,"x_max":0,"o":""},"ﾔ":{"ha":694,"x_min":0,"x_max":0,"o":""},"ﾕ":{"ha":694,"x_min":0,"x_max":0,"o":""},"ﾖ":{"ha":694,"x_min":0,"x_max":0,"o":""},"ﾗ":{"ha":694,"x_min":0,"x_max":0,"o":""},"ﾘ":{"ha":694,"x_min":0,"x_max":0,"o":""},"ﾙ":{"ha":694,"x_min":0,"x_max":0,"o":""},"ﾚ":{"ha":694,"x_min":0,"x_max":0,"o":""},"ﾛ":{"ha":694,"x_min":0,"x_max":0,"o":""},"ﾜ":{"ha":694,"x_min":0,"x_max":0,"o":""},"ﾝ":{"ha":694,"x_min":0,"x_max":0,"o":""},"ﾞ":{"ha":694,"x_min":0,"x_max":0,"o":""},"ﾟ":{"ha":694,"x_min":0,"x_max":0,"o":""}," ":{"ha":1389,"x_min":0,"x_max":0,"o":""},"、":{"ha":1389,"x_min":136,"x_max":440,"o":"m 167 117 q 136 235 101 175 q 199 274 157 271 q 275 251 242 278 q 350 184 300 232 q 414 125 400 136 q 440 6 483 64 q 388 -33 418 -24 q 319 -19 358 -43 q 231 58 292 1 q 167 117 171 114 z "},"。":{"ha":1389,"x_min":100,"x_max":447,"o":"m 258 -39 q 100 136 115 -29 q 151 263 94 200 q 286 311 208 325 q 407 246 367 296 q 447 129 447 196 q 398 8 461 61 q 258 -39 335 -46 m 325 143 q 313 179 325 163 q 278 199 300 196 q 233 185 253 203 q 213 144 213 167 q 224 99 214 108 q 264 86 235 90 q 308 103 290 83 q 325 143 325 122 z "},"，":{"ha":1389,"x_min":158,"x_max":372,"o":"m 268 -6 q 258 -5 264 -6 q 235 0 251 -4 q 204 10 218 4 q 176 30 190 17 q 158 61 163 43 q 174 155 146 110 q 256 201 203 200 q 335 170 301 203 q 372 94 369 138 q 363 8 375 54 q 329 -65 350 -37 q 254 -106 286 -121 q 243 -56 219 -89 q 260 -45 254 -50 q 266 -37 265 -40 q 267 -23 267 -33 q 268 -6 267 -12 z "},"．":{"ha":1389,"x_min":149,"x_max":381,"o":"m 269 -36 q 184 0 217 -31 q 149 72 151 31 q 179 158 144 117 q 274 196 214 200 q 356 156 332 193 q 381 71 381 118 q 346 -3 381 32 q 269 -36 311 -39 z "},"・":{"ha":1389,"x_min":550,"x_max":840,"o":"m 694 428 q 591 474 626 432 q 550 574 556 517 q 599 681 546 628 q 718 721 651 733 q 840 568 840 697 q 797 469 840 514 q 694 428 754 424 z "},"：":{"ha":1389,"x_min":574,"x_max":815,"o":"m 694 681 q 608 719 639 685 q 574 797 578 754 q 615 880 569 838 q 713 913 660 922 q 790 869 765 903 q 815 792 815 836 q 783 710 821 743 q 694 681 744 678 m 689 169 q 610 209 640 175 q 579 286 579 243 q 633 363 594 325 q 717 393 672 400 q 786 353 763 386 q 810 282 810 321 q 775 202 810 240 q 689 169 740 164 z "},"；":{"ha":1389,"x_min":579,"x_max":811,"o":"m 700 676 q 615 713 647 682 q 579 785 582 743 q 610 872 575 831 q 704 908 644 913 q 787 867 763 906 q 811 783 811 829 q 776 709 811 744 q 700 676 742 674 m 692 185 q 681 185 688 185 q 658 190 675 186 q 628 201 642 194 q 601 220 615 207 q 583 251 588 233 q 599 345 571 300 q 679 392 628 390 q 759 360 725 393 q 796 285 793 328 q 786 199 799 244 q 753 125 774 153 q 713 88 733 99 q 678 83 692 76 q 667 133 644 100 q 680 140 675 136 q 687 148 685 143 q 690 156 689 153 q 690 169 690 160 q 692 185 690 178 z "},"？":{"ha":1389,"x_min":365,"x_max":1017,"o":"m 713 233 q 807 174 779 219 q 819 72 832 132 q 776 -3 810 26 q 697 -32 742 -32 q 603 8 640 -32 q 567 99 567 49 q 597 192 567 149 q 683 236 628 236 q 713 233 693 236 m 958 949 q 1017 810 1006 883 q 1012 679 1028 738 q 961 572 996 621 q 882 472 931 529 q 821 385 825 403 q 782 310 810 346 q 706 275 754 275 q 636 303 661 275 q 610 382 607 332 q 746 614 619 510 q 801 703 788 650 q 783 806 814 757 q 689 843 757 843 q 654 839 671 843 q 576 749 606 818 q 453 660 533 650 q 385 697 410 664 q 365 788 357 735 q 536 1022 394 956 q 707 1058 613 1058 q 958 949 878 1058 z "},"！":{"ha":1389,"x_min":576,"x_max":842,"o":"m 806 1008 q 842 876 846 961 q 792 346 794 364 q 708 269 779 274 l 704 269 q 622 347 640 269 q 597 599 615 374 q 576 885 579 824 q 611 1001 572 958 q 718 1047 650 1047 q 806 1008 771 1047 m 724 233 q 818 174 790 219 q 829 72 842 131 q 786 -3 819 26 q 708 -32 753 -32 q 614 8 651 -32 q 576 99 576 49 q 608 192 576 149 q 694 236 639 236 q 724 233 704 236 z "},"゛":{"ha":1389,"x_min":118,"x_max":431,"o":"m 135 888 q 119 951 117 917 q 149 1000 121 986 q 201 999 176 1015 q 261 935 225 983 q 312 835 308 871 q 279 782 315 799 q 206 797 247 765 q 135 888 165 828 m 297 961 q 280 1025 278 989 q 311 1075 282 1061 q 431 1000 368 1104 q 429 865 493 897 q 362 872 392 846 q 297 961 332 899 z "},"゜":{"ha":1389,"x_min":113,"x_max":461,"o":"m 272 719 q 113 896 128 731 q 164 1022 107 960 q 300 1071 221 1085 q 421 1006 381 1056 q 461 889 461 956 q 412 767 475 821 q 272 719 349 714 m 338 903 q 326 939 338 922 q 292 958 314 956 q 247 944 267 961 q 226 904 226 926 q 240 859 229 868 q 278 846 250 850 q 321 863 304 843 q 338 903 338 882 z "},"´":{"ha":1389,"x_min":589,"x_max":839,"o":"m 697 1043 q 753 1067 729 1067 q 811 1042 778 1068 q 838 974 840 1013 q 807 910 836 935 q 651 829 772 879 q 590 851 618 815 q 589 931 561 886 q 697 1043 625 988 z "},"｀":{"ha":1389,"x_min":576,"x_max":826,"o":"m 717 1043 q 826 931 785 993 q 824 851 853 888 q 764 829 796 815 q 608 910 644 878 q 577 974 579 935 q 604 1042 575 1013 q 717 1043 654 1089 z "},"¨":{"ha":1389,"x_min":475,"x_max":914,"o":"m 568 860 q 501 890 524 863 q 475 954 479 917 q 506 1023 472 989 q 583 1049 540 1057 q 661 950 661 1035 q 633 886 661 915 q 568 860 606 857 m 821 860 q 754 890 776 863 q 728 954 732 917 q 759 1023 725 989 q 835 1049 793 1057 q 890 1018 872 1033 q 910 990 907 1003 q 914 950 914 976 q 886 886 914 915 q 821 860 858 857 z "},"＾":{"ha":1389,"x_min":475,"x_max":918,"o":"m 918 904 q 899 810 953 843 q 863 799 883 799 q 796 836 828 799 l 703 929 q 592 832 601 842 q 525 803 560 803 q 490 814 506 803 q 475 908 442 851 q 556 989 482 919 q 607 1038 600 1031 q 701 1082 647 1082 q 800 1035 757 1082 l 829 1006 q 918 904 907 924 z "},"￣":{"ha":1389,"x_min":131,"x_max":1254,"o":"m 263 963 q 131 1038 131 953 q 243 1124 132 1124 q 537 1123 275 1122 q 863 1125 799 1124 q 1185 1118 1092 1132 q 1254 1032 1254 1104 q 1228 985 1254 1006 q 1149 960 1203 964 q 899 960 1113 957 q 632 960 686 964 q 430 959 581 954 q 263 963 279 964 z "},"＿":{"ha":1389,"x_min":135,"x_max":1258,"o":"m 1126 -46 q 1258 -121 1258 -36 q 1146 -207 1257 -207 q 852 -206 1114 -206 q 526 -208 590 -207 q 204 -201 297 -215 q 155 -175 175 -206 q 135 -115 135 -144 q 160 -68 135 -89 q 240 -43 186 -47 q 490 -44 276 -40 q 757 -43 703 -47 q 959 -42 808 -37 q 1126 -46 1110 -47 z "},"ヽ":{"ha":1389,"x_min":0,"x_max":0,"o":""},"ヾ":{"ha":1389,"x_min":0,"x_max":0,"o":""},"ゝ":{"ha":1389,"x_min":0,"x_max":0,"o":""},"ゞ":{"ha":1389,"x_min":0,"x_max":0,"o":""},"〃":{"ha":1389,"x_min":269,"x_max":1049,"o":"m 738 813 q 709 618 739 726 q 628 417 679 510 q 510 260 574 318 q 394 189 447 203 q 365 185 383 186 q 319 191 346 183 q 279 218 293 199 q 269 279 260 244 q 307 343 279 314 q 353 383 319 356 q 396 421 381 407 q 436 466 411 435 q 479 535 461 497 q 534 688 514 606 q 558 826 554 771 q 592 910 563 881 q 658 936 622 939 q 713 902 690 932 q 738 813 736 872 m 957 900 q 979 895 968 899 q 1006 880 990 892 q 1034 840 1022 868 q 1049 772 1046 813 q 1030 559 1056 678 q 956 336 1004 440 q 731 81 854 124 q 676 78 726 74 q 606 107 626 82 q 614 231 558 164 q 661 279 621 239 q 789 453 750 363 q 857 775 853 600 q 888 867 858 835 q 957 900 918 900 z "},"仝":{"ha":1389,"x_min":0,"x_max":0,"o":""},"々":{"ha":1389,"x_min":0,"x_max":0,"o":""},"〆":{"ha":1389,"x_min":0,"x_max":0,"o":""},"〇":{"ha":1389,"x_min":165,"x_max":1247,"o":"m 661 -60 q 469 -15 554 -53 q 332 74 385 22 q 243 198 279 126 q 190 338 207 269 q 165 485 172 407 q 198 676 157 575 q 315 859 239 776 q 506 992 390 942 q 749 1031 622 1042 q 965 967 868 1021 q 1123 834 1063 914 q 1215 659 1183 754 q 1247 464 1247 564 q 1198 268 1247 367 q 1069 94 1149 169 q 881 -24 990 19 q 661 -60 772 -68 m 1013 486 q 945 690 1013 596 q 750 801 878 783 q 499 720 615 819 q 383 500 383 621 q 460 283 383 376 q 672 172 538 189 q 851 213 769 160 q 972 341 932 265 q 1013 486 1013 417 z "},"ー":{"ha":1389,"x_min":206,"x_max":1190,"o":"m 1019 640 q 1142 618 1097 640 q 1190 529 1186 596 q 1168 460 1192 489 q 1007 410 1126 415 q 706 407 967 407 q 340 411 474 407 q 206 513 206 418 q 244 603 206 568 q 346 643 282 639 q 535 644 364 644 q 900 642 619 644 q 978 641 938 642 q 1019 640 1018 640 z "},"―":{"ha":1389,"x_min":206,"x_max":1190,"o":"m 1019 640 q 1142 618 1097 640 q 1190 529 1186 596 q 1168 460 1192 489 q 1007 410 1126 415 q 706 407 967 407 q 340 411 474 407 q 206 513 206 418 q 244 603 206 568 q 346 643 282 639 q 535 644 364 644 q 900 642 619 644 q 978 641 938 642 q 1019 640 1018 640 z "},"‐":{"ha":1389,"x_min":415,"x_max":964,"o":"m 546 474 q 457 489 488 474 q 415 546 426 504 q 448 622 414 588 q 535 657 482 656 q 635 654 576 654 q 757 656 694 654 q 836 657 819 657 q 923 635 885 657 q 964 581 961 613 q 945 509 968 542 q 869 475 922 476 q 777 467 842 468 q 635 470 713 467 q 546 474 557 474 z "},"／":{"ha":1389,"x_min":108,"x_max":1281,"o":"m 1260 958 q 765 484 1243 939 q 213 -42 288 29 q 126 -50 163 -86 q 108 -3 107 -31 q 131 46 110 24 l 178 96 q 689 587 233 156 q 1165 1036 1144 1018 q 1256 1058 1218 1086 q 1281 1013 1279 1040 q 1260 958 1282 985 z "},"＼":{"ha":1389,"x_min":108,"x_max":1281,"o":"m 129 958 q 108 1013 107 985 q 133 1058 110 1040 q 224 1036 171 1086 q 700 587 244 1018 q 1211 96 1156 156 q 1231 74 1219 86 q 1249 55 1243 61 q 1258 46 1256 49 q 1281 -3 1279 24 q 1263 -50 1282 -31 q 1176 -42 1226 -86 q 624 484 1101 29 q 129 958 146 939 z "},"∼":{"ha":1389,"x_min":150,"x_max":1238,"o":"m 1238 557 q 1215 478 1244 518 q 1122 415 1186 438 q 969 390 1049 390 q 779 425 881 390 q 694 457 761 431 q 496 514 558 513 q 347 492 386 518 q 240 453 288 450 q 167 500 192 456 q 151 551 151 526 q 157 593 150 576 q 184 628 164 610 q 217 656 204 647 q 253 679 229 664 q 472 732 339 732 q 588 717 533 732 q 729 663 629 704 q 943 597 888 593 q 1068 618 1007 601 q 1124 629 1104 626 q 1198 613 1164 635 q 1238 557 1232 592 z "},"‖":{"ha":1389,"x_min":468,"x_max":922,"o":"m 653 1008 q 653 493 656 957 q 649 -12 651 29 q 564 -111 642 -111 q 497 -79 525 -111 q 469 -1 469 -47 q 468 100 469 49 l 468 994 q 544 1111 476 1103 q 619 1088 589 1117 q 653 1008 650 1058 m 921 1008 q 922 493 924 961 q 917 -12 919 25 q 832 -111 910 -111 q 765 -80 792 -111 q 738 -1 738 -49 q 736 100 738 49 l 736 994 q 813 1111 744 1103 q 888 1088 857 1117 q 921 1008 918 1058 z "},"｜":{"ha":1389,"x_min":606,"x_max":792,"o":"m 790 996 q 791 481 793 949 q 786 -25 789 13 q 701 -124 781 -124 q 635 -92 663 -124 q 607 -14 607 -60 l 607 89 q 606 982 601 925 q 682 1100 614 1090 q 757 1076 726 1106 q 790 996 788 1046 z "},"…":{"ha":1389,"x_min":160,"x_max":1231,"o":"m 269 463 q 190 499 217 467 q 160 575 164 532 q 196 656 156 615 q 288 686 236 696 q 381 569 381 669 q 347 494 381 528 q 269 463 314 460 m 694 463 q 615 499 642 467 q 583 575 589 531 q 621 656 581 615 q 711 686 661 696 q 806 569 806 669 q 772 494 806 528 q 694 463 739 460 m 1118 463 q 1040 499 1067 467 q 1008 575 1013 532 q 1046 656 1006 615 q 1136 686 1086 696 q 1231 569 1231 669 q 1197 494 1231 528 q 1118 463 1164 460 z "},"‥":{"ha":1389,"x_min":229,"x_max":1132,"o":"m 339 463 q 260 499 286 467 q 229 575 233 532 q 267 656 226 615 q 357 686 307 696 q 450 569 450 669 q 417 494 450 528 q 339 463 383 460 m 1021 463 q 942 499 968 467 q 911 575 915 532 q 947 656 907 615 q 1039 686 988 696 q 1132 569 1132 669 q 1099 494 1132 528 q 1021 463 1065 460 z "},"‘":{"ha":1389,"x_min":1078,"x_max":1299,"o":"m 1186 976 q 1197 976 1190 976 q 1220 971 1203 975 q 1252 960 1238 967 q 1281 939 1267 953 q 1299 907 1294 925 q 1283 810 1313 857 q 1200 761 1253 764 q 1117 794 1153 760 q 1078 874 1081 829 q 1088 963 1075 915 q 1122 1039 1100 1011 q 1165 1076 1143 1065 q 1200 1081 1186 1088 q 1213 1029 1236 1064 q 1202 1015 1208 1022 q 1194 1004 1196 1007 q 1190 994 1192 1001 q 1186 976 1188 988 z "},"’":{"ha":1389,"x_min":97,"x_max":318,"o":"m 210 868 q 199 869 206 868 q 176 874 193 869 q 144 885 158 878 q 117 906 131 892 q 97 938 103 919 q 114 1035 85 989 q 197 1083 143 1082 q 279 1050 243 1085 q 318 972 315 1015 q 308 882 321 929 q 274 806 296 835 q 231 768 253 779 q 196 764 210 757 q 183 817 160 781 q 194 831 188 824 q 202 840 200 838 q 206 850 204 843 q 210 868 208 857 z "},"“":{"ha":1389,"x_min":789,"x_max":1296,"o":"m 1183 976 q 1194 976 1188 976 q 1217 971 1200 975 q 1249 960 1235 967 q 1276 939 1263 953 q 1296 907 1290 925 q 1278 810 1308 857 q 1196 761 1249 764 q 1113 794 1149 760 q 1075 874 1078 829 q 1085 963 1072 915 q 1119 1039 1097 1011 q 1162 1076 1140 1065 q 1197 1081 1183 1088 q 1210 1029 1233 1064 q 1199 1015 1206 1022 q 1191 1004 1193 1007 q 1187 994 1189 1001 q 1183 976 1185 988 m 897 976 q 908 976 901 976 q 931 971 914 975 q 963 960 949 967 q 992 939 978 953 q 1010 907 1006 925 q 994 810 1024 857 q 911 761 965 764 q 828 794 864 760 q 789 874 793 829 q 799 963 786 915 q 833 1039 811 1011 q 913 1081 878 1096 q 924 1029 947 1064 q 914 1015 919 1022 q 906 1004 908 1007 q 901 994 903 1001 q 897 976 899 988 z "},"”":{"ha":1389,"x_min":97,"x_max":603,"o":"m 210 868 q 199 869 206 868 q 176 874 193 869 q 144 885 158 878 q 115 906 129 892 q 97 938 101 919 q 113 1035 83 988 q 197 1083 143 1082 q 279 1050 243 1085 q 318 972 315 1015 q 308 882 321 929 q 274 806 296 835 q 231 768 253 779 q 196 764 210 757 q 183 817 161 782 q 196 821 192 818 q 203 829 200 824 q 206 838 206 835 q 208 852 207 842 q 210 868 208 863 m 496 868 q 485 869 492 868 q 462 874 479 869 q 430 885 444 878 q 401 906 415 892 q 383 938 388 919 q 399 1035 369 988 q 482 1083 428 1082 q 565 1051 529 1085 q 603 972 600 1017 q 594 883 607 931 q 558 806 581 836 q 481 764 514 749 q 469 817 446 782 q 479 831 474 824 q 487 840 485 838 q 492 850 489 843 q 496 868 494 857 z "},"（":{"ha":1389,"x_min":901,"x_max":1290,"o":"m 1242 940 q 1147 778 1194 888 q 1096 522 1099 668 q 1107 401 1094 460 q 1145 290 1119 342 q 1189 209 1171 239 q 1239 136 1207 179 q 1275 88 1271 93 q 1289 -51 1338 -7 q 1254 -73 1274 -65 q 1204 -76 1235 -81 q 1144 -49 1174 -71 q 1079 15 1113 -24 q 1003 120 1046 54 q 933 286 961 186 q 901 499 904 386 q 919 704 899 606 q 976 874 940 803 q 1043 990 1011 944 q 1106 1064 1075 1035 q 1275 1088 1204 1158 q 1290 1024 1299 1064 q 1242 940 1281 985 z "},"）":{"ha":1389,"x_min":110,"x_max":499,"o":"m 158 940 q 110 1024 119 985 q 125 1088 101 1064 q 294 1064 196 1158 q 435 846 368 993 q 499 499 503 699 q 467 286 496 386 q 397 120 439 186 q 321 15 354 54 q 256 -49 288 -24 q 196 -76 226 -71 q 146 -73 165 -81 q 111 -51 126 -65 q 125 88 63 -7 q 161 136 129 93 q 211 209 193 179 q 255 290 229 239 q 293 401 281 342 q 304 522 306 460 q 253 778 301 668 q 158 940 206 888 z "},"〔":{"ha":1389,"x_min":850,"x_max":1296,"o":"m 858 931 q 964 1053 851 1025 q 1219 1108 1114 1094 q 1273 1083 1247 1111 q 1296 1019 1299 1054 q 1274 963 1293 982 q 1208 931 1254 944 l 1031 879 q 1035 799 1038 857 q 1026 633 1032 742 q 1022 475 1021 524 q 1026 342 1025 414 q 1025 228 1026 269 l 1024 185 q 1072 163 1028 179 q 1174 127 1117 146 q 1244 103 1231 108 q 1294 42 1288 86 q 1274 -35 1301 -1 q 1207 -60 1247 -69 q 957 11 1040 -24 q 938 19 953 13 q 917 28 922 25 q 899 38 911 31 q 881 51 886 44 q 867 67 875 57 q 856 89 860 76 q 850 117 851 101 q 858 518 854 163 q 858 931 861 874 z "},"〕":{"ha":1389,"x_min":99,"x_max":544,"o":"m 536 931 q 542 534 535 913 q 544 117 550 156 q 539 89 543 101 q 527 67 535 76 q 514 51 519 57 q 496 38 508 44 q 478 28 483 31 q 457 19 472 25 q 438 11 442 13 q 188 -60 354 -24 q 120 -35 147 -69 q 100 42 93 -1 q 150 103 107 86 q 176 112 158 106 q 214 124 193 118 q 258 138 235 131 q 301 151 281 144 q 339 165 322 158 q 364 177 356 172 q 371 185 372 182 q 374 229 372 201 q 376 339 375 257 q 372 475 378 421 q 372 630 374 531 q 368 803 371 729 q 364 879 365 876 q 186 931 250 911 q 121 963 140 944 q 99 1019 101 982 q 122 1083 96 1054 q 175 1108 147 1111 q 431 1053 281 1094 q 536 931 543 1025 z "},"［":{"ha":1389,"x_min":892,"x_max":1289,"o":"m 892 1003 q 921 1093 889 1061 q 999 1125 953 1125 q 1119 1124 1029 1125 q 1226 1124 1210 1124 q 1281 1099 1268 1122 q 1289 1036 1293 1076 q 1201 961 1283 961 q 1152 951 1185 951 q 1096 954 1119 950 l 1072 958 q 1071 836 1074 949 q 1065 589 1068 724 q 1064 401 1063 454 q 1073 267 1072 340 q 1069 153 1074 194 l 1065 111 q 1106 104 1074 106 q 1169 104 1138 103 q 1226 103 1200 106 q 1288 25 1288 97 q 1282 -35 1304 -11 q 1210 -61 1260 -58 q 999 -62 1154 -76 q 930 -45 963 -74 q 892 36 897 -17 q 892 517 890 65 q 892 1003 894 969 z "},"］":{"ha":1389,"x_min":101,"x_max":503,"o":"m 497 1003 q 503 517 497 993 q 497 36 508 40 q 463 -46 492 -19 q 392 -62 435 -72 q 179 -61 246 -75 q 151 -56 163 -60 q 133 -49 140 -51 q 121 -35 126 -46 q 114 -19 115 -24 q 108 3 113 -15 q 101 25 103 21 q 117 78 101 56 q 163 103 132 100 q 238 104 179 104 q 325 111 325 104 q 328 156 326 128 q 333 265 331 183 q 326 401 336 346 q 326 717 329 492 q 318 958 324 942 q 189 961 239 940 q 101 1036 106 961 q 122 1094 99 1068 q 164 1124 144 1121 q 270 1124 179 1124 q 392 1125 361 1125 q 469 1093 438 1125 q 497 1003 501 1061 z "},"｛":{"ha":1389,"x_min":983,"x_max":1297,"o":"m 1264 981 q 1203 871 1203 931 q 1205 830 1203 858 q 1207 793 1207 801 q 1211 631 1218 683 q 1140 497 1201 561 q 1197 365 1193 435 q 1196 265 1199 347 q 1208 100 1185 138 q 1254 42 1225 74 q 1286 -12 1283 10 q 1271 -69 1290 -47 q 1211 -93 1251 -93 q 1119 -35 1167 -93 q 1056 88 1072 22 q 1053 251 1043 135 q 1056 342 1058 326 q 1022 403 1051 367 q 983 476 988 446 q 1042 603 971 551 q 1068 657 1058 614 q 1069 739 1078 700 q 1101 1044 1022 954 q 1224 1107 1157 1107 q 1285 1085 1267 1107 q 1297 1040 1300 1068 q 1264 981 1293 1003 z "},"｝":{"ha":1389,"x_min":100,"x_max":414,"o":"m 132 981 q 100 1040 103 1006 q 113 1085 97 1068 q 172 1107 131 1107 q 294 1044 240 1107 q 328 739 375 954 q 329 657 319 700 q 356 603 339 614 q 414 476 425 553 q 375 403 408 444 q 342 342 346 367 q 344 251 336 317 q 342 88 354 135 q 278 -35 325 22 q 186 -93 231 -93 q 125 -69 146 -93 q 111 -12 107 -49 q 143 42 114 13 q 189 100 172 74 q 201 265 210 133 q 199 365 197 328 q 256 497 204 432 q 186 631 196 564 q 189 793 179 676 q 194 871 194 851 q 174 933 194 903 q 132 981 154 964 z "},"〈":{"ha":1389,"x_min":560,"x_max":1058,"o":"m 1053 68 q 1058 -37 1088 14 q 974 -87 1029 -87 q 892 -46 926 -87 q 569 381 667 229 q 560 613 492 501 q 875 1038 647 756 l 882 1049 q 965 1094 915 1094 q 1053 1039 1025 1094 q 1046 935 1082 988 q 925 771 993 863 q 743 521 782 581 q 740 482 729 499 q 947 208 788 407 q 1053 68 1042 88 z "},"〉":{"ha":1389,"x_min":318,"x_max":817,"o":"m 817 613 q 807 381 885 501 q 485 -46 710 229 q 403 -87 450 -87 q 318 -37 346 -87 q 322 68 289 14 q 429 208 335 88 q 636 482 594 418 q 633 521 647 499 q 450 771 604 565 q 331 935 360 893 q 324 1040 294 986 q 411 1094 351 1094 q 493 1049 463 1094 l 501 1039 q 817 613 731 754 z "},"《":{"ha":1389,"x_min":569,"x_max":1282,"o":"m 1036 1003 q 877 786 1014 969 q 706 551 740 603 q 704 450 672 497 q 892 199 751 378 q 1043 3 1032 19 q 1048 -56 1061 -28 q 1008 -85 1035 -83 q 954 -60 981 -86 q 607 399 719 225 q 578 453 588 429 q 570 515 568 476 q 597 593 572 554 q 649 673 618 628 q 711 761 679 718 q 777 849 743 804 q 840 931 811 893 q 893 999 869 969 q 931 1046 917 1028 l 946 1064 q 999 1092 967 1096 q 1042 1060 1031 1088 q 1036 1003 1053 1033 m 1269 1003 q 1112 788 1249 972 q 940 551 975 604 q 938 450 906 499 q 1126 199 985 378 q 1276 3 1267 19 q 1281 -56 1294 -28 q 1241 -85 1268 -83 q 1188 -60 1214 -86 q 840 399 953 225 q 811 453 821 429 q 803 515 801 476 q 831 593 806 554 q 882 673 851 628 q 944 761 913 718 q 1010 849 976 804 q 1074 931 1044 893 q 1126 999 1103 969 q 1164 1046 1150 1028 l 1179 1064 q 1232 1092 1200 1096 q 1275 1060 1264 1088 q 1269 1003 1286 1033 z "},"》":{"ha":1389,"x_min":118,"x_max":831,"o":"m 364 1003 q 353 1040 353 1021 q 365 1071 353 1058 q 391 1090 376 1083 q 424 1090 406 1096 q 454 1064 442 1083 l 469 1046 q 507 999 483 1028 q 560 931 531 969 q 623 849 589 893 q 689 761 657 804 q 751 673 721 718 q 803 593 782 628 q 830 515 828 554 q 822 453 832 476 q 793 399 813 429 q 446 -60 681 225 q 392 -85 422 -89 q 351 -55 361 -81 q 357 3 342 -29 q 508 199 368 19 q 696 450 649 378 q 693 551 728 499 q 522 788 658 604 q 364 1003 385 972 m 131 1003 q 119 1040 119 1021 q 131 1071 119 1058 q 158 1090 143 1083 q 190 1090 172 1096 q 221 1064 208 1083 l 236 1046 q 274 999 250 1028 q 326 931 297 969 q 390 849 356 893 q 456 761 424 804 q 518 673 488 718 q 569 593 549 628 q 597 515 594 554 q 589 453 599 476 q 560 399 579 429 q 213 -60 447 225 q 158 -85 189 -89 q 118 -55 128 -81 q 124 3 108 -29 q 275 199 135 19 q 463 450 415 378 q 460 551 494 499 q 288 788 425 604 q 131 1003 151 972 z "},"「":{"ha":1389,"x_min":728,"x_max":1292,"o":"m 918 911 q 911 17 911 79 q 897 -42 913 -21 q 865 -68 882 -64 q 821 -72 847 -72 q 735 13 744 -72 q 728 976 728 74 q 767 1063 728 1025 q 867 1101 807 1101 q 1022 1101 881 1101 q 1211 1094 1163 1100 q 1271 1061 1250 1090 q 1292 997 1292 1032 q 1259 944 1292 969 q 1174 917 1226 918 l 918 911 z "},"」":{"ha":1389,"x_min":103,"x_max":667,"o":"m 476 118 q 483 1013 483 950 q 519 1077 494 1053 q 574 1101 543 1101 q 660 1017 650 1101 q 667 51 667 954 q 627 -35 667 3 q 528 -72 588 -72 q 183 -65 460 -99 q 124 -32 144 -61 q 103 31 103 -3 q 135 85 103 60 q 221 111 168 110 l 476 118 z "},"『":{"ha":1389,"x_min":719,"x_max":1283,"o":"m 1203 1094 q 1263 1061 1242 1090 q 1283 997 1283 1032 q 1251 944 1283 969 q 1165 917 1218 918 q 1104 914 1142 917 q 1035 908 1067 911 q 974 903 1003 906 q 927 903 944 901 q 908 911 910 904 q 901 17 922 57 q 877 -51 901 -28 q 813 -72 853 -74 q 726 13 736 -72 q 719 976 719 74 q 759 1063 719 1025 q 858 1101 799 1101 l 988 1101 q 1203 1094 1140 1101 m 1164 978 q 1222 1000 1207 979 q 1196 1033 1217 1031 q 988 1040 1139 1040 l 910 1040 l 858 1040 q 801 1019 822 1040 q 781 976 781 999 q 786 19 781 74 q 792 -2 788 6 q 801 -10 797 -10 q 813 -11 806 -11 q 840 17 840 -11 q 844 474 840 50 q 847 911 847 897 q 865 953 847 936 q 907 972 882 971 q 1164 978 1071 976 z "},"』":{"ha":1389,"x_min":106,"x_max":669,"o":"m 663 1017 q 669 51 669 956 q 630 -35 669 3 q 531 -72 590 -72 l 401 -72 q 186 -65 249 -72 q 126 -32 147 -61 q 106 31 106 -3 q 138 85 106 60 q 224 111 171 110 q 344 113 257 113 q 481 118 481 115 q 481 147 481 129 q 484 222 482 165 q 488 335 486 279 q 490 468 489 392 q 493 612 492 544 q 495 750 494 679 q 495 873 496 821 q 492 963 494 925 q 488 1013 490 1001 q 515 1078 488 1056 q 576 1101 542 1101 q 663 1017 653 1101 m 531 -11 q 588 9 567 -11 q 608 51 608 29 q 603 1010 608 956 q 597 1031 601 1024 q 588 1040 592 1039 q 576 1040 583 1040 q 549 1013 549 1040 q 545 554 549 978 q 542 118 542 131 q 524 75 542 93 q 482 57 507 57 q 225 50 318 53 q 167 28 181 50 q 193 -4 172 -1 q 401 -11 250 -11 l 479 -11 l 531 -11 z "},"【":{"ha":1389,"x_min":892,"x_max":1289,"o":"m 892 1003 q 921 1093 889 1061 q 999 1125 953 1125 q 1119 1124 1029 1125 q 1226 1124 1210 1124 q 1287 1096 1269 1122 q 1289 1036 1304 1069 q 1256 999 1283 1022 q 1198 944 1229 976 q 1135 864 1167 913 q 1084 729 1104 815 q 1064 532 1064 643 q 1092 333 1069 419 q 1146 198 1115 246 q 1206 118 1176 150 q 1259 64 1235 86 q 1288 25 1283 42 q 1276 -31 1297 -4 q 1210 -61 1256 -58 q 999 -62 1154 -76 q 930 -45 963 -74 q 892 36 897 -17 q 892 517 890 65 q 892 1003 894 969 z "},"】":{"ha":1389,"x_min":108,"x_max":507,"o":"m 504 1003 q 507 517 503 985 q 504 36 511 50 q 469 -46 499 -18 q 399 -62 439 -74 q 186 -61 265 -74 q 120 -32 140 -58 q 108 25 100 -6 q 140 63 113 40 q 199 118 167 86 q 264 198 232 150 q 316 333 296 246 q 333 532 336 419 q 313 729 333 643 q 262 864 293 815 q 199 944 231 913 q 141 999 168 976 q 108 1036 114 1022 q 120 1093 94 1065 q 171 1124 146 1121 q 277 1124 186 1124 q 399 1125 368 1125 q 476 1093 444 1125 q 504 1003 508 1061 z "},"＋":{"ha":1389,"x_min":250,"x_max":1138,"o":"m 1008 628 q 1101 611 1067 628 q 1138 544 1135 594 q 1121 492 1140 513 q 1000 454 1092 460 q 786 453 972 453 q 782 168 783 192 q 697 71 776 71 q 630 102 657 71 q 603 181 603 133 l 603 282 q 601 453 601 329 q 351 456 396 453 q 250 532 250 460 q 278 600 250 574 q 356 629 307 626 q 497 631 369 631 l 600 631 q 601 897 600 881 q 678 1015 610 1007 q 753 992 722 1021 q 786 911 783 963 q 788 631 788 886 q 919 629 838 629 q 978 628 947 629 l 1008 628 z "},"−":{"ha":1389,"x_min":250,"x_max":1138,"o":"m 1008 628 q 1101 611 1067 628 q 1138 544 1135 594 q 1121 492 1140 513 q 1000 454 1092 460 q 772 453 969 453 q 351 456 418 453 q 250 532 250 460 q 278 600 250 574 q 356 629 307 626 q 497 631 369 631 q 713 630 558 631 q 919 629 868 629 q 978 628 947 629 l 1008 628 z "},"±":{"ha":1389,"x_min":250,"x_max":1138,"o":"m 351 574 q 250 650 250 578 q 278 718 250 692 q 356 749 307 744 l 497 749 l 600 749 q 601 918 600 901 q 678 1036 610 1028 q 753 1013 722 1042 q 786 932 783 983 q 788 749 788 910 q 919 747 838 747 q 978 747 947 747 l 1008 746 q 1101 729 1067 746 q 1138 663 1135 713 q 1121 610 1140 631 q 1000 572 1090 578 q 786 571 971 571 q 782 385 783 407 q 697 286 775 286 q 630 317 657 286 q 603 396 603 349 q 601 497 603 444 l 601 571 q 351 574 396 571 m 1008 225 q 1101 208 1067 225 q 1138 142 1135 192 q 1121 89 1139 110 q 1000 51 1089 54 q 772 49 969 49 q 351 51 418 49 q 250 128 250 56 q 278 197 250 169 q 356 226 307 224 q 497 228 369 228 q 919 225 708 228 l 1008 225 z "},"×":{"ha":1389,"x_min":329,"x_max":1067,"o":"m 949 417 q 1011 353 981 383 q 1051 306 1038 326 q 1066 257 1065 285 q 1043 203 1067 229 q 994 178 1022 178 q 882 236 949 175 q 696 413 838 275 q 485 208 506 226 q 354 199 411 144 q 330 269 326 226 q 365 343 333 311 l 394 372 q 444 424 422 401 l 565 544 q 361 758 379 739 q 343 883 293 833 q 413 911 374 913 q 488 878 451 910 q 513 851 492 874 q 566 797 535 829 q 617 744 597 764 l 692 669 q 893 865 878 853 q 1031 894 976 938 q 1066 826 1065 868 q 1033 746 1067 783 q 826 539 1004 711 l 949 417 z "},"÷":{"ha":1389,"x_min":250,"x_max":1138,"o":"m 693 764 q 614 801 640 768 q 583 876 588 833 q 621 957 581 917 q 711 988 661 997 q 804 872 804 971 q 772 795 804 829 q 693 764 739 761 m 693 96 q 614 132 640 100 q 583 207 588 164 q 620 289 581 249 q 711 319 660 329 q 804 203 804 301 q 771 127 804 161 q 693 96 738 93 m 1008 628 q 1101 611 1067 628 q 1138 544 1135 594 q 1121 492 1140 513 q 1000 454 1092 460 q 772 453 969 453 q 351 456 418 453 q 250 532 250 460 q 278 600 250 574 q 356 629 307 626 q 497 631 369 631 q 713 630 558 631 q 919 629 868 629 q 978 628 947 629 l 1008 628 z "},"＝":{"ha":1389,"x_min":286,"x_max":1090,"o":"m 421 643 q 331 665 360 647 q 296 719 301 683 q 322 797 290 767 q 404 831 353 828 q 700 830 447 828 q 983 831 953 832 q 1013 819 994 826 q 1038 810 1032 813 q 1056 803 1044 808 q 1071 793 1068 797 q 1078 781 1074 789 q 1085 765 1083 774 q 1086 744 1086 757 q 1057 673 1092 699 q 971 647 1022 647 q 693 638 914 638 q 421 643 472 639 m 953 433 q 1053 415 1018 433 q 1090 347 1088 397 q 1052 278 1093 297 q 940 256 1011 260 q 662 253 876 253 q 393 257 447 254 q 286 333 286 261 q 317 405 286 378 q 399 435 349 432 q 559 436 463 436 q 800 435 656 436 q 953 433 944 433 z "},"≠":{"ha":1389,"x_min":286,"x_max":1090,"o":"m 953 433 q 1053 415 1018 433 q 1090 347 1088 397 q 1052 278 1093 297 q 940 256 1011 260 q 635 254 882 251 q 569 147 589 176 q 433 103 510 56 q 401 243 354 150 q 403 247 401 244 q 406 251 404 249 q 408 257 407 254 l 393 257 q 286 333 286 261 q 317 405 286 378 q 399 435 349 432 q 515 436 415 436 q 636 643 547 488 q 421 643 440 640 q 331 665 360 647 q 296 719 301 683 q 322 797 290 767 q 404 831 353 828 q 749 833 442 833 q 771 870 760 851 q 789 900 782 889 q 799 915 796 911 q 827 957 814 940 q 860 988 840 974 q 901 1001 881 1003 q 950 988 921 999 q 989 943 981 972 q 968 831 1001 904 l 983 831 q 1060 799 1028 828 q 1086 744 1093 771 q 1052 675 1086 703 q 971 647 1018 647 q 868 646 918 647 q 834 586 857 626 q 803 533 811 546 q 772 481 793 515 q 744 435 751 447 q 953 433 843 433 z "},"＜":{"ha":1389,"x_min":283,"x_max":1088,"o":"m 969 808 l 960 803 q 731 663 931 786 q 514 531 531 540 q 1004 269 764 394 q 1058 229 1040 250 q 1079 195 1076 208 q 1082 156 1082 182 l 1082 154 q 1056 98 1082 122 q 1000 74 1029 74 q 850 129 944 74 q 765 176 844 132 q 335 432 365 407 q 287 482 300 458 q 283 543 274 506 q 379 657 293 589 l 385 661 q 825 943 449 713 l 850 958 q 996 1010 935 1010 q 1025 1004 1014 1010 q 1075 965 1057 993 q 1088 911 1093 936 q 1062 872 1083 893 q 1025 842 1040 851 q 969 808 1010 832 z "},"＞":{"ha":1389,"x_min":306,"x_max":1111,"o":"m 1111 543 q 1106 483 1119 506 q 1060 432 1093 460 q 628 176 1022 401 q 544 129 578 149 q 393 74 449 74 q 338 99 365 74 q 311 154 311 124 l 311 156 q 314 195 311 182 q 335 229 317 208 q 390 269 353 250 q 879 531 603 379 q 435 803 440 800 l 424 808 q 368 842 383 832 q 331 872 353 851 q 306 911 310 893 q 319 965 301 936 q 368 1004 336 993 q 399 1010 379 1010 q 543 958 460 1010 l 568 943 q 1008 661 944 713 l 1014 657 q 1111 543 1100 589 z "},"≦":{"ha":1389,"x_min":210,"x_max":1185,"o":"m 1040 181 q 1181 100 1175 181 q 1160 47 1183 68 q 1032 14 1129 19 q 735 13 999 13 q 657 13 699 13 q 578 15 615 14 q 503 16 540 15 q 437 17 467 17 q 383 19 407 18 q 347 19 360 19 l 333 21 q 221 94 221 24 q 253 160 221 135 q 338 186 285 185 q 481 188 350 188 q 754 183 603 188 q 951 181 910 181 l 968 181 l 1040 181 m 1185 431 q 1150 369 1185 393 q 1181 313 1179 349 q 1160 260 1183 281 q 1032 226 1128 229 q 735 225 999 225 q 657 226 699 225 q 578 226 615 226 q 503 227 540 226 q 437 229 467 228 q 383 231 407 231 q 347 231 360 231 l 333 232 q 221 307 221 236 q 253 371 221 346 q 338 399 285 396 q 481 400 350 400 q 622 398 519 400 q 754 396 724 396 q 951 392 896 393 l 968 392 l 975 392 l 963 396 q 874 426 911 415 q 543 533 792 450 q 265 633 294 615 q 210 736 200 676 q 238 790 214 765 q 281 824 263 814 q 332 849 300 833 q 594 935 367 864 q 885 1024 821 1007 q 947 1042 926 1035 q 1125 1072 1079 1079 q 1174 1044 1158 1068 q 1182 974 1193 1017 q 1065 897 1174 929 q 490 725 624 769 q 546 706 511 718 q 635 678 581 694 q 722 650 689 661 q 1086 529 1040 549 q 1163 485 1140 507 q 1185 431 1185 463 z "},"≧":{"ha":1389,"x_min":218,"x_max":1192,"o":"m 1064 399 q 1150 371 1118 396 q 1182 307 1182 346 q 1068 232 1182 236 l 1060 232 q 1038 231 1051 232 q 1003 230 1024 231 q 959 228 983 229 q 908 228 935 228 q 850 227 881 228 q 790 226 819 226 q 728 225 760 225 q 667 225 696 225 q 371 226 403 225 q 242 260 274 229 q 221 313 218 281 q 251 369 222 349 q 218 431 218 392 q 240 485 218 463 q 315 529 263 507 q 679 650 361 549 q 813 693 732 667 q 911 725 893 719 q 336 897 754 778 q 219 974 229 928 q 228 1044 208 1017 q 276 1072 244 1068 q 454 1042 324 1079 q 518 1024 479 1033 q 810 934 582 1006 q 1071 849 1038 863 q 1122 824 1104 833 q 1163 790 1139 814 q 1192 736 1188 765 q 1136 633 1201 676 q 875 539 1107 615 q 528 426 643 463 q 439 396 490 415 l 426 392 l 433 392 l 451 393 q 647 396 492 393 q 780 398 678 396 q 921 400 882 400 q 1064 399 1051 400 m 1064 186 q 1150 160 1118 185 q 1182 94 1182 135 q 1068 21 1182 24 l 1060 21 q 1038 20 1051 21 q 1003 19 1024 19 q 959 17 983 18 q 908 16 935 17 q 850 15 881 15 q 790 13 819 14 q 728 13 760 13 q 667 13 696 13 q 371 14 403 13 q 242 47 272 19 q 221 100 218 68 q 361 181 226 181 l 433 181 l 451 181 q 647 183 492 181 q 921 188 799 188 q 1064 186 1051 188 z "},"∞":{"ha":1389,"x_min":165,"x_max":1222,"o":"m 700 700 q 728 731 710 713 q 797 779 746 749 q 896 811 849 810 q 1189 650 1106 814 q 1222 435 1235 553 q 1151 260 1208 317 q 992 180 1088 196 q 832 196 897 164 q 763 237 797 210 q 711 283 728 264 l 694 303 q 674 270 699 293 q 600 222 649 247 q 500 188 551 197 q 316 211 401 168 q 196 339 231 254 q 166 453 174 392 q 173 583 158 514 q 228 704 188 653 q 355 806 288 781 q 510 819 422 831 q 574 801 543 815 q 627 771 606 788 q 666 738 649 754 q 692 711 683 722 l 700 700 m 557 418 q 582 479 578 440 q 575 547 586 518 q 558 579 569 564 q 518 608 547 594 q 451 618 489 621 q 373 574 397 614 q 347 496 349 535 q 369 426 346 464 q 433 381 392 388 q 557 418 511 367 m 1021 418 q 1045 479 1040 440 q 1039 547 1050 518 q 1021 579 1032 564 q 981 608 1010 594 q 914 618 951 621 q 835 574 860 614 q 810 496 811 535 q 832 425 810 463 q 896 381 854 388 q 1021 418 974 367 z "},"∴":{"ha":1389,"x_min":200,"x_max":1189,"o":"m 694 758 q 615 794 642 761 q 583 869 589 826 q 621 950 581 910 q 711 982 661 990 q 806 865 806 964 q 772 788 806 822 q 694 758 739 754 m 310 60 q 231 97 257 64 q 200 172 204 129 q 238 253 197 213 q 328 283 278 293 q 421 167 421 267 q 388 91 421 125 q 310 60 354 57 m 1078 60 q 999 97 1025 64 q 968 172 972 129 q 1006 253 965 213 q 1096 283 1046 293 q 1189 167 1189 267 q 1156 91 1189 125 q 1078 60 1122 57 z "},"♂":{"ha":1389,"x_min":228,"x_max":1172,"o":"m 1172 651 q 1165 586 1182 617 q 1113 546 1147 556 q 1047 554 1079 536 q 1007 606 1015 569 l 971 732 q 955 707 968 728 q 935 674 942 686 q 835 501 888 586 q 874 100 985 347 q 798 4 850 47 q 679 -61 746 -39 q 404 -37 532 -108 q 379 -22 396 -33 q 256 122 293 36 q 228 291 219 208 q 279 447 238 374 q 451 583 332 540 q 683 593 571 625 q 726 667 699 621 q 758 722 754 714 q 811 808 793 782 l 701 779 q 636 787 667 769 q 596 839 606 804 q 604 904 586 874 q 657 944 622 935 l 978 1031 q 1042 1023 1011 1040 q 1082 971 1072 1006 l 1172 651 m 714 178 q 735 289 746 224 q 667 399 725 354 q 660 403 665 400 q 653 408 654 407 q 525 414 593 440 q 436 343 464 389 q 415 238 407 299 q 474 136 422 176 q 490 126 479 132 q 619 112 551 94 q 714 178 686 129 z "},"♀":{"ha":1389,"x_min":303,"x_max":1086,"o":"m 958 324 q 1050 307 1017 324 q 1086 240 1083 290 q 1069 188 1088 208 q 949 150 1040 153 q 782 147 901 147 l 782 107 q 781 49 782 79 l 781 18 q 764 -74 781 -40 q 697 -111 747 -108 q 644 -94 665 -114 q 607 26 613 -67 q 606 147 606 44 q 517 148 567 147 q 440 149 467 149 q 404 150 414 150 q 303 226 303 154 q 331 295 303 268 q 408 325 360 322 q 441 325 410 325 q 519 326 472 325 q 606 326 567 326 l 606 369 q 350 706 378 418 q 442 940 339 828 q 693 1056 549 1056 q 708 1055 699 1056 q 721 1054 717 1054 q 899 988 825 1046 q 1006 855 974 931 q 1039 694 1039 779 q 965 501 1039 592 q 783 375 890 410 l 783 326 q 875 324 817 325 l 958 324 m 696 544 q 808 603 760 544 q 851 708 851 653 q 817 813 851 767 q 717 869 782 860 q 699 871 711 871 q 580 820 632 871 q 528 715 528 769 q 567 605 528 654 q 678 546 606 556 q 686 545 681 546 q 696 544 692 544 z "},"°":{"ha":1389,"x_min":113,"x_max":461,"o":"m 272 719 q 113 896 128 731 q 164 1022 107 960 q 300 1071 221 1085 q 421 1006 381 1056 q 461 889 461 956 q 412 767 475 821 q 272 719 349 714 m 338 903 q 326 939 338 922 q 292 958 314 956 q 247 944 267 961 q 226 904 226 926 q 240 859 229 868 q 278 846 250 850 q 321 863 304 843 q 338 903 338 882 z "},"′":{"ha":1389,"x_min":150,"x_max":410,"o":"m 249 1025 q 369 1064 308 1096 q 410 1000 406 1044 q 386 921 414 956 q 232 782 344 867 q 163 784 199 756 q 150 868 128 813 q 249 1025 178 940 z "},"″":{"ha":1389,"x_min":138,"x_max":649,"o":"m 238 1025 q 358 1064 297 1096 q 399 1000 394 1044 q 375 921 403 956 q 221 782 339 874 q 151 784 188 756 q 138 868 115 813 q 238 1025 171 949 m 488 1025 q 608 1064 547 1096 q 649 1000 644 1044 q 625 921 653 956 q 471 782 589 874 q 401 784 438 756 q 388 868 365 813 q 488 1025 421 949 z "},"℃":{"ha":1389,"x_min":121,"x_max":1192,"o":"m 268 754 q 121 917 136 763 q 168 1035 115 976 q 294 1079 221 1093 q 407 1019 369 1065 q 444 910 444 972 q 390 799 444 850 q 268 754 335 749 m 329 924 q 318 957 329 942 q 286 975 307 972 q 244 962 264 978 q 225 925 225 946 q 274 871 233 876 q 313 886 297 868 q 329 924 329 904 m 1083 267 q 1168 224 1135 267 q 1192 124 1207 175 q 1093 29 1176 64 q 903 3 1029 3 q 613 58 713 3 q 548 101 579 76 q 476 172 517 125 q 409 275 436 219 q 368 415 382 331 q 367 594 354 499 q 432 800 382 710 q 550 942 482 890 q 688 1019 618 993 q 821 1049 757 1046 l 838 1049 q 1052 1006 953 1049 q 1186 910 1151 964 q 1183 764 1236 831 q 1113 732 1160 732 q 1025 760 1069 732 q 878 799 963 799 q 800 789 844 799 q 677 708 738 774 q 613 558 617 643 q 713 299 600 390 q 805 256 747 271 q 914 242 863 242 q 931 242 919 242 q 946 243 942 243 q 1008 254 967 246 q 1083 267 1056 267 z "},"￥":{"ha":1389,"x_min":296,"x_max":1139,"o":"m 1139 982 q 1117 890 1147 935 q 1038 796 1096 861 q 983 732 992 743 q 924 661 981 729 q 844 571 867 593 l 861 571 q 943 567 914 571 q 1014 482 1014 556 q 994 422 1014 449 q 935 392 975 394 q 882 390 921 390 q 840 391 865 390 q 808 392 814 392 l 808 346 q 928 346 883 350 q 990 319 967 343 q 1014 267 1014 296 q 988 207 1014 233 q 918 181 963 181 q 857 180 894 181 q 811 179 819 179 q 808 88 811 129 q 783 15 806 40 q 707 -12 761 -10 l 701 -12 q 634 14 661 -12 q 604 83 607 40 q 601 139 603 106 q 600 179 600 172 q 472 183 517 183 q 415 205 438 183 q 393 258 393 226 q 415 316 393 290 q 475 346 436 342 q 540 347 489 347 q 603 346 589 347 l 603 389 q 550 390 592 389 q 492 390 508 390 q 425 416 453 390 q 396 478 397 442 q 425 544 394 511 q 488 576 457 576 q 524 576 496 576 q 565 575 551 575 q 485 667 544 597 q 415 749 425 738 q 397 769 413 751 q 372 796 381 788 q 296 894 313 860 q 317 1040 253 976 q 369 1058 335 1058 q 478 1010 439 1058 q 542 938 493 992 q 647 822 590 883 q 715 749 704 761 q 919 979 881 926 q 1043 1056 978 1056 q 1093 1042 1068 1056 q 1139 982 1131 1019 z "},"＄":{"ha":1389,"x_min":356,"x_max":1018,"o":"m 790 554 q 1018 253 1047 419 q 772 33 985 65 q 767 8 771 19 q 690 -35 746 -35 q 657 -28 669 -35 q 608 35 619 -11 q 519 60 561 42 q 459 90 478 78 q 407 129 440 103 l 399 135 q 356 218 353 171 q 397 290 356 260 q 453 310 425 310 q 542 278 486 310 q 606 247 586 256 q 606 344 606 281 q 608 439 607 408 q 460 527 514 485 q 379 629 407 569 q 363 780 346 700 q 440 913 381 860 q 614 992 511 974 q 635 1043 614 1019 q 708 1078 665 1078 q 765 1051 739 1078 q 793 988 790 1024 q 851 972 822 983 q 969 897 931 944 q 1008 804 1008 850 q 968 739 1008 758 q 889 735 928 719 q 842 767 867 744 q 792 800 810 792 l 792 724 q 791 639 792 696 q 790 554 790 582 m 557 733 q 611 646 544 693 q 612 728 611 676 q 613 800 613 781 q 557 733 571 782 m 824 256 q 831 307 839 285 q 789 353 824 328 q 788 314 788 335 q 786 222 788 272 q 824 256 813 233 z "},"￠":{"ha":1389,"x_min":0,"x_max":0,"o":""},"￡":{"ha":1389,"x_min":0,"x_max":0,"o":""},"％":{"ha":1389,"x_min":207,"x_max":1172,"o":"m 1093 982 q 1114 926 1114 956 q 1106 881 1114 897 q 1079 836 1097 864 l 1078 833 q 768 457 1050 793 q 706 381 740 424 q 649 313 671 339 q 617 275 626 286 l 599 251 q 418 42 467 89 q 353 15 392 15 q 282 40 313 15 q 265 100 260 60 q 301 183 269 140 q 494 424 340 238 q 672 644 644 608 q 856 864 710 694 q 924 946 915 935 q 1035 1013 979 1013 q 1093 982 1069 1013 m 611 939 q 652 816 647 888 q 629 683 657 744 q 557 601 608 636 q 439 565 506 565 q 424 567 429 565 q 207 724 243 578 q 219 883 188 800 q 331 1010 251 967 q 424 1033 375 1033 q 533 1005 481 1033 q 611 939 585 976 m 486 772 q 489 816 493 793 q 471 850 485 839 q 438 860 460 860 q 392 847 414 860 q 367 818 369 835 q 382 753 358 782 q 425 733 399 733 q 486 772 475 733 m 1172 308 q 1169 170 1197 243 q 1093 60 1140 97 q 956 14 1039 14 q 865 33 907 14 q 773 122 811 60 q 735 246 735 185 q 779 383 735 326 q 906 463 824 439 q 963 471 935 471 q 1088 426 1031 471 q 1172 308 1144 382 m 997 286 q 988 294 997 286 q 953 303 979 303 q 912 280 926 303 q 897 236 897 257 q 915 199 897 219 q 954 179 932 179 l 958 179 q 1004 203 990 182 q 1017 250 1018 224 q 997 286 1015 269 z "},"＃":{"ha":1389,"x_min":176,"x_max":1189,"o":"m 1065 664 l 1040 664 q 1001 415 1017 515 q 1024 415 1011 415 q 1045 413 1038 414 q 1057 413 1053 413 q 1135 376 1107 410 q 1163 294 1164 342 q 1126 221 1161 251 q 1025 190 1092 190 l 964 190 q 939 67 944 83 q 900 1 925 18 q 833 -17 875 -17 q 764 13 792 -17 q 740 103 736 43 q 745 140 740 110 q 753 192 750 169 q 645 192 718 192 q 538 194 572 193 q 517 90 526 121 q 406 -14 485 -14 q 333 23 363 -14 q 311 124 304 60 q 322 197 313 142 q 304 199 314 199 q 176 311 183 208 q 219 388 176 354 q 325 421 261 421 l 358 421 q 401 669 375 515 q 357 671 381 671 q 224 779 231 681 q 260 863 219 825 q 363 901 301 901 l 444 901 q 450 926 444 907 q 467 990 458 967 q 489 1038 475 1014 q 526 1071 503 1061 q 582 1076 550 1081 q 654 1023 635 1071 q 661 917 674 975 q 658 900 661 914 q 765 899 693 900 q 869 897 836 899 q 875 925 872 910 q 878 943 878 940 q 924 1040 889 1013 q 1003 1058 960 1067 q 1066 1016 1042 1051 q 1083 933 1090 981 q 1076 892 1081 917 q 1083 890 1079 890 q 1164 846 1135 885 q 1189 769 1193 807 q 1151 697 1185 731 q 1065 664 1117 664 m 790 418 q 811 545 797 461 q 831 665 825 629 q 725 666 797 665 q 618 667 653 667 q 578 419 589 482 q 683 419 611 419 q 790 418 756 418 z "},"＆":{"ha":1389,"x_min":346,"x_max":1154,"o":"m 1154 143 q 1113 40 1176 85 q 1007 42 1069 10 q 958 78 982 54 q 715 -33 843 -29 l 699 -33 q 490 13 593 -33 q 346 143 388 58 q 353 426 279 285 q 465 554 385 488 q 385 669 413 610 q 385 910 329 792 q 497 1030 419 983 q 665 1076 574 1076 q 764 1060 718 1076 q 914 940 867 1024 q 957 765 961 857 q 918 647 956 701 q 832 563 881 592 q 775 526 808 551 q 938 371 890 414 q 1014 404 981 404 l 1017 404 q 1087 376 1056 403 q 1124 314 1118 349 q 1097 215 1132 260 q 1154 143 1143 172 m 640 676 q 735 811 754 738 q 705 857 729 839 q 650 875 681 875 q 626 872 633 875 q 579 832 594 864 q 575 771 564 804 q 640 676 592 718 m 597 415 q 521 292 517 356 q 562 205 525 239 q 661 164 599 171 q 799 225 732 154 l 597 415 z "},"＊":{"ha":1389,"x_min":247,"x_max":1140,"o":"m 1053 411 q 1103 372 1088 386 q 1131 339 1118 358 q 1140 300 1143 319 q 1118 253 1136 281 q 1115 249 1117 251 q 1113 244 1113 246 q 939 250 1058 176 q 793 353 903 274 l 790 192 q 788 130 790 150 q 776 89 785 110 q 749 59 768 68 q 696 47 729 50 q 686 46 693 46 q 588 182 597 46 q 586 347 585 235 l 458 254 q 390 209 413 221 q 340 201 368 197 q 281 235 311 204 q 274 243 275 240 q 324 400 218 308 q 519 549 351 425 q 336 678 369 657 q 247 782 257 729 q 249 821 243 806 q 274 858 254 836 q 331 894 299 890 q 386 886 363 897 q 447 851 410 875 q 460 843 456 846 q 588 751 493 819 q 586 899 588 878 q 621 1029 581 989 q 700 1056 647 1056 q 765 1031 743 1056 q 791 987 788 1007 q 797 917 794 967 q 799 903 799 907 l 799 758 q 847 794 819 774 q 890 828 874 815 q 913 846 906 840 q 1040 901 982 907 q 1080 891 1067 900 q 1113 858 1093 882 q 1133 817 1129 838 q 1133 782 1136 796 q 1111 747 1131 768 q 1083 719 1092 726 q 1047 690 1075 713 q 863 551 1026 671 l 1053 411 z "},"＠":{"ha":1389,"x_min":190,"x_max":1197,"o":"m 1064 933 q 1197 522 1238 775 q 1131 384 1185 440 q 1000 317 1078 328 q 951 313 975 313 q 854 332 893 313 q 724 307 808 307 q 615 321 661 307 q 506 393 553 339 q 461 524 460 447 q 531 692 463 631 q 688 758 599 754 q 834 724 764 763 q 926 628 904 686 q 943 507 951 567 q 1008 543 989 501 q 958 767 1051 672 q 711 863 863 863 q 631 853 665 863 q 477 772 547 831 q 390 624 407 713 q 401 432 372 524 q 497 290 431 340 q 641 234 549 251 q 799 217 733 217 q 879 231 818 217 q 993 246 961 250 q 1051 206 1032 239 q 1056 124 1074 165 q 872 31 1035 67 q 754 19 817 19 q 436 90 588 19 q 235 292 301 153 q 190 600 168 431 q 285 839 208 732 q 481 1006 363 946 q 704 1050 567 1050 q 908 1019 813 1050 q 1064 933 1003 988 m 776 515 q 778 575 792 546 q 747 606 769 596 q 708 614 726 614 q 656 595 679 614 q 624 546 633 576 q 628 497 613 518 q 690 461 647 465 q 739 472 714 458 q 776 515 764 486 z "},"§":{"ha":1389,"x_min":0,"x_max":0,"o":""},"☆":{"ha":1389,"x_min":119,"x_max":1269,"o":"m 1235 539 l 1007 357 q 1090 96 1067 181 q 1097 29 1097 74 q 1070 -31 1097 -10 q 1001 -53 1043 -53 l 1000 -53 q 944 -35 968 -53 l 694 131 l 474 -21 q 402 -47 446 -40 q 332 -35 358 -53 q 296 72 293 -7 l 381 364 l 160 531 q 119 654 96 578 q 157 701 129 682 q 211 719 185 719 l 490 726 l 603 1014 q 639 1061 614 1043 q 694 1079 664 1079 q 717 1071 703 1076 q 735 1063 731 1065 q 749 1056 740 1060 q 763 1049 758 1051 q 772 1040 767 1046 q 780 1028 776 1035 q 786 1014 783 1022 l 892 726 l 1178 719 q 1269 654 1250 710 q 1269 590 1279 624 q 1235 539 1260 557 m 894 204 l 894 211 l 839 383 q 861 461 822 432 l 1011 581 l 825 586 q 761 632 778 586 l 693 814 l 621 631 q 557 586 604 586 l 374 581 q 375 579 375 581 l 525 467 q 549 389 564 436 q 494 208 497 221 l 494 206 q 504 210 503 208 l 654 311 q 693 324 671 324 q 732 313 717 324 l 894 204 z "},"★":{"ha":1389,"x_min":119,"x_max":1269,"o":"m 1235 539 l 1007 357 q 1090 96 1067 181 q 1097 29 1097 74 q 1070 -31 1097 -10 q 1001 -53 1043 -53 l 1000 -53 q 944 -35 968 -53 l 694 131 l 474 -21 q 402 -47 446 -40 q 332 -35 358 -53 q 296 72 293 -7 l 381 364 l 160 531 q 119 654 96 578 q 157 701 129 682 q 211 719 185 719 l 490 726 l 603 1014 q 639 1061 614 1043 q 694 1079 664 1079 q 717 1071 703 1076 q 735 1063 731 1065 q 749 1056 740 1060 q 763 1049 758 1051 q 772 1040 767 1046 q 780 1028 776 1035 q 786 1014 783 1022 l 892 726 l 1178 719 q 1269 654 1250 710 q 1269 590 1279 624 q 1235 539 1260 557 z "},"○":{"ha":1389,"x_min":165,"x_max":1247,"o":"m 661 -60 q 469 -15 554 -53 q 332 74 385 22 q 243 198 279 126 q 190 338 207 269 q 165 485 172 407 q 198 676 157 575 q 315 859 239 776 q 506 992 390 942 q 749 1031 622 1042 q 965 967 868 1021 q 1123 834 1063 914 q 1215 659 1183 754 q 1247 464 1247 564 q 1198 268 1247 367 q 1069 94 1149 169 q 881 -24 990 19 q 661 -60 772 -68 m 1013 486 q 945 690 1013 596 q 750 801 878 783 q 499 720 615 819 q 383 500 383 621 q 460 283 383 376 q 672 172 538 189 q 851 213 769 160 q 972 341 932 265 q 1013 486 1013 417 z "},"●":{"ha":1389,"x_min":165,"x_max":1247,"o":"m 661 -60 q 469 -15 554 -53 q 332 74 385 22 q 243 198 279 126 q 190 338 207 269 q 165 485 172 407 q 198 676 157 575 q 315 859 239 776 q 506 992 390 942 q 749 1031 622 1042 q 965 967 868 1021 q 1123 834 1063 914 q 1215 659 1183 754 q 1247 464 1247 564 q 1198 268 1247 367 q 1069 94 1149 169 q 881 -24 990 19 q 661 -60 772 -68 z "},"◎":{"ha":1389,"x_min":165,"x_max":1247,"o":"m 661 -60 q 469 -15 554 -53 q 332 74 385 22 q 243 198 279 126 q 190 338 207 269 q 165 485 172 407 q 198 676 157 575 q 315 859 239 776 q 506 992 390 942 q 749 1031 622 1042 q 965 967 868 1021 q 1123 834 1063 914 q 1215 659 1183 754 q 1247 464 1247 564 q 1198 268 1247 367 q 1069 94 1149 169 q 881 -24 990 19 q 661 -60 772 -68 m 1013 486 q 945 690 1013 596 q 750 801 878 783 q 499 720 615 819 q 383 500 383 621 q 460 283 383 376 q 672 172 538 189 q 851 213 769 160 q 972 341 932 265 q 1013 486 1013 417 m 703 239 l 686 239 q 529 308 588 246 q 461 478 471 371 q 525 651 453 572 q 725 732 610 743 q 891 649 831 724 q 951 479 951 574 q 876 312 951 385 q 703 239 801 239 m 706 561 q 651 536 676 561 q 632 493 628 511 q 641 447 635 465 q 659 422 647 429 q 678 413 671 415 q 699 410 685 411 q 754 433 728 408 q 781 479 781 457 q 778 495 781 486 q 771 520 776 504 q 750 548 765 536 q 711 561 735 560 l 706 561 z "},"◇":{"ha":1389,"x_min":118,"x_max":1225,"o":"m 169 396 q 119 524 115 463 q 175 640 122 586 q 571 1029 289 761 q 806 1028 683 1138 q 933 897 844 992 q 1114 697 1021 801 q 1225 575 1207 593 q 1189 347 1319 478 q 1074 233 1168 326 q 905 65 981 140 q 803 -39 829 -11 q 697 -85 756 -87 q 583 -33 639 -83 q 374 178 533 11 q 169 396 214 344 m 650 164 q 692 141 676 142 q 726 160 708 140 q 1024 449 915 349 q 1025 524 1061 486 q 882 680 1006 543 q 751 824 758 817 q 699 857 717 858 q 685 850 692 856 q 526 701 668 835 q 363 546 385 568 q 342 503 340 525 q 375 450 344 481 q 447 374 383 442 q 572 242 510 307 q 650 164 635 176 z "},"◆":{"ha":1389,"x_min":118,"x_max":1225,"o":"m 169 396 q 119 524 115 463 q 175 640 122 586 q 571 1029 289 761 q 806 1028 683 1138 q 933 897 844 992 q 1114 697 1021 801 q 1225 575 1207 593 q 1189 347 1319 478 q 1074 233 1168 326 q 905 65 981 140 q 803 -39 829 -11 q 697 -85 756 -87 q 583 -33 639 -83 q 374 178 533 11 q 169 396 214 344 z "},"□":{"ha":1389,"x_min":186,"x_max":1208,"o":"m 189 849 q 249 990 194 942 q 390 1040 304 1038 q 1019 1035 564 1044 q 1208 844 1201 1031 q 1199 128 1214 708 q 985 -26 1194 -26 l 365 -26 q 244 22 290 -28 q 193 154 197 71 q 187 509 189 240 q 189 849 185 778 m 396 251 q 413 198 401 211 q 457 185 425 185 q 704 181 479 185 q 942 178 929 178 q 1004 239 1004 178 q 1007 493 1004 269 q 1010 732 1010 717 q 1009 768 1010 757 q 1001 793 1008 779 q 976 808 993 807 q 733 813 953 810 q 464 817 513 817 q 410 798 426 817 q 394 729 394 779 q 396 251 394 265 z "},"■":{"ha":1389,"x_min":186,"x_max":1208,"o":"m 189 849 q 249 990 194 942 q 390 1040 304 1038 q 1019 1035 564 1044 q 1208 844 1201 1031 q 1199 128 1214 708 q 985 -26 1194 -26 l 365 -26 q 244 22 290 -28 q 193 154 197 71 q 187 509 189 240 q 189 849 185 778 z "},"△":{"ha":1389,"x_min":83,"x_max":1307,"o":"m 228 -11 q 131 14 169 -11 q 84 88 92 39 q 119 210 76 136 q 201 355 128 224 q 347 614 275 486 q 495 864 419 742 q 599 1013 571 986 q 718 1054 644 1060 q 840 985 792 1049 q 972 767 876 936 q 1167 413 1067 599 q 1282 200 1267 226 q 1306 56 1329 122 q 1201 -11 1283 -11 l 228 -11 m 1056 165 q 1072 235 1115 165 q 917 517 1064 249 q 757 799 769 786 q 682 810 714 839 q 590 667 671 801 q 422 389 508 533 q 331 236 336 244 q 357 168 283 168 q 1056 165 376 165 z "},"▲":{"ha":1389,"x_min":83,"x_max":1307,"o":"m 228 -11 q 131 14 169 -11 q 84 88 92 39 q 119 210 76 136 q 201 355 128 224 q 347 614 275 486 q 495 864 419 742 q 599 1013 571 986 q 718 1054 644 1060 q 840 985 792 1049 q 972 767 876 936 q 1167 413 1067 599 q 1282 200 1267 226 q 1306 56 1329 122 q 1201 -11 1283 -11 l 228 -11 z "},"▽":{"ha":1389,"x_min":103,"x_max":1326,"o":"m 1182 1047 q 1279 1022 1240 1047 q 1326 949 1318 997 q 1290 826 1333 900 q 1208 681 1282 813 q 1063 423 1135 550 q 915 173 990 296 q 811 24 839 50 q 692 -18 765 -24 q 569 51 618 -12 q 439 267 533 100 q 242 625 344 435 q 128 838 140 815 q 103 981 81 914 q 208 1047 126 1047 l 1182 1047 m 354 871 q 338 801 294 871 q 423 648 347 786 q 571 379 499 510 q 653 239 643 249 q 728 226 693 199 q 820 369 739 235 q 988 647 901 503 q 1079 800 1074 792 q 1053 869 1126 869 q 936 863 1043 864 q 710 865 829 863 q 475 869 590 867 q 354 871 360 871 z "},"▼":{"ha":1389,"x_min":103,"x_max":1326,"o":"m 1182 1047 q 1279 1022 1240 1047 q 1326 949 1318 997 q 1290 826 1333 900 q 1208 681 1282 813 q 1063 423 1135 550 q 915 173 990 296 q 811 24 839 50 q 692 -18 765 -24 q 569 51 618 -12 q 439 267 533 100 q 242 625 344 435 q 128 838 140 815 q 103 981 81 914 q 208 1047 126 1047 l 1182 1047 z "},"※":{"ha":1389,"x_min":192,"x_max":1197,"o":"m 385 621 q 416 544 415 590 q 382 464 417 497 q 224 465 306 399 q 192 550 192 492 q 235 638 192 608 q 385 621 315 693 m 625 860 q 597 940 594 883 q 636 1032 600 997 q 786 1015 717 1088 q 817 938 817 985 q 783 858 818 892 q 625 860 707 793 m 628 251 q 778 235 708 307 q 809 158 808 204 q 775 78 810 111 q 617 79 699 13 q 585 164 585 106 q 628 251 585 222 m 1165 622 q 1197 545 1196 592 q 1163 465 1197 499 q 1004 467 1078 393 q 972 551 972 493 q 1015 639 972 610 q 1165 622 1096 694 m 824 551 q 1024 346 1010 363 q 1033 215 1092 269 q 963 190 1006 186 q 888 225 921 193 l 814 299 q 758 354 799 314 q 692 419 717 394 q 510 242 531 260 q 383 225 435 174 q 355 294 353 254 q 389 371 357 333 q 406 389 393 375 q 445 429 419 403 q 489 474 471 456 q 563 547 522 506 q 374 739 394 713 q 343 878 301 822 q 414 914 371 914 q 494 881 457 914 q 697 679 522 857 q 793 774 767 749 l 857 838 q 905 878 883 864 q 955 892 926 892 q 1010 869 983 893 q 1035 819 1033 847 q 975 706 1038 776 q 824 551 957 685 z "},"〒":{"ha":1389,"x_min":210,"x_max":1174,"o":"m 368 776 q 266 801 306 782 q 219 872 226 821 q 243 958 213 922 q 350 1007 281 1003 q 699 1011 407 1011 q 1046 1007 992 1011 q 1169 901 1169 1000 q 1129 817 1169 851 q 1031 782 1089 782 q 987 781 1029 782 q 893 781 944 781 q 444 775 582 775 q 368 776 378 775 m 1010 697 q 1126 676 1083 697 q 1174 592 1169 656 q 1153 526 1176 551 q 999 478 1117 483 q 797 475 924 475 q 797 334 797 435 q 796 190 796 233 l 796 106 q 772 12 796 54 q 708 -35 747 -31 l 697 -35 q 623 -8 656 -35 q 589 72 590 18 q 586 476 586 113 q 338 479 396 476 q 210 575 210 486 q 246 662 210 628 q 343 700 282 696 q 492 701 361 701 q 932 699 682 701 q 989 697 967 699 l 1010 697 z "},"→":{"ha":1389,"x_min":172,"x_max":1217,"o":"m 1199 499 q 1216 449 1218 479 q 1188 400 1214 419 q 1015 301 1161 381 q 865 218 869 221 q 806 209 833 200 q 778 251 778 218 l 778 375 q 535 376 596 381 q 402 375 481 371 q 304 378 324 379 q 242 379 267 376 q 194 401 217 382 q 172 454 172 419 q 285 539 174 539 q 654 540 608 539 q 779 542 688 542 l 779 651 q 802 704 779 689 q 869 696 825 719 q 1199 499 1178 522 z "},"←":{"ha":1389,"x_min":172,"x_max":1217,"o":"m 1085 539 q 1185 526 1144 542 q 1217 464 1226 510 q 1104 378 1215 378 q 700 376 747 378 q 611 375 674 375 l 611 265 q 588 213 611 228 q 519 221 564 197 q 190 418 211 394 q 173 467 171 438 q 201 517 175 497 q 374 616 228 536 q 524 699 519 696 q 583 708 556 717 q 611 665 611 699 l 611 542 q 875 540 811 536 q 997 542 929 546 q 1085 539 1065 538 z "},"↑":{"ha":1389,"x_min":449,"x_max":944,"o":"m 935 685 q 944 625 953 653 q 901 597 935 597 l 778 597 q 776 319 772 385 q 778 205 782 265 q 775 124 774 144 q 774 61 776 86 q 753 14 771 36 q 700 -8 735 -8 q 614 104 614 -7 q 613 474 614 428 q 611 597 611 507 l 501 597 q 449 621 464 597 q 457 689 433 644 q 654 1018 629 994 q 703 1035 674 1038 q 753 1007 733 1033 q 852 835 772 981 q 935 685 932 689 z "},"↓":{"ha":1389,"x_min":444,"x_max":940,"o":"m 888 394 q 940 372 925 394 q 932 304 956 349 q 735 -25 758 -4 q 685 -42 715 -44 q 636 -14 656 -40 q 537 158 617 13 q 454 308 457 304 q 445 367 436 340 q 488 394 454 394 l 611 394 q 613 674 617 608 q 611 806 607 728 q 614 904 615 885 q 626 990 611 957 q 689 1036 642 1022 q 775 924 775 1035 q 776 519 775 567 q 778 394 778 486 l 888 394 z "},"〓":{"ha":1389,"x_min":285,"x_max":1093,"o":"m 906 853 q 1081 703 1081 843 q 1024 585 1081 633 q 886 536 968 536 q 856 535 879 536 q 763 533 832 535 q 651 529 651 531 l 582 526 q 525 528 547 526 l 503 528 q 407 543 446 533 q 334 583 368 553 q 293 664 300 614 q 325 783 285 732 q 478 853 379 849 l 493 856 l 599 858 q 640 858 617 858 q 906 853 840 858 m 864 381 q 948 376 913 381 q 1018 356 983 371 q 1072 310 1053 340 q 1093 232 1090 279 q 1064 139 1097 176 q 846 72 1013 81 q 719 68 764 68 q 467 74 592 68 q 324 118 363 78 q 285 208 285 158 q 337 330 285 282 q 475 383 389 378 q 654 386 522 386 l 733 385 q 736 383 717 383 q 794 382 754 382 q 853 381 843 382 q 864 381 863 381 z "},"∈":{"ha":1389,"x_min":218,"x_max":1199,"o":"m 1092 250 q 1169 226 1139 250 q 1199 158 1199 201 q 1167 94 1199 118 q 1081 71 1136 71 q 549 81 644 71 q 446 106 496 85 q 345 169 396 126 q 260 288 294 211 q 218 469 226 365 q 326 772 218 664 q 593 889 435 879 q 1079 900 758 900 q 1167 874 1135 900 q 1199 800 1199 847 l 1199 797 q 1078 711 1197 711 q 1013 714 1068 711 q 596 700 657 724 q 464 626 501 664 q 422 567 438 600 q 692 568 486 568 q 1093 558 860 568 q 1173 533 1151 556 q 1194 482 1194 510 q 1166 413 1194 440 q 1089 383 1138 386 l 1039 383 q 946 382 988 382 q 694 387 878 382 q 476 392 511 392 l 417 392 q 604 258 458 276 q 1015 249 700 244 q 1092 250 1050 250 z "},"∋":{"ha":1389,"x_min":192,"x_max":1172,"o":"m 842 892 q 950 861 893 888 q 1061 789 1007 835 q 1147 667 1115 743 q 1172 501 1179 592 q 1064 200 1172 308 q 797 82 956 92 q 311 71 632 71 q 224 97 256 71 q 192 171 192 124 l 192 175 q 313 260 193 260 q 340 259 318 260 q 376 258 361 258 q 794 271 719 243 q 856 295 835 286 q 914 335 876 304 q 968 404 951 365 q 697 403 904 403 q 297 413 531 403 q 196 489 196 417 q 224 558 196 531 q 301 588 253 585 q 444 589 315 589 q 696 584 513 589 q 914 579 879 579 l 972 579 q 899 674 950 642 q 786 714 847 707 q 599 722 744 719 q 374 722 454 725 q 329 722 354 722 q 299 721 304 721 q 221 746 250 721 q 192 813 192 771 q 223 877 192 854 q 310 900 254 900 q 842 892 739 900 z "},"⊆":{"ha":1389,"x_min":213,"x_max":1168,"o":"m 513 276 q 441 290 478 279 q 363 326 404 301 q 288 387 321 351 q 234 479 256 422 q 213 604 213 536 q 243 761 213 692 q 324 871 274 831 q 431 933 374 911 q 551 958 489 954 q 1051 967 685 967 q 1137 942 1106 967 q 1168 874 1168 917 l 1168 871 q 1050 790 1165 790 q 999 792 1021 790 l 993 792 q 803 794 915 794 q 558 781 589 794 l 550 778 q 501 758 521 768 q 455 730 482 749 q 413 681 428 711 q 399 611 399 651 q 416 530 399 564 q 463 479 433 496 q 515 455 492 463 q 563 444 539 447 q 931 436 640 436 q 967 437 944 436 q 996 438 989 438 l 1001 438 l 1063 438 q 1140 414 1111 438 q 1168 351 1168 390 q 1137 292 1168 314 q 1053 269 1106 269 q 513 276 589 269 m 1040 192 q 1132 175 1099 192 q 1168 108 1165 158 q 1151 56 1171 76 q 1031 18 1124 24 q 735 17 1001 17 q 333 26 567 17 q 232 103 232 31 q 261 171 232 144 q 339 200 290 197 q 481 201 351 201 q 721 197 542 201 q 951 193 900 193 q 1010 192 979 193 l 1040 192 z "},"⊇":{"ha":1389,"x_min":226,"x_max":1183,"o":"m 833 444 q 881 455 857 447 q 933 479 904 463 q 980 530 963 496 q 997 611 997 564 q 983 681 997 651 q 941 730 968 711 q 894 758 914 749 q 846 778 875 768 l 838 781 q 593 794 803 794 q 403 792 481 794 l 397 792 q 346 790 375 790 q 228 871 231 790 l 228 874 q 259 942 228 917 q 344 967 290 967 q 844 958 711 967 q 965 933 907 954 q 1072 871 1022 911 q 1153 761 1122 831 q 1183 604 1183 692 q 1162 479 1183 536 q 1108 387 1140 422 q 1033 326 1075 351 q 955 290 992 301 q 883 276 918 279 q 343 269 807 269 q 259 292 290 269 q 228 351 228 314 q 256 414 228 390 q 333 438 285 438 l 394 438 l 400 438 q 428 437 406 438 q 465 436 450 436 q 833 444 756 436 m 1035 199 q 1126 182 1093 199 q 1163 115 1160 165 q 1146 63 1165 83 q 1025 25 1118 31 q 750 17 850 17 q 328 19 397 17 q 226 96 226 24 q 333 186 226 179 q 475 188 346 188 q 715 194 536 188 q 946 200 894 200 q 1004 200 974 200 l 1035 199 z "},"⊂":{"ha":1389,"x_min":218,"x_max":1199,"o":"m 1199 158 q 1167 94 1199 118 q 1081 71 1136 71 q 549 81 644 71 q 446 106 496 85 q 345 169 396 126 q 260 288 294 211 q 218 469 226 365 q 326 772 218 664 q 593 889 435 879 q 1079 900 758 900 q 1167 874 1135 900 q 1199 800 1199 847 l 1199 797 q 1078 711 1197 711 q 1013 714 1068 711 q 596 700 657 724 q 552 683 567 689 q 506 657 538 676 q 458 616 475 638 q 424 558 440 594 q 403 476 407 521 q 463 320 403 371 q 604 258 524 269 q 1015 249 700 244 q 1092 250 1050 250 q 1169 226 1139 250 q 1199 158 1199 201 z "},"⊃":{"ha":1389,"x_min":190,"x_max":1171,"o":"m 190 158 q 220 226 190 201 q 297 250 250 250 q 372 249 339 250 q 785 258 689 244 q 926 320 865 269 q 986 476 986 371 q 974 554 988 518 q 944 610 960 590 q 895 651 929 631 q 849 677 861 672 q 803 696 838 682 q 793 700 796 699 q 376 714 732 724 q 311 711 321 711 q 190 797 192 711 l 190 800 q 222 874 190 847 q 310 900 254 900 q 796 889 631 900 q 1063 772 954 879 q 1171 469 1171 664 q 1156 319 1176 386 q 1099 210 1135 251 q 1016 139 1064 168 q 925 97 968 110 q 840 81 882 85 q 308 71 744 71 q 222 94 253 71 q 190 158 190 118 z "},"∪":{"ha":1389,"x_min":293,"x_max":1122,"o":"m 1036 976 q 1100 945 1076 976 q 1122 858 1124 914 q 1114 326 1122 428 q 1097 243 1110 286 q 1053 154 1083 200 q 981 73 1024 108 q 872 16 939 38 q 725 -4 806 -6 q 423 104 531 -4 q 304 371 315 213 q 293 857 293 536 q 319 944 293 913 q 393 976 346 976 l 397 976 q 462 945 442 975 q 482 854 482 915 q 481 790 482 818 q 493 374 465 447 q 521 313 508 338 q 561 250 533 289 q 629 193 589 211 q 718 181 669 175 q 874 240 824 181 q 936 381 925 300 q 946 793 950 493 q 944 869 944 828 q 969 947 944 917 q 1036 976 993 976 z "},"∩":{"ha":1389,"x_min":265,"x_max":1096,"o":"m 1008 -4 q 941 25 965 -4 q 917 101 917 54 q 918 178 917 144 q 908 590 922 478 q 847 731 897 671 q 690 790 796 790 q 597 774 638 790 q 531 721 557 757 q 496 666 506 685 q 471 608 486 647 q 467 599 468 601 q 453 181 438 525 q 454 117 454 153 q 369 -4 454 -3 l 365 -4 q 292 28 318 -4 q 265 115 265 60 q 276 601 265 436 q 395 868 288 760 q 697 976 503 976 q 871 943 794 976 q 991 857 947 910 q 1058 750 1035 804 q 1086 644 1082 696 q 1096 114 1096 525 q 1072 27 1096 58 q 1008 -4 1049 -4 z "},"∧":{"ha":1389,"x_min":246,"x_max":1138,"o":"m 1079 333 q 1093 294 1083 321 q 1106 256 1103 267 q 1118 219 1110 244 q 1128 185 1126 194 q 1134 153 1129 176 q 1137 124 1139 131 q 1135 97 1135 118 q 1099 48 1128 60 q 1035 43 1069 36 q 946 154 982 53 q 704 776 732 732 q 574 463 693 756 q 435 133 454 171 q 380 60 406 79 q 321 42 354 42 l 319 42 q 267 65 288 42 q 246 117 246 88 q 258 167 246 132 q 297 264 271 201 q 329 343 322 326 q 472 688 367 440 q 599 963 576 935 q 718 1014 646 1022 q 851 897 792 1006 q 965 630 871 864 q 1079 333 1060 396 z "},"∨":{"ha":1389,"x_min":264,"x_max":1157,"o":"m 456 903 q 697 279 669 324 q 828 592 708 300 q 967 922 947 883 q 1022 997 996 978 q 1082 1015 1047 1015 l 1083 1015 q 1135 992 1114 1015 q 1157 940 1157 968 q 1131 840 1157 913 q 1072 713 1104 767 q 926 359 1026 597 q 803 93 825 121 q 683 42 754 33 q 608 74 636 47 q 550 158 581 101 q 437 427 531 193 q 322 724 343 661 q 308 763 318 736 q 294 801 299 790 q 283 838 290 813 q 274 871 275 863 q 267 902 272 879 q 265 931 263 925 q 267 958 267 938 q 303 1008 274 996 q 367 1014 333 1021 q 456 903 419 1006 z "},"￢":{"ha":1389,"x_min":93,"x_max":1215,"o":"m 1028 597 l 181 597 q 116 630 139 597 q 93 700 93 663 q 113 761 93 735 q 176 792 133 788 q 428 793 253 794 q 842 788 603 792 q 1093 785 1082 785 q 1178 745 1140 785 q 1215 647 1215 706 q 1208 308 1215 365 q 1175 250 1203 271 q 1114 229 1147 229 q 1060 260 1085 229 q 1035 344 1036 292 l 1028 597 z "},"⇒":{"ha":1389,"x_min":0,"x_max":0,"o":""},"⇔":{"ha":1389,"x_min":0,"x_max":0,"o":""},"∀":{"ha":1389,"x_min":178,"x_max":1217,"o":"m 1156 1026 q 1217 981 1199 1018 q 1217 885 1235 943 q 1056 546 1201 844 q 897 210 911 247 q 878 162 892 197 q 856 108 865 126 q 833 63 847 89 q 805 20 819 36 q 774 -3 790 4 q 668 -10 731 -22 q 583 39 606 1 q 475 265 569 63 q 281 686 381 468 q 178 910 181 904 q 178 978 160 946 q 231 1028 196 1011 q 299 1031 260 1046 q 364 971 339 1017 q 461 767 381 939 l 933 761 q 1035 967 1017 940 q 1090 1023 1065 1010 q 1156 1026 1115 1036 m 700 256 q 840 565 704 267 l 556 567 l 700 256 z "},"∃":{"ha":1389,"x_min":322,"x_max":1049,"o":"m 1049 892 q 1047 256 1053 829 q 1046 136 1046 197 q 943 25 1046 26 q 882 24 931 24 q 400 29 489 24 q 342 58 363 31 q 322 121 322 85 q 345 183 322 161 q 410 207 368 206 q 554 208 436 208 l 810 208 l 831 208 q 854 236 853 208 q 857 411 854 238 q 431 418 551 418 q 388 438 407 418 q 363 507 360 465 q 387 562 365 538 q 440 588 408 586 q 490 589 447 589 q 858 586 664 589 l 858 775 q 819 800 858 800 q 410 803 457 800 q 356 833 375 804 q 338 893 338 861 q 359 951 338 921 q 413 982 381 981 q 944 986 533 986 q 1049 892 1046 986 z "},"∠":{"ha":1389,"x_min":0,"x_max":0,"o":""},"⊥":{"ha":1389,"x_min":0,"x_max":0,"o":""},"͡":{"ha":1389,"x_min":126,"x_max":1297,"o":"m 1119 782 q 1044 835 1090 808 q 902 893 997 863 q 706 928 807 924 q 584 921 643 931 q 474 890 525 911 q 390 851 422 868 q 316 808 357 835 q 267 778 275 782 q 126 768 171 721 q 135 901 72 829 q 199 960 160 929 q 306 1027 239 990 q 474 1087 374 1064 q 688 1108 574 1110 q 892 1085 794 1107 q 1060 1027 990 1063 q 1174 962 1129 992 q 1247 903 1218 932 q 1297 815 1293 857 q 1265 746 1300 772 q 1202 735 1242 725 q 1119 782 1163 744 z "},"∂":{"ha":1389,"x_min":0,"x_max":0,"o":""},"∇":{"ha":1389,"x_min":244,"x_max":1150,"o":"m 1017 1040 q 1090 1033 1063 1040 q 1135 1007 1118 1026 q 1150 950 1153 988 q 1125 854 1147 913 q 944 414 1065 694 q 757 24 824 133 q 705 -19 738 -8 q 639 -14 672 -31 q 585 44 606 3 q 417 450 528 164 q 261 864 306 736 q 245 995 228 950 q 342 1040 263 1040 l 1017 1040 m 908 782 q 917 810 915 799 q 919 830 918 822 q 912 843 919 838 q 901 850 904 849 q 882 856 897 851 q 860 864 867 861 l 501 864 q 458 844 465 864 q 465 786 451 824 q 553 559 486 728 q 646 336 619 390 q 684 306 660 308 q 722 328 708 304 q 908 782 757 383 z "},"≡":{"ha":1389,"x_min":207,"x_max":1167,"o":"m 1026 250 q 1058 249 1046 250 q 1093 244 1071 249 q 1128 232 1115 240 q 1153 207 1142 224 q 1167 167 1165 190 q 1146 111 1168 133 q 1018 76 1115 82 q 721 75 985 75 q 643 76 685 75 q 564 77 601 76 q 490 78 526 78 q 423 80 453 79 q 369 81 393 81 q 333 83 346 82 l 319 83 q 207 161 207 88 q 239 228 207 201 q 324 257 271 254 l 467 257 q 740 253 589 257 q 938 250 896 250 l 954 250 l 1026 250 m 1026 572 q 1058 572 1046 572 q 1093 567 1071 571 q 1128 554 1115 563 q 1153 529 1142 546 q 1167 489 1165 513 q 1146 435 1169 456 q 1018 400 1113 403 q 721 399 985 399 q 643 399 685 399 q 564 401 601 400 q 490 402 526 401 q 423 403 453 403 q 369 405 393 404 q 333 406 346 406 l 319 407 q 207 483 207 410 q 239 550 207 524 q 324 579 271 576 q 467 581 336 581 q 608 578 506 581 q 740 576 710 576 q 938 574 896 574 l 954 572 l 1026 572 m 1026 896 q 1058 895 1046 896 q 1093 890 1071 894 q 1128 878 1115 886 q 1153 853 1142 869 q 1167 813 1165 836 q 1146 758 1169 779 q 1018 722 1115 728 q 721 721 985 721 q 643 722 685 721 q 564 723 601 722 q 490 724 526 724 q 423 726 453 725 q 369 727 393 726 q 333 728 346 728 l 319 729 q 207 807 207 733 q 239 874 207 847 q 324 903 271 900 q 347 903 326 903 q 401 903 368 903 q 467 904 433 904 q 608 902 506 904 q 740 900 710 900 q 938 896 857 896 l 954 896 l 1026 896 z "},"≒":{"ha":1389,"x_min":250,"x_max":1138,"o":"m 432 829 q 353 866 379 833 q 322 942 326 899 q 358 1022 318 982 q 450 1053 399 1063 q 543 936 543 1036 q 510 860 543 894 q 432 829 476 826 m 954 -40 q 875 -3 901 -36 q 844 72 849 29 q 882 153 842 113 q 972 183 922 193 q 1065 67 1065 165 q 1032 -9 1065 25 q 954 -40 999 -43 m 1008 739 q 1101 722 1067 739 q 1138 656 1135 706 q 1121 603 1140 624 q 1000 565 1092 571 q 772 564 969 564 q 351 567 418 564 q 250 643 250 571 q 278 711 250 685 q 356 740 307 738 q 497 742 369 742 q 713 741 558 742 q 919 740 868 740 q 978 739 947 740 l 1008 739 m 1008 447 q 1101 431 1067 447 q 1138 364 1135 414 q 1121 311 1140 332 q 1000 274 1090 279 q 772 272 969 272 q 351 275 418 272 q 250 351 250 279 q 278 419 250 393 q 356 450 307 446 l 497 450 q 919 449 814 450 q 978 447 947 449 l 1008 447 z "},"≪":{"ha":1389,"x_min":144,"x_max":1183,"o":"m 863 990 q 328 588 472 707 q 275 535 281 549 q 281 503 268 518 q 597 256 325 454 q 885 33 869 57 q 878 -43 914 -14 q 796 -35 842 -72 q 654 71 778 -21 q 396 265 531 163 q 199 424 261 368 q 153 483 168 451 q 144 551 138 514 q 189 618 151 588 q 333 733 249 668 q 495 857 417 799 q 642 966 574 915 q 756 1049 711 1017 q 801 1082 800 1081 q 864 1094 832 1107 q 897 1052 896 1082 q 863 990 899 1022 m 1149 990 q 615 588 758 707 q 561 533 567 549 q 567 503 554 518 q 883 256 611 454 q 1171 33 1156 57 q 1164 -43 1200 -14 q 1082 -35 1128 -72 q 940 71 1064 -21 q 682 265 817 163 q 485 424 547 368 q 439 483 454 451 q 431 551 424 514 q 475 618 438 588 q 619 733 535 668 q 781 857 703 799 q 928 966 860 915 q 1042 1049 997 1017 q 1088 1082 1086 1081 q 1150 1094 1118 1107 q 1183 1052 1182 1082 q 1149 990 1185 1022 z "},"≫":{"ha":1389,"x_min":207,"x_max":1249,"o":"m 529 990 q 495 1052 492 1018 q 528 1094 499 1086 q 590 1082 558 1103 q 1204 618 988 799 q 1248 551 1240 588 q 1240 483 1256 514 q 1194 424 1225 451 q 997 265 1132 368 q 739 71 863 163 q 597 -35 615 -21 q 515 -43 551 -72 q 508 33 479 -14 q 794 256 522 58 q 1111 503 1067 454 q 1117 512 1115 507 q 1119 522 1119 517 q 1119 531 1119 526 q 1114 540 1118 535 q 1107 549 1110 546 q 1098 558 1104 553 q 1088 567 1092 564 q 1076 578 1083 571 q 1064 588 1068 585 q 529 990 914 713 m 243 990 q 208 1052 204 1018 q 242 1094 211 1086 q 304 1082 272 1103 q 350 1049 306 1081 q 463 966 394 1017 q 610 857 532 915 q 774 733 689 799 q 918 618 858 668 q 962 551 954 588 q 954 483 969 514 q 908 424 939 451 q 711 265 846 368 q 453 71 576 163 q 311 -35 329 -21 q 229 -43 265 -72 q 222 33 193 -14 q 508 256 236 58 q 825 503 781 454 q 831 512 829 507 q 833 522 833 517 q 833 531 833 526 q 828 540 832 535 q 821 549 824 546 q 812 558 818 553 q 801 567 806 564 q 790 578 797 571 q 778 588 782 585 q 243 990 628 713 z "},"√":{"ha":1389,"x_min":0,"x_max":0,"o":""},"∽":{"ha":1389,"x_min":0,"x_max":0,"o":""},"∝":{"ha":1389,"x_min":0,"x_max":0,"o":""},"∵":{"ha":1389,"x_min":200,"x_max":1189,"o":"m 694 285 q 774 249 747 281 q 806 174 800 217 q 768 92 808 132 q 678 61 728 51 q 609 103 635 69 q 583 178 583 136 q 616 254 583 221 q 694 285 649 288 m 1079 983 q 1158 947 1131 979 q 1189 871 1185 914 q 1151 790 1192 831 q 1061 758 1111 750 q 968 875 968 776 q 1001 952 968 918 q 1079 983 1033 986 m 311 983 q 390 947 364 979 q 421 871 417 914 q 384 790 424 831 q 293 758 344 750 q 200 875 200 776 q 233 952 200 918 q 311 983 265 986 z "},"∫":{"ha":1389,"x_min":0,"x_max":0,"o":""},"∬":{"ha":1389,"x_min":0,"x_max":0,"o":""},"Å":{"ha":1389,"x_min":0,"x_max":0,"o":""},"‰":{"ha":1389,"x_min":0,"x_max":0,"o":""},"♯":{"ha":1389,"x_min":179,"x_max":1188,"o":"m 1040 460 q 1123 431 1090 461 q 1160 356 1156 401 q 1133 278 1164 313 q 1036 235 1103 243 q 969 226 1006 232 q 939 67 947 92 q 900 1 925 18 q 833 -17 875 -17 q 764 14 792 -17 q 740 103 736 44 q 754 201 740 107 q 653 190 731 199 q 535 176 575 181 q 517 90 519 100 q 406 -14 485 -14 q 333 23 363 -14 q 311 124 304 60 q 315 156 314 138 q 219 181 254 154 q 179 251 183 208 q 212 332 174 294 q 314 378 250 369 q 330 380 317 378 q 353 383 343 382 q 396 632 371 499 q 387 631 392 632 q 378 630 382 631 q 374 629 375 629 q 228 721 249 624 q 253 809 218 767 q 350 860 289 851 q 387 863 357 860 q 438 869 417 867 q 450 926 447 914 q 467 990 458 967 q 489 1038 475 1014 q 526 1071 503 1061 q 582 1076 550 1081 q 654 1023 635 1071 q 661 917 674 975 q 657 894 660 911 q 874 918 772 907 q 878 943 875 936 q 925 1040 889 1013 q 1003 1058 961 1067 q 1065 1017 1042 1051 q 1083 935 1089 982 q 1158 896 1129 929 q 1188 828 1188 863 q 1158 752 1188 789 q 1076 710 1128 715 q 1047 706 1069 708 q 1028 585 1042 669 q 1007 457 1014 501 q 1020 458 1013 457 q 1033 459 1028 458 q 1040 460 1038 460 m 575 408 q 792 433 764 431 q 833 681 831 660 q 617 656 642 658 q 575 408 614 635 z "},"♭":{"ha":1389,"x_min":403,"x_max":1053,"o":"m 404 892 q 442 983 401 951 q 533 1011 483 1015 q 602 967 576 1006 q 628 885 628 929 l 632 660 q 663 663 633 660 q 729 664 693 665 q 810 656 765 663 q 899 624 854 649 q 975 561 943 600 q 1052 331 1057 457 q 967 115 1047 204 q 625 -17 843 -22 q 489 -3 517 -12 q 411 125 419 22 q 403 527 403 165 q 404 892 404 889 m 611 238 q 666 189 613 196 q 764 208 719 182 q 834 288 813 233 q 833 389 856 343 q 802 429 819 414 q 762 450 785 444 q 724 457 739 456 q 682 458 708 458 q 624 440 642 458 q 607 383 607 422 q 611 238 607 290 z "},"♪":{"ha":1389,"x_min":292,"x_max":1128,"o":"m 971 794 q 1092 642 1054 731 q 1127 485 1129 553 q 1104 369 1125 418 q 1065 330 1090 336 q 1018 344 1039 324 q 1001 399 1006 357 q 983 497 997 442 q 933 590 969 551 q 803 703 886 643 q 803 641 803 683 q 806 585 804 599 q 799 213 811 244 q 719 44 792 124 q 575 -49 664 -17 q 417 -61 486 -82 q 314 19 353 -43 q 292 154 275 82 q 494 358 321 288 q 656 371 571 392 q 657 722 657 432 q 660 929 660 924 q 726 1047 650 1047 q 796 1007 767 1046 q 800 985 811 986 q 858 903 806 965 q 971 794 911 840 z "},"†":{"ha":1389,"x_min":381,"x_max":1013,"o":"m 883 890 q 976 874 942 890 q 1013 807 1010 857 q 996 754 1014 775 q 875 717 967 722 q 790 715 858 715 q 785 79 790 140 q 700 -19 779 -19 q 633 12 660 -19 q 606 90 606 43 l 606 192 q 603 714 603 408 q 528 716 561 715 q 483 717 494 717 q 418 733 443 718 q 387 762 393 747 q 381 793 381 776 q 410 862 381 835 q 488 892 439 889 q 603 893 496 893 q 604 982 604 942 q 681 1099 613 1090 q 756 1075 725 1104 q 789 996 786 1046 q 790 892 790 983 l 801 892 q 883 890 847 890 z "},"‡":{"ha":1389,"x_min":382,"x_max":1013,"o":"m 883 375 q 1013 290 1008 375 q 996 239 1014 260 q 875 200 965 206 q 839 199 869 200 q 788 199 808 199 q 785 79 785 81 q 700 -19 779 -19 q 633 12 660 -19 q 606 90 606 43 l 606 192 l 606 199 q 483 201 501 200 q 382 278 382 206 q 410 347 382 319 q 488 376 439 374 q 508 377 490 376 q 552 378 525 378 q 604 378 579 378 q 603 545 604 431 q 603 714 603 660 q 528 716 561 715 q 483 717 494 717 q 382 793 382 721 q 410 862 382 835 q 488 892 439 889 q 603 893 496 893 q 604 982 604 942 q 681 1099 615 1090 q 756 1075 725 1104 q 789 996 786 1046 q 790 892 790 983 l 801 892 q 883 890 847 890 q 976 874 942 890 q 1013 807 1010 857 q 996 754 1014 775 q 875 717 967 722 q 790 715 858 715 q 789 375 790 485 l 801 375 l 883 375 z "},"¶":{"ha":1389,"x_min":0,"x_max":0,"o":""},"⃝":{"ha":1389,"x_min":165,"x_max":1247,"o":"m 661 -60 q 469 -15 554 -53 q 332 74 385 22 q 243 198 279 126 q 190 338 207 269 q 165 485 172 407 q 198 676 157 575 q 315 859 239 776 q 506 992 390 942 q 749 1031 622 1042 q 965 967 868 1021 q 1123 834 1063 914 q 1215 659 1183 754 q 1247 464 1247 564 q 1198 268 1247 367 q 1069 94 1149 169 q 881 -24 990 19 q 661 -60 772 -68 m 1013 486 q 945 690 1013 596 q 750 801 878 783 q 499 720 615 819 q 383 500 383 621 q 460 283 383 376 q 672 172 538 189 q 851 213 769 160 q 972 341 932 265 q 1013 486 1013 417 z "},"０":{"ha":1389,"x_min":239,"x_max":1146,"o":"m 707 1056 q 967 968 851 1054 q 1131 746 1082 882 q 1145 381 1188 593 q 986 68 1103 168 q 720 -29 878 -25 q 431 69 563 -33 q 262 322 308 172 q 239 642 215 472 q 398 935 264 811 q 707 1056 532 1058 m 547 278 q 695 219 614 224 q 843 265 776 214 q 927 419 908 318 q 929 614 946 519 q 853 758 913 697 q 725 824 793 818 q 592 793 664 829 q 489 682 519 757 q 453 539 458 608 q 464 419 449 469 q 501 333 479 368 q 547 278 522 299 z "},"１":{"ha":1389,"x_min":396,"x_max":844,"o":"m 513 733 q 396 806 417 736 q 396 879 379 838 q 476 965 413 921 q 569 1026 539 1007 q 649 1058 599 1044 q 744 1063 700 1072 q 813 1015 789 1053 q 840 943 836 978 q 844 854 844 908 q 839 452 844 772 q 829 89 833 132 q 787 14 826 43 q 710 -12 747 -15 q 639 17 674 -10 q 599 94 604 44 q 597 295 596 147 q 603 601 599 443 l 606 760 q 601 756 611 760 q 513 733 554 738 z "},"２":{"ha":1389,"x_min":332,"x_max":1083,"o":"m 535 774 q 476 725 514 739 q 394 726 438 711 q 333 792 347 743 q 353 907 318 840 q 514 1038 399 989 q 764 1053 629 1086 q 971 900 900 1018 q 1025 665 1042 782 q 974 485 1011 554 q 865 336 938 415 q 805 276 838 307 q 754 231 772 246 l 736 215 q 969 210 739 210 q 1058 175 1032 201 q 1083 101 1083 149 q 1054 23 1089 49 q 946 -3 1019 -3 l 458 -3 q 388 24 431 -7 q 343 96 344 54 q 369 175 342 139 q 488 294 397 211 q 536 340 497 303 q 592 392 575 376 q 642 441 608 407 q 695 497 676 475 q 737 547 714 518 q 773 601 760 576 q 793 649 786 626 q 793 760 813 714 q 721 825 774 806 q 599 829 647 851 q 535 774 556 810 z "},"３":{"ha":1389,"x_min":344,"x_max":1008,"o":"m 876 539 q 913 504 892 526 q 972 417 935 482 q 1008 290 1008 351 q 944 91 1010 178 q 769 -12 878 4 q 696 -18 719 -18 q 407 94 519 -18 q 345 201 357 146 q 357 285 333 256 q 440 331 385 326 q 533 300 494 336 q 665 217 607 224 l 686 217 q 751 231 722 217 q 785 275 781 246 q 764 355 792 319 q 706 404 736 390 l 685 414 q 636 436 653 428 q 600 462 619 444 q 572 500 581 479 q 576 576 557 539 q 633 633 596 613 q 751 717 738 689 q 732 826 785 782 q 675 844 711 844 q 576 824 618 844 q 426 833 489 779 q 397 906 394 860 q 457 1006 400 963 q 683 1064 540 1064 q 885 1008 803 1064 q 994 731 1017 921 q 960 640 989 688 q 903 565 931 592 l 876 539 z "},"４":{"ha":1389,"x_min":246,"x_max":1117,"o":"m 678 1001 q 815 1049 729 1060 q 890 1016 854 1044 q 926 942 926 988 q 924 489 924 664 q 1036 483 999 486 q 1091 450 1065 482 q 1117 379 1117 418 q 1091 298 1117 333 q 1018 263 1065 263 l 918 261 q 923 243 922 258 q 923 203 924 228 q 920 157 922 179 q 916 108 918 135 q 914 71 914 82 q 883 8 913 33 q 818 -18 853 -18 q 746 5 782 -18 q 706 65 710 28 q 701 138 701 89 q 701 225 700 188 l 703 263 q 393 267 721 254 q 256 350 299 271 q 247 430 238 385 q 286 515 256 475 q 487 767 331 572 q 678 1001 643 963 m 533 499 l 700 500 l 706 711 l 533 499 z "},"５":{"ha":1389,"x_min":371,"x_max":1026,"o":"m 471 1029 q 864 1035 713 1035 q 956 1003 919 1035 q 992 917 993 972 q 956 835 990 867 q 858 804 921 804 l 596 801 l 597 649 q 656 653 619 651 q 776 642 693 654 q 906 594 858 629 q 1026 233 1071 476 q 910 48 1004 122 q 682 -22 817 -26 q 379 115 450 -15 q 371 202 357 161 q 419 261 385 243 q 585 225 483 296 q 701 198 631 192 q 803 246 772 204 q 822 349 838 292 q 750 436 807 407 q 549 443 679 471 q 438 458 485 431 q 390 535 390 485 l 390 944 q 414 1006 392 982 q 471 1029 436 1029 z "},"６":{"ha":1389,"x_min":336,"x_max":1017,"o":"m 825 611 q 992 471 932 583 q 1017 213 1053 358 q 899 48 990 106 q 704 -10 807 -10 q 581 14 640 -10 q 382 205 442 69 q 336 568 322 340 q 437 886 350 768 q 639 1036 524 1004 q 724 1047 681 1047 q 926 976 842 1047 q 964 909 961 947 q 947 849 967 871 q 871 810 926 810 q 817 819 844 810 q 735 832 778 832 q 626 793 658 832 q 554 585 554 704 q 711 626 617 626 q 825 611 761 626 m 807 253 q 820 271 807 253 q 832 328 833 289 q 803 399 831 367 q 736 442 776 431 q 706 446 722 446 q 635 428 669 446 q 589 376 600 410 q 593 261 563 306 q 703 206 633 206 q 738 210 719 206 q 807 253 781 217 z "},"７":{"ha":1389,"x_min":317,"x_max":1085,"o":"m 524 825 l 849 822 q 592 138 608 204 q 599 52 579 89 q 661 6 619 15 q 733 8 708 -6 q 792 65 758 21 q 943 448 815 96 q 1085 861 1071 800 q 1063 978 1101 933 q 967 1026 1024 1024 q 482 1039 933 1028 q 361 998 403 1040 q 317 892 319 956 q 319 649 311 711 q 351 595 322 615 q 415 575 379 575 q 483 594 451 575 q 518 642 515 613 l 524 825 z "},"８":{"ha":1389,"x_min":344,"x_max":1025,"o":"m 474 563 q 449 587 464 571 q 410 652 435 603 q 385 753 385 701 q 528 1029 381 950 q 726 1061 603 1074 q 918 979 849 1049 q 982 871 963 935 q 1000 758 1001 807 q 988 674 999 710 q 958 617 979 647 q 919 572 938 588 l 903 556 q 967 485 925 546 q 1025 347 1010 425 q 1001 149 1046 240 q 864 19 956 57 q 740 -12 806 -4 q 600 -6 675 -21 q 469 53 525 10 q 360 190 388 117 q 344 357 333 263 q 383 464 351 413 q 444 539 415 515 l 474 563 m 778 724 q 802 770 797 740 q 797 825 807 800 q 783 850 793 838 q 747 874 772 863 q 686 885 721 886 q 613 851 636 882 q 589 790 590 821 q 606 735 586 765 q 664 697 625 704 q 778 724 733 683 m 776 408 q 712 435 753 431 q 639 428 671 440 q 583 385 608 417 q 563 294 557 353 q 592 226 565 253 q 644 191 618 199 q 693 182 669 183 q 769 205 728 181 q 818 275 811 229 q 776 408 833 357 z "},"９":{"ha":1389,"x_min":322,"x_max":999,"o":"m 856 1011 q 999 700 989 915 q 944 464 1001 603 q 931 425 939 450 q 849 225 911 371 q 767 47 786 79 q 679 -15 731 -15 q 640 -8 664 -15 q 586 39 603 3 q 581 138 560 90 q 636 264 589 161 q 689 381 683 367 l 681 381 q 463 432 532 381 q 358 562 394 483 q 322 729 321 640 q 372 901 325 819 q 489 1018 418 983 q 681 1057 574 1057 q 856 1011 789 1057 m 746 625 q 780 676 765 636 q 786 757 794 717 q 736 832 776 807 q 657 857 696 857 l 651 857 q 578 826 614 856 q 535 753 542 796 q 547 668 526 710 q 607 610 568 626 q 651 601 625 601 q 746 625 711 601 z "},"Ａ":{"ha":1389,"x_min":188,"x_max":1224,"o":"m 1217 136 q 1223 54 1236 92 q 1172 0 1210 17 q 1087 -3 1140 -19 q 1004 67 1033 14 q 911 283 982 108 l 515 282 q 500 249 501 251 q 396 49 422 86 q 333 -15 361 -1 q 258 -19 306 -29 q 188 34 208 -8 q 189 143 167 76 q 344 474 207 192 q 497 794 482 757 q 519 849 501 804 q 544 913 536 893 q 569 963 553 932 q 603 1012 586 994 q 638 1038 619 1029 q 758 1047 686 1060 q 856 990 829 1035 q 1043 553 876 956 q 1217 136 1210 150 m 722 742 q 617 508 671 628 l 817 510 l 722 742 z "},"Ｂ":{"ha":1389,"x_min":353,"x_max":1088,"o":"m 1006 518 q 1088 264 1101 375 q 840 -3 1057 18 q 658 -11 747 -11 q 525 -7 625 -11 q 478 -6 506 -6 q 400 26 436 -6 q 358 106 364 57 q 353 879 350 161 l 353 918 q 389 1011 353 975 q 486 1051 425 1047 q 643 1056 549 1056 q 849 1046 775 1056 q 983 976 925 1036 q 1056 846 1042 915 q 1001 550 1086 690 q 996 542 999 547 l 993 536 q 1006 518 994 535 m 835 796 q 690 832 810 832 q 669 831 682 832 q 651 831 656 831 l 640 831 q 585 800 588 831 q 583 735 583 785 q 582 669 583 685 q 593 629 581 647 q 621 615 606 617 l 628 615 q 703 611 678 611 q 821 636 789 611 q 856 708 850 660 q 835 796 863 756 m 582 263 q 593 224 579 239 q 621 210 604 210 l 625 210 q 711 206 675 206 q 838 229 807 206 q 874 297 868 253 q 853 381 881 340 q 696 415 828 415 l 653 415 l 640 415 q 585 383 588 415 q 583 324 583 369 q 582 263 583 278 z "},"Ｃ":{"ha":1389,"x_min":257,"x_max":1082,"o":"m 972 258 q 1057 217 1028 258 q 1082 117 1094 167 q 983 22 1065 57 q 792 -6 919 -6 q 501 51 600 -6 q 438 94 468 69 q 366 165 407 118 q 299 268 325 213 q 258 408 272 324 q 257 588 244 492 q 304 758 268 681 q 388 886 340 836 q 493 972 435 936 q 606 1023 551 1007 q 710 1040 660 1039 q 718 1041 713 1040 q 726 1042 724 1042 q 942 999 842 1042 q 1075 903 1042 956 q 1074 756 1128 824 q 1001 724 1046 724 q 914 753 958 724 q 767 790 856 790 q 689 782 728 790 q 567 701 626 767 q 501 551 507 636 q 603 292 492 383 q 694 249 636 264 q 804 235 751 235 q 835 236 825 235 q 897 247 863 240 q 972 258 950 258 z "},"Ｄ":{"ha":1389,"x_min":290,"x_max":1154,"o":"m 1051 875 q 1136 681 1111 797 q 1153 452 1161 565 q 1114 244 1146 339 q 960 59 1071 121 q 728 -6 849 -3 l 713 -6 q 517 -8 568 -8 q 415 -6 457 -8 q 290 149 286 8 l 290 404 q 293 883 290 851 q 358 999 299 958 q 494 1039 418 1039 l 500 1039 l 550 1039 q 621 1040 571 1040 q 1051 875 928 1040 m 942 489 q 871 711 944 636 q 635 789 796 789 l 613 789 l 599 789 l 590 789 l 579 789 q 533 776 547 789 q 519 733 519 764 l 519 663 l 519 293 q 586 239 522 239 q 596 238 589 239 q 608 238 603 238 q 671 235 639 235 q 942 489 933 235 z "},"Ｅ":{"ha":1389,"x_min":328,"x_max":1063,"o":"m 953 225 q 1019 188 996 224 q 1043 113 1043 151 q 1016 40 1043 76 q 950 1 989 3 q 457 -6 822 -6 q 328 114 333 -6 q 331 735 324 213 q 332 883 332 807 q 460 1024 332 1019 l 536 1024 q 964 1018 856 1024 q 1037 983 1011 1017 q 1063 903 1063 949 q 1033 826 1063 854 q 951 794 1004 797 q 772 793 921 793 l 625 793 l 600 793 q 571 758 575 793 q 568 626 568 747 q 926 618 910 618 q 981 594 957 618 q 1011 507 1014 557 q 981 440 1008 471 q 915 407 954 408 q 853 406 906 406 q 567 408 722 406 q 565 260 565 333 q 615 228 565 228 q 953 225 894 228 z "},"Ｆ":{"ha":1389,"x_min":331,"x_max":1064,"o":"m 574 760 l 574 686 q 942 685 869 682 q 1000 660 975 685 q 1032 572 1035 624 q 1003 501 1031 533 q 935 465 975 468 q 576 461 874 461 q 581 213 579 271 q 581 153 581 182 q 581 108 581 125 l 582 90 q 547 15 582 46 q 471 -19 513 -17 l 463 -19 q 440 -18 451 -19 q 409 -9 428 -17 q 376 10 390 -1 q 350 46 361 22 q 338 101 339 69 q 331 874 331 249 q 460 1015 331 1014 q 963 1011 592 1019 q 1038 977 1013 1010 q 1064 900 1064 944 q 1034 819 1064 849 q 951 789 1004 790 q 772 788 921 788 l 622 788 l 597 788 q 574 760 578 788 z "},"Ｇ":{"ha":1389,"x_min":225,"x_max":1161,"o":"m 1050 563 q 1126 522 1093 558 q 1161 435 1160 486 q 1160 411 1161 426 q 1151 353 1160 396 q 1130 271 1143 310 q 1086 184 1117 232 q 1015 103 1056 136 q 703 3 894 3 q 603 8 649 3 q 416 83 501 19 q 285 221 331 146 q 225 365 239 296 q 382 907 157 722 q 721 1028 528 1028 q 871 1013 785 1028 q 1017 944 958 996 q 1085 846 1075 892 q 1068 754 1096 788 q 986 713 1035 713 q 908 744 954 713 q 883 760 892 756 q 832 783 857 775 q 742 794 792 794 q 686 790 717 794 q 599 761 656 786 q 507 692 543 736 q 449 565 464 640 q 453 414 433 490 q 528 290 472 338 q 719 225 606 225 q 824 239 774 225 q 943 368 917 264 q 804 367 904 367 q 715 391 754 367 q 675 457 676 415 q 701 528 674 500 q 804 564 735 564 l 847 565 q 906 566 867 565 q 963 567 944 567 q 1050 563 1022 567 z "},"Ｈ":{"ha":1389,"x_min":249,"x_max":1139,"o":"m 249 875 q 249 890 249 881 q 253 922 249 899 q 267 962 257 944 q 299 994 276 979 q 351 1008 321 1008 q 454 963 425 1008 q 483 856 483 918 l 483 607 l 899 604 q 901 847 901 789 q 939 979 903 944 q 1038 1008 975 1014 q 1106 967 1088 1003 q 1129 868 1125 932 q 1139 119 1139 715 q 1104 19 1139 51 q 1013 -6 1069 -12 q 942 26 961 -1 q 910 117 924 53 q 903 207 906 138 q 903 336 901 276 l 903 396 l 493 401 q 492 122 497 182 q 367 -7 482 -7 q 284 35 314 -7 q 257 138 254 76 q 253 516 258 185 q 249 875 249 847 z "},"Ｉ":{"ha":1389,"x_min":581,"x_max":829,"o":"m 825 504 q 829 143 831 172 q 802 43 826 76 q 714 6 778 10 q 707 4 711 4 q 622 49 650 4 q 590 158 593 94 q 581 536 586 268 q 582 899 576 804 q 624 980 588 950 q 706 1010 661 1010 q 789 972 754 1010 q 821 885 822 936 q 825 504 819 844 z "},"Ｊ":{"ha":1389,"x_min":318,"x_max":1013,"o":"m 899 1019 q 1013 874 1013 1017 q 1006 594 1013 806 q 993 311 999 383 q 924 117 988 193 q 747 13 860 40 q 643 0 697 0 q 485 29 558 0 q 368 111 413 58 q 318 332 260 235 q 403 374 342 374 q 493 329 461 374 l 501 318 q 535 276 522 290 q 574 250 547 263 q 635 238 600 238 l 643 238 q 742 279 707 239 q 781 393 778 319 q 783 647 783 465 q 782 876 783 828 q 818 990 779 950 q 894 1019 847 1019 l 899 1019 z "},"Ｋ":{"ha":1389,"x_min":281,"x_max":1121,"o":"m 1082 204 q 1120 131 1111 174 q 1113 58 1129 88 q 1007 4 1082 4 q 939 22 969 4 q 688 217 874 58 q 543 326 649 251 q 533 335 540 329 q 524 342 525 340 q 525 133 525 235 q 499 33 522 67 q 413 -4 476 0 l 403 -4 q 319 40 347 -4 q 288 146 290 85 q 281 542 283 219 q 283 936 278 864 q 325 1017 289 988 q 406 1047 361 1047 q 488 1011 454 1047 q 521 925 522 974 q 521 690 518 883 q 735 854 654 788 q 769 882 761 875 l 783 893 q 867 960 842 940 q 929 999 893 981 q 990 1018 965 1018 q 1065 985 1032 1017 q 1097 914 1097 953 q 992 761 1100 844 q 721 515 929 714 q 822 429 733 504 q 990 287 911 354 q 1082 204 1068 219 z "},"Ｌ":{"ha":1389,"x_min":288,"x_max":1111,"o":"m 981 265 q 1075 228 1042 265 q 1111 140 1108 192 q 1079 56 1114 92 q 979 13 1043 15 q 479 10 826 10 q 402 24 442 10 q 328 79 363 38 q 292 185 293 121 q 288 569 289 283 q 289 910 288 856 q 325 1015 292 976 q 415 1053 358 1053 q 510 1014 474 1053 q 546 911 549 975 q 550 433 546 910 l 550 421 q 550 371 550 396 q 551 330 550 346 q 551 311 551 314 q 590 267 551 267 l 725 267 q 873 266 779 267 q 981 265 967 265 z "},"Ｍ":{"ha":1389,"x_min":228,"x_max":1197,"o":"m 1194 690 q 1197 111 1201 174 q 1166 38 1194 67 q 1094 7 1138 10 q 1014 33 1050 4 q 976 111 978 61 q 963 489 967 388 l 960 593 q 813 383 831 401 q 718 339 771 339 q 615 390 664 339 q 460 576 557 454 q 458 118 460 158 q 424 38 456 71 q 344 3 392 4 l 338 3 q 228 114 240 3 q 229 733 221 176 l 229 739 q 230 816 229 775 q 231 860 231 857 q 321 1019 231 989 q 353 1024 338 1024 q 424 997 390 1024 q 503 918 457 971 q 711 622 572 836 q 963 999 921 965 q 1065 1036 1008 1036 q 1135 1013 1104 1036 q 1183 944 1172 982 q 1193 846 1193 907 q 1194 792 1193 844 q 1194 694 1194 739 l 1194 690 z "},"Ｎ":{"ha":1389,"x_min":242,"x_max":1167,"o":"m 1057 1040 q 1133 1007 1099 1039 q 1167 929 1167 975 q 1158 117 1167 244 q 1119 43 1156 76 q 1031 10 1082 10 q 960 28 994 10 q 475 614 883 68 q 477 345 476 529 q 476 117 478 161 q 441 46 475 74 q 364 15 407 18 q 289 43 322 13 q 250 132 256 74 q 243 522 246 188 q 242 904 240 856 q 274 991 244 957 q 356 1032 304 1025 q 365 1033 358 1032 q 375 1033 371 1033 q 525 960 457 1033 q 942 396 557 925 l 942 925 q 976 1008 942 976 q 1054 1040 1011 1040 l 1057 1040 z "},"Ｏ":{"ha":1389,"x_min":214,"x_max":1188,"o":"m 1188 660 q 1174 317 1236 492 q 981 71 1113 143 q 714 8 864 8 q 401 97 519 8 q 238 333 296 178 q 214 657 179 489 q 374 915 244 801 q 675 1031 503 1028 l 686 1031 q 1001 927 861 1031 q 1188 660 1140 824 m 946 410 q 888 706 1000 588 q 701 778 819 778 q 533 722 597 778 q 460 439 417 625 q 544 314 476 365 q 700 258 613 263 q 851 297 778 256 q 946 410 925 338 z "},"Ｐ":{"ha":1389,"x_min":319,"x_max":1133,"o":"m 882 1036 q 1063 940 989 1031 q 1133 728 1136 850 q 1067 512 1131 607 q 890 407 1003 417 q 681 400 814 400 q 564 401 583 400 q 565 241 565 367 q 561 85 564 115 q 520 6 556 35 q 442 -22 485 -22 q 365 4 400 -22 q 322 78 329 31 q 319 813 315 119 l 319 910 q 351 1004 319 969 q 439 1046 382 1039 q 524 1049 472 1049 q 882 1036 665 1049 m 572 647 q 579 628 574 632 q 603 625 585 625 l 624 624 l 699 624 q 819 626 769 624 q 906 736 900 632 q 891 798 908 771 q 842 828 874 825 q 604 835 756 835 q 575 796 575 835 q 574 754 575 772 q 572 647 571 674 z "},"Ｑ":{"ha":1389,"x_min":218,"x_max":1188,"o":"m 1114 229 q 1158 178 1143 197 q 1177 111 1181 149 q 1143 64 1174 74 q 1081 40 1122 40 q 1004 68 1040 39 q 979 90 999 74 l 975 89 q 969 85 972 86 q 665 25 831 14 q 401 110 500 36 q 241 341 299 188 q 218 660 183 494 q 374 912 249 801 q 669 1025 500 1022 q 986 925 846 1028 q 1172 663 1126 822 q 1187 438 1203 554 q 1114 229 1171 322 m 694 254 q 794 267 740 250 q 789 273 792 269 q 785 278 786 276 q 775 414 733 346 q 841 448 794 444 q 929 415 888 451 q 946 400 935 411 q 950 411 949 408 q 889 718 1004 597 q 706 792 821 789 q 521 735 592 796 q 444 442 401 635 q 532 312 461 365 q 694 254 603 258 z "},"Ｒ":{"ha":1389,"x_min":293,"x_max":1114,"o":"m 938 424 q 1065 151 1046 210 q 1061 65 1081 103 q 1006 8 1042 26 q 929 5 976 -10 q 861 67 882 19 q 711 394 836 126 q 521 393 658 393 q 519 90 525 142 q 482 19 514 46 q 410 -8 450 -8 q 338 17 369 -8 q 299 85 306 42 q 294 231 296 106 q 294 492 293 357 q 296 763 294 626 q 297 913 297 900 q 407 1039 297 1026 q 856 1029 500 1049 q 1039 935 961 1024 q 1114 728 1117 846 q 1064 548 1111 636 q 938 424 1017 460 m 532 633 q 538 610 532 618 q 551 601 544 603 q 574 600 558 600 q 792 603 751 600 q 868 637 839 606 q 901 722 897 668 q 878 797 904 760 q 815 839 853 835 q 688 838 801 840 q 574 844 575 836 q 535 797 535 844 q 533 751 535 790 q 531 685 532 713 q 532 633 531 657 z "},"Ｓ":{"ha":1389,"x_min":343,"x_max":1036,"o":"m 1036 881 q 1026 808 1047 842 q 974 768 1007 776 q 932 763 943 763 q 846 792 894 763 q 711 828 789 828 q 688 825 701 828 q 635 791 656 818 q 619 731 615 764 q 754 600 626 667 q 881 510 818 567 q 972 394 943 453 q 990 207 1015 306 q 885 51 965 108 q 643 -10 796 -10 q 571 -7 621 -10 q 464 22 526 -3 q 382 68 401 46 q 343 146 349 104 q 361 221 338 188 q 458 274 401 274 q 524 258 493 274 q 667 229 594 229 q 721 239 701 229 q 757 293 753 257 q 736 356 763 326 q 635 425 717 376 q 454 558 503 504 q 397 666 414 606 q 385 779 381 726 q 407 882 389 832 q 526 1023 442 978 q 704 1068 610 1068 q 799 1057 751 1068 q 963 979 903 1029 q 1036 881 1024 929 z "},"Ｔ":{"ha":1389,"x_min":225,"x_max":1147,"o":"m 1051 1061 q 1122 1024 1097 1057 q 1147 956 1147 992 q 1118 888 1147 919 q 1042 858 1089 857 q 808 857 1018 860 q 807 472 807 801 q 806 113 807 143 q 782 19 803 50 q 701 -14 761 -11 q 619 24 647 -18 q 589 128 592 67 q 586 469 586 201 q 590 854 586 738 q 353 851 386 850 q 264 874 294 854 q 225 949 233 893 q 260 1033 218 1003 q 358 1067 301 1064 q 709 1068 411 1069 q 1051 1061 1007 1067 z "},"Ｕ":{"ha":1389,"x_min":260,"x_max":1126,"o":"m 1017 1029 q 1097 990 1068 1029 q 1126 881 1126 950 q 1115 335 1126 472 q 997 108 1104 207 q 719 7 889 8 l 714 7 q 401 108 517 7 q 274 390 285 208 q 260 879 260 585 q 293 989 260 949 q 385 1029 326 1029 l 390 1029 q 506 876 506 1025 q 503 796 506 865 q 519 394 492 467 q 585 286 546 324 q 704 249 624 249 l 710 249 q 838 287 794 250 q 892 404 881 324 q 894 800 901 475 q 893 894 893 842 q 928 992 893 954 q 1017 1029 963 1029 z "},"Ｖ":{"ha":1389,"x_min":211,"x_max":1189,"o":"m 1133 1000 q 1188 923 1178 972 q 1181 839 1199 874 q 1001 473 1169 806 q 800 88 833 140 q 676 21 758 21 q 546 94 593 21 q 365 472 488 189 q 211 840 243 754 q 260 1010 168 958 q 306 1022 281 1022 q 433 926 379 1022 q 554 663 457 885 q 686 358 651 440 q 764 518 700 385 q 894 788 828 651 q 965 938 960 925 q 1014 992 982 968 q 1081 1015 1046 1015 q 1133 1000 1107 1015 z "},"Ｗ":{"ha":1389,"x_min":138,"x_max":1251,"o":"m 138 867 q 213 1013 122 982 q 307 994 267 1031 q 365 904 347 958 l 503 438 q 515 463 506 436 q 535 530 524 489 q 557 613 546 571 q 579 692 568 656 q 597 740 590 729 q 694 800 629 799 q 796 735 760 801 q 843 614 817 694 q 886 472 869 533 l 901 411 q 931 488 908 408 q 985 688 947 540 q 1050 924 1035 878 q 1115 997 1068 981 q 1203 992 1163 1014 q 1249 938 1235 978 q 1251 861 1264 897 q 1196 666 1251 860 q 1083 289 1140 472 q 1004 67 1026 106 q 894 10 963 6 q 800 60 826 14 q 758 158 783 88 q 714 286 732 229 l 697 343 q 683 279 703 343 q 637 144 664 215 q 594 56 610 72 q 494 17 554 8 q 401 88 433 25 q 256 485 368 151 q 138 867 144 819 z "},"Ｘ":{"ha":1389,"x_min":254,"x_max":1156,"o":"m 851 521 q 1096 211 1075 242 q 1131 150 1121 175 q 1133 95 1140 125 q 1093 36 1125 65 q 1028 10 1064 7 q 962 31 992 13 q 904 79 932 49 q 696 338 839 157 q 467 74 485 90 q 413 28 436 42 q 358 16 389 14 q 292 46 326 18 q 254 108 260 71 q 263 178 249 144 q 303 243 276 211 q 346 295 313 256 q 438 405 379 335 q 543 529 497 475 q 303 843 325 807 q 287 937 276 896 q 329 1003 297 978 q 406 1026 354 1029 q 492 979 458 1022 q 700 713 500 965 q 954 1001 925 975 q 1045 1033 1001 1036 q 1119 1003 1089 1031 q 1156 928 1151 975 q 1122 835 1160 882 q 851 521 1090 801 z "},"Ｙ":{"ha":1389,"x_min":233,"x_max":1151,"o":"m 233 856 q 247 1014 174 961 q 338 1033 290 1043 q 422 982 386 1024 l 696 678 q 761 749 700 674 q 892 909 822 824 q 978 1007 961 994 q 1050 1035 1011 1033 q 1124 1007 1089 1038 q 1151 923 1154 971 q 1121 835 1147 875 q 1014 690 1092 790 q 872 513 936 590 l 808 435 q 817 406 815 433 q 818 335 819 378 q 815 249 817 292 q 810 165 813 207 q 807 108 807 124 q 772 28 806 61 q 692 -6 738 -6 q 605 33 638 -4 q 569 129 572 69 l 568 450 q 491 538 571 443 q 326 736 411 632 q 233 856 242 840 z "},"Ｚ":{"ha":1389,"x_min":311,"x_max":1108,"o":"m 456 788 q 355 816 397 788 q 311 893 313 844 q 346 982 308 947 q 456 1018 383 1017 q 893 1017 608 1022 q 1029 926 1000 1013 q 1034 894 1035 911 q 1031 863 1033 876 q 1019 825 1029 849 q 1004 790 1010 801 q 983 747 999 778 q 880 592 971 722 q 706 343 789 461 l 621 225 q 997 221 626 210 q 1076 193 1047 222 q 1108 119 1106 164 q 1086 45 1111 75 q 1006 10 1061 15 q 721 6 953 6 q 449 7 489 6 q 353 44 392 10 q 315 138 315 79 q 335 213 315 174 q 394 303 356 251 q 442 369 432 354 q 544 518 468 413 q 682 708 619 624 l 744 792 q 690 783 749 783 q 545 785 631 782 q 456 788 460 788 z "},"ａ":{"ha":1389,"x_min":336,"x_max":1056,"o":"m 843 63 q 814 44 833 56 q 735 17 794 33 q 615 6 676 0 q 422 85 503 15 q 336 279 342 156 q 535 638 325 536 q 796 653 663 692 q 986 525 929 615 q 1038 397 1022 469 q 1055 278 1054 325 q 1050 166 1056 232 q 1044 96 1044 100 q 1012 15 1043 43 q 931 -12 981 -12 q 881 6 903 -12 q 850 44 858 25 l 843 63 m 817 286 q 829 352 829 318 q 801 419 829 386 q 722 467 774 453 q 604 449 647 486 q 546 349 561 413 q 570 246 533 293 q 675 199 607 199 q 759 223 721 199 q 817 286 797 247 z "},"ｂ":{"ha":1389,"x_min":368,"x_max":1069,"o":"m 369 907 q 408 1000 368 968 q 499 1026 449 1032 q 575 982 543 1021 q 607 900 607 943 l 611 683 q 662 683 613 683 q 763 677 711 682 q 878 645 814 672 q 982 571 943 618 q 1069 344 1064 471 q 1008 131 1075 218 q 837 23 951 50 q 604 0 722 -4 q 460 14 492 3 q 376 140 385 39 q 369 543 368 182 q 369 907 369 904 m 590 254 q 659 205 592 213 q 771 225 726 197 q 831 302 817 250 q 819 399 844 354 q 788 439 807 424 q 744 460 769 454 q 703 467 719 465 q 661 468 688 468 q 604 451 622 468 q 586 393 586 433 q 590 254 586 307 z "},"ｃ":{"ha":1389,"x_min":343,"x_max":986,"o":"m 865 10 q 593 17 751 -24 q 422 128 492 40 q 343 336 351 215 q 403 570 336 467 q 600 708 469 674 q 735 725 669 729 q 844 707 800 721 q 918 674 888 693 q 971 531 1001 619 q 919 465 956 483 q 839 463 883 447 q 742 483 789 481 q 653 463 696 486 q 600 385 611 439 q 621 289 589 328 q 735 240 653 250 q 827 244 765 238 q 910 244 889 250 q 962 213 938 239 q 986 133 986 186 q 865 10 986 44 z "},"ｄ":{"ha":1389,"x_min":311,"x_max":1011,"o":"m 1007 144 q 968 48 1001 81 q 906 10 935 15 q 804 3 876 4 q 781 1 789 1 q 548 22 664 -4 q 375 128 432 49 q 311 341 307 215 q 397 568 315 467 q 478 633 429 607 q 576 669 528 660 q 669 682 625 678 q 739 685 713 686 l 767 683 q 769 692 768 683 q 769 717 769 700 q 769 751 769 733 q 769 793 769 768 q 769 834 769 818 q 767 873 768 850 q 767 901 767 896 q 799 983 767 943 q 875 1029 831 1024 q 966 1003 925 1035 q 1006 911 1007 971 q 1010 547 1006 893 q 1007 144 1015 200 m 794 394 q 776 451 794 433 q 719 468 758 468 q 676 467 693 468 q 635 459 660 465 q 592 438 611 453 q 560 397 574 422 q 551 301 536 353 q 611 224 565 249 q 723 206 656 197 q 792 256 790 214 q 794 394 794 308 z "},"ｅ":{"ha":1389,"x_min":396,"x_max":986,"o":"m 396 385 q 422 523 396 454 q 507 644 449 592 q 642 706 565 697 q 961 563 869 731 q 985 413 1003 485 q 901 299 968 342 q 806 269 869 278 q 697 264 743 261 l 650 265 q 663 249 651 264 q 690 223 674 233 q 746 206 706 213 q 846 215 786 199 q 938 180 899 228 q 947 78 978 132 q 853 10 924 35 q 664 7 782 -14 q 396 385 396 54 m 794 479 q 750 528 786 514 q 674 528 714 543 q 642 432 603 463 q 702 420 665 421 q 770 437 739 419 q 794 479 801 454 z "},"ｆ":{"ha":1389,"x_min":325,"x_max":1051,"o":"m 986 982 q 1051 808 1099 906 q 994 754 1032 769 q 931 753 956 739 q 874 767 910 768 q 821 740 839 767 q 793 686 804 721 q 897 682 871 683 q 972 635 944 678 q 1003 546 1000 593 q 968 465 1006 497 q 874 432 931 433 q 778 428 840 431 q 771 108 771 118 q 739 34 771 67 q 669 -1 707 1 q 599 24 632 -4 q 560 99 565 51 q 557 424 554 143 q 532 425 539 424 q 457 431 485 428 q 397 444 429 435 q 348 471 365 453 q 325 517 331 489 q 342 631 311 583 q 447 685 374 679 q 561 689 457 686 q 592 842 561 782 q 681 951 622 903 q 828 1009 735 997 q 986 982 922 1021 z "},"ｇ":{"ha":1389,"x_min":375,"x_max":1033,"o":"m 813 154 q 772 151 810 154 q 713 147 733 149 q 653 148 693 146 q 585 156 613 150 q 523 177 557 163 q 464 214 489 192 q 376 385 397 271 q 390 576 354 500 q 546 735 439 686 q 774 751 653 783 q 1024 417 983 697 q 1033 239 1033 329 q 1009 56 1033 149 q 940 -96 985 -37 q 813 -193 890 -160 q 642 -221 736 -226 q 492 -177 554 -215 q 417 -87 431 -139 q 435 1 406 -43 q 514 39 464 44 q 591 22 538 36 q 675 14 644 8 q 813 154 824 39 m 799 410 q 763 532 821 468 q 683 560 738 560 q 596 521 628 561 q 590 426 568 478 q 654 367 611 374 q 799 410 775 349 z "},"ｈ":{"ha":1389,"x_min":356,"x_max":1029,"o":"m 357 893 q 382 1004 364 979 q 457 1036 404 1036 q 551 992 521 1036 q 581 893 581 949 l 592 636 l 606 640 q 643 648 618 644 q 700 652 668 651 q 776 643 732 653 q 865 613 821 633 q 1029 324 1011 546 q 1028 86 1042 164 q 999 26 1022 53 q 928 0 975 0 q 849 29 876 0 q 817 96 821 58 q 813 207 814 119 q 811 313 813 294 q 773 394 808 365 q 697 423 738 424 q 622 392 656 422 q 585 308 588 361 q 585 216 585 301 q 582 126 585 131 q 544 32 571 60 q 469 0 518 4 q 393 25 417 -4 q 364 121 369 54 q 356 517 358 171 q 357 893 354 864 z "},"ｉ":{"ha":1389,"x_min":565,"x_max":832,"o":"m 707 663 q 600 703 642 658 q 565 811 558 749 q 641 915 575 886 q 750 921 707 944 q 832 786 832 879 q 800 703 832 739 q 707 663 768 668 m 572 143 q 571 463 558 293 q 614 573 575 538 q 703 611 653 608 q 788 567 756 611 q 819 438 819 524 q 820 346 819 407 q 821 249 821 285 q 819 170 821 213 q 813 101 818 128 q 685 -12 788 -21 q 637 1 657 -10 q 606 24 617 11 q 588 60 596 36 q 578 99 581 83 q 572 143 575 114 z "},"ｊ":{"ha":1389,"x_min":236,"x_max":871,"o":"m 717 658 q 632 701 669 663 q 594 783 594 739 q 633 885 594 836 q 736 929 672 935 q 838 877 801 924 q 871 785 874 831 q 823 696 867 739 q 717 658 779 653 m 608 439 q 641 558 606 511 q 739 604 676 604 q 818 564 797 604 q 843 443 839 524 q 828 67 849 319 q 744 -106 819 -37 q 579 -190 668 -175 q 406 -184 488 -206 q 272 -111 324 -162 q 237 -27 242 -81 q 265 69 232 26 q 335 101 292 100 q 414 79 379 103 q 490 55 447 58 q 558 64 533 51 q 597 101 583 75 q 615 173 611 128 q 617 253 618 218 q 613 350 617 288 q 608 439 610 413 z "},"ｋ":{"ha":1389,"x_min":429,"x_max":1017,"o":"m 801 383 q 990 185 957 225 q 1012 106 1014 153 q 990 38 1010 60 q 952 12 978 22 q 888 4 926 1 q 819 35 850 7 q 650 201 797 54 q 649 104 650 115 q 617 29 646 61 q 536 -8 588 -3 q 459 22 485 -12 q 436 111 433 56 q 435 323 438 142 q 431 691 433 504 q 429 894 429 878 q 521 1022 429 1022 q 613 986 578 1022 q 649 900 649 950 q 649 842 649 893 q 650 716 650 792 q 650 569 650 640 q 843 718 799 688 q 934 738 883 746 q 1004 692 985 729 q 1016 609 1025 656 q 971 533 1007 563 q 906 479 949 517 q 833 413 864 442 l 801 383 z "},"ｌ":{"ha":1389,"x_min":576,"x_max":814,"o":"m 807 147 q 804 98 806 113 q 797 60 803 83 q 781 28 792 38 q 751 10 771 19 q 703 0 732 1 q 611 44 640 -4 q 579 164 582 92 q 577 532 575 233 q 586 888 579 831 q 629 975 593 944 q 710 1006 665 1006 q 783 970 751 1006 q 814 875 815 935 q 810 508 813 832 q 807 147 808 183 z "},"ｍ":{"ha":1389,"x_min":243,"x_max":1167,"o":"m 243 582 q 271 674 243 639 q 343 710 299 710 q 415 694 389 710 q 460 636 442 679 q 481 653 467 643 q 535 679 494 663 q 617 694 576 696 q 700 673 663 692 q 753 636 738 654 l 768 618 q 800 628 772 611 q 875 665 828 644 q 963 682 922 686 q 1096 617 1038 675 q 1167 463 1154 558 q 1163 69 1185 331 q 1133 11 1160 33 q 1067 -11 1107 -11 q 976 76 990 -11 q 974 231 971 104 q 972 382 976 357 q 896 444 960 444 q 853 431 868 444 q 828 382 838 418 q 819 221 821 353 q 815 79 817 89 q 783 19 813 42 q 713 -3 754 -3 q 624 74 644 -3 q 613 234 615 100 q 608 381 610 368 q 546 461 601 456 q 465 394 481 467 q 459 224 461 374 q 451 53 457 74 q 419 3 446 22 q 358 -15 392 -15 q 285 8 319 -15 q 249 79 251 32 q 243 582 243 188 z "},"ｎ":{"ha":1389,"x_min":336,"x_max":1026,"o":"m 339 593 q 372 678 344 649 q 442 711 400 708 q 515 686 478 713 q 556 632 553 660 q 564 639 558 635 q 589 656 569 643 q 631 672 608 668 q 693 680 654 676 q 775 671 732 683 q 941 579 882 649 q 1018 392 1000 510 q 1026 79 1040 242 q 1001 15 1024 42 q 940 -14 978 -11 q 833 79 843 -19 q 829 221 831 122 q 824 358 828 319 q 787 443 818 419 q 697 467 756 467 q 593 435 632 467 q 556 328 554 404 q 554 78 557 207 q 456 -14 550 -10 q 349 86 367 -21 q 337 335 340 142 q 339 593 333 528 z "},"ｏ":{"ha":1389,"x_min":347,"x_max":1044,"o":"m 693 -7 q 483 62 579 -7 q 356 264 386 131 q 348 351 344 304 q 361 447 351 399 q 399 539 371 494 q 464 617 426 583 q 559 671 501 651 q 688 690 617 690 q 836 663 771 689 q 941 598 901 638 q 1006 506 981 558 q 1039 406 1031 454 q 1044 308 1047 357 q 943 85 1036 176 q 693 -7 850 -7 m 832 307 q 838 358 836 331 q 819 419 839 386 q 758 472 799 453 q 631 470 690 506 q 560 386 572 435 q 573 282 547 333 q 665 218 599 231 q 776 233 731 204 q 832 307 821 261 z "},"ｐ":{"ha":1389,"x_min":385,"x_max":1043,"o":"m 385 576 q 391 616 386 599 q 400 647 396 633 q 415 672 404 661 q 431 689 426 682 q 453 701 436 696 q 475 708 469 706 q 503 713 481 711 q 531 716 525 715 q 564 717 536 717 q 597 718 592 718 q 983 586 885 725 q 1043 369 1049 499 q 956 139 1038 239 q 876 74 924 100 q 782 40 828 49 q 695 27 736 31 q 629 25 654 24 l 604 28 q 611 -3 611 17 q 608 -55 611 -22 q 606 -107 606 -87 q 578 -188 606 -150 q 507 -232 550 -226 q 425 -206 458 -237 q 393 -114 392 -175 q 386 205 394 -83 q 385 576 378 493 m 579 325 q 597 268 579 286 q 653 250 614 250 q 712 252 690 250 q 765 271 733 254 q 813 319 796 288 q 824 416 838 364 q 764 493 810 468 q 652 512 719 519 q 582 463 585 504 q 579 325 579 411 z "},"ｑ":{"ha":1389,"x_min":326,"x_max":983,"o":"m 975 -114 q 944 -206 978 -175 q 863 -232 911 -237 q 791 -188 819 -226 q 763 -107 763 -150 l 765 28 q 702 16 756 21 q 557 44 649 11 q 414 139 465 76 q 326 369 332 239 q 386 586 321 499 q 772 718 485 725 q 904 706 878 714 q 983 576 974 681 q 983 199 992 490 q 975 -114 975 -93 m 788 463 q 717 512 785 504 q 606 493 650 519 q 546 416 560 468 q 557 319 532 364 q 588 279 569 294 q 632 258 607 264 q 673 251 657 253 q 715 250 689 250 q 773 268 756 250 q 790 325 790 286 q 788 463 790 411 z "},"ｒ":{"ha":1389,"x_min":422,"x_max":1024,"o":"m 422 579 q 518 735 414 735 q 602 704 572 735 q 632 622 632 674 l 632 551 q 663 566 640 546 q 728 617 686 586 q 811 663 769 649 q 948 672 885 688 q 1024 599 1011 657 q 1007 508 1038 540 q 892 453 976 476 q 667 242 713 403 q 653 153 660 217 q 631 55 646 90 q 579 10 615 19 q 531 1 551 3 q 495 5 510 -1 q 472 16 481 11 q 458 38 464 21 q 449 62 451 56 q 444 92 447 68 q 440 119 442 115 q 429 352 433 158 q 422 579 425 546 z "},"ｓ":{"ha":1389,"x_min":417,"x_max":956,"o":"m 475 604 q 535 709 494 671 q 617 759 576 747 q 715 774 658 771 q 871 750 806 776 q 956 679 936 724 q 951 588 975 635 q 869 540 928 542 q 805 551 844 540 q 739 563 765 563 q 693 540 713 563 q 683 513 683 524 q 696 490 682 503 q 724 470 710 478 q 758 451 738 463 q 789 429 778 439 q 820 402 807 414 q 852 371 833 390 q 883 333 871 351 q 908 290 896 315 q 925 242 919 265 q 931 188 931 218 q 922 128 931 158 q 836 -5 896 35 q 667 -42 776 -44 q 428 49 494 -40 q 417 93 414 64 q 430 151 419 122 q 471 196 440 179 q 542 204 501 213 q 587 194 553 201 q 635 183 621 186 q 672 178 650 181 q 706 182 694 176 q 721 199 717 188 q 708 247 732 225 q 635 296 683 269 q 568 340 588 322 q 475 604 433 463 z "},"ｔ":{"ha":1389,"x_min":369,"x_max":1010,"o":"m 897 707 q 983 659 956 700 q 1010 576 1011 618 q 969 502 1008 531 q 867 474 931 474 l 794 474 l 794 132 q 696 -4 794 -4 q 619 29 642 -4 q 589 136 597 63 q 585 474 582 222 q 369 572 369 467 q 437 676 369 642 q 597 713 504 710 q 622 847 600 808 q 707 886 643 886 q 759 872 739 886 q 787 826 779 857 q 796 774 794 796 q 797 711 797 751 q 847 710 806 711 q 897 707 889 708 z "},"ｕ":{"ha":1389,"x_min":346,"x_max":1026,"o":"m 349 550 q 369 672 343 635 q 454 711 394 708 q 538 673 508 715 q 571 575 567 631 q 572 519 571 564 q 574 433 572 474 q 578 347 575 393 q 590 271 581 301 q 611 233 599 240 q 670 216 635 219 q 741 226 706 213 q 790 269 776 239 q 809 374 804 299 q 812 512 814 450 q 813 615 810 574 q 931 704 819 713 q 1002 660 982 701 q 1026 519 1022 618 q 1011 238 1033 335 q 806 10 965 42 q 507 29 618 -29 q 367 235 396 88 q 347 384 350 322 q 347 489 343 446 q 349 550 350 532 z "},"ｖ":{"ha":1389,"x_min":251,"x_max":1125,"o":"m 268 526 q 252 628 243 586 q 308 699 261 671 q 404 701 361 725 q 481 617 447 678 l 679 265 q 697 281 683 264 q 729 326 710 297 q 771 390 749 354 q 817 463 793 425 q 860 534 840 501 q 897 593 881 567 q 919 629 913 619 q 1085 688 997 743 q 1125 525 1168 636 q 1060 415 1118 506 q 931 219 1001 325 q 844 86 861 114 q 685 -3 789 -1 q 517 93 582 -6 q 268 526 293 454 z "},"ｗ":{"ha":1389,"x_min":242,"x_max":1154,"o":"m 1151 650 q 1154 571 1169 608 q 1150 560 1153 568 q 1142 537 1147 553 q 1133 508 1138 521 q 958 49 996 103 q 921 7 939 19 q 869 -6 903 -6 q 822 6 838 -6 q 789 43 806 17 q 763 102 782 53 q 726 194 744 151 q 701 240 708 238 q 608 36 626 53 q 594 21 603 31 q 581 8 585 11 q 567 2 576 6 q 546 -1 558 -1 q 492 14 513 -1 q 451 64 472 29 q 335 328 424 111 q 242 582 247 544 q 303 718 222 694 q 339 724 328 724 q 419 694 385 724 q 468 624 453 664 q 547 399 478 600 q 606 549 593 528 q 700 606 642 606 q 794 544 758 606 q 861 382 821 499 q 951 638 928 579 q 1064 713 981 713 q 1103 703 1078 713 q 1151 650 1129 693 z "},"ｘ":{"ha":1389,"x_min":350,"x_max":1058,"o":"m 1010 208 q 1024 190 1011 207 q 1041 164 1036 172 q 1053 138 1046 156 q 1058 106 1060 119 q 1046 73 1056 92 q 1015 36 1036 54 q 943 7 983 7 q 822 75 879 7 q 699 210 775 131 q 553 57 578 82 q 457 6 501 6 q 390 28 421 6 q 350 97 357 56 q 394 215 344 158 q 539 372 413 239 q 389 538 403 513 q 365 628 361 586 q 404 697 369 671 q 478 721 435 721 q 576 669 540 721 q 699 539 592 647 q 835 676 822 665 q 917 706 871 707 q 996 676 964 706 q 1025 601 1025 649 q 993 517 1028 553 q 858 376 989 513 q 1010 208 992 235 z "},"ｙ":{"ha":1389,"x_min":322,"x_max":1103,"o":"m 351 506 q 323 615 319 569 q 372 690 326 660 q 471 701 421 721 q 561 621 521 681 l 706 401 q 751 444 714 394 q 836 561 789 493 q 901 647 883 629 q 945 680 921 667 q 1004 690 969 693 q 1068 657 1039 688 q 1102 590 1099 625 q 1091 524 1106 554 q 1043 449 1076 493 q 615 -104 676 -53 q 561 -147 578 -135 q 510 -158 544 -158 q 438 -128 475 -158 q 468 81 365 -72 q 513 140 490 113 q 549 178 536 167 l 561 188 q 547 215 567 185 q 478 317 532 239 q 351 506 367 474 z "},"ｚ":{"ha":1389,"x_min":372,"x_max":1036,"o":"m 488 497 q 372 581 376 504 q 403 664 369 628 q 500 701 438 700 q 885 704 596 704 q 971 648 935 704 q 969 539 1007 592 q 890 440 958 524 q 758 282 821 357 l 694 207 q 755 198 697 200 q 867 197 813 196 q 950 197 922 199 q 1011 165 983 194 q 1036 92 1039 136 q 999 18 1032 44 q 915 -8 967 -8 q 797 -14 888 -14 q 602 -11 706 -14 q 492 -8 499 -8 q 426 20 457 -8 q 385 78 394 49 q 394 151 375 114 q 454 235 413 188 l 693 501 q 690 497 694 499 q 676 495 685 496 q 655 494 667 494 q 628 493 643 493 q 599 494 614 493 q 567 494 583 494 q 537 495 550 494 q 510 497 524 496 q 488 497 496 497 z "},"ぁ":{"ha":1389,"x_min":378,"x_max":1042,"o":"m 964 375 q 1025 270 1006 331 q 1042 158 1044 210 q 1021 69 1039 106 q 924 -11 982 -11 q 896 -6 907 -11 q 864 25 869 6 q 879 101 853 58 q 878 250 925 183 q 779 97 831 172 q 753 -6 796 19 q 722 -14 740 -14 q 656 17 682 -14 q 483 10 568 -19 q 394 101 426 29 q 378 249 363 172 q 438 364 389 306 q 556 449 488 422 l 556 460 q 556 473 556 464 q 556 490 556 482 q 556 503 556 497 l 515 504 q 422 571 432 504 q 439 626 418 603 q 522 658 469 661 q 544 658 528 658 q 572 657 560 657 q 574 670 574 664 q 576 682 575 676 q 578 690 578 688 q 603 742 583 724 q 649 760 622 760 q 672 757 664 760 q 712 730 704 747 q 719 683 719 713 q 719 673 719 682 q 718 656 718 664 q 775 654 743 654 q 831 631 807 654 q 847 581 851 607 q 776 506 840 510 q 707 503 751 503 q 706 494 707 499 q 705 488 706 490 q 704 485 704 486 q 703 469 703 481 l 708 469 q 852 450 793 469 q 964 375 911 431 m 764 313 q 724 318 747 318 q 706 317 713 318 q 719 225 713 257 q 763 310 742 258 l 764 313 m 603 140 q 574 281 588 197 q 531 182 518 247 q 588 139 540 139 q 603 140 599 139 z "},"あ":{"ha":1389,"x_min":211,"x_max":1199,"o":"m 1085 539 q 1176 379 1149 472 q 1199 211 1204 286 q 1169 85 1193 136 q 1088 -15 1136 15 q 992 -24 1040 -44 q 972 125 908 10 q 1006 224 1001 176 q 1001 296 1011 271 q 976 346 992 321 q 961 372 961 371 q 800 124 807 132 q 767 -25 826 13 q 691 -30 733 -43 q 628 14 649 -17 q 365 -1 496 -44 q 235 133 281 28 q 211 351 189 239 q 306 526 229 439 q 483 650 382 614 q 482 690 483 651 q 482 750 481 729 q 438 751 458 750 q 411 751 417 751 q 318 772 350 751 q 279 843 286 792 q 316 933 272 896 q 421 965 360 969 q 507 963 426 965 q 517 1022 511 1003 q 563 1105 526 1079 q 646 1115 599 1131 q 691 1090 676 1107 q 708 1058 706 1072 q 710 1014 710 1043 q 707 960 710 1010 l 806 960 q 878 928 847 960 q 906 858 908 897 q 807 753 897 760 q 692 750 763 750 q 688 721 690 732 q 685 703 686 710 q 685 679 685 696 q 911 652 819 681 q 1085 539 1003 624 m 424 250 q 471 185 433 203 q 557 179 508 168 q 506 418 531 276 q 424 250 401 361 m 799 449 q 782 464 803 458 q 689 467 750 472 q 714 292 700 365 q 799 449 756 346 z "},"ぃ":{"ha":1389,"x_min":328,"x_max":1056,"o":"m 639 257 q 692 229 678 249 q 706 166 710 204 q 672 106 701 128 q 608 82 642 82 q 531 97 586 82 q 400 194 463 117 q 328 388 338 271 q 336 486 324 453 q 393 533 349 519 q 415 538 406 538 q 472 510 447 538 q 503 439 496 483 q 593 271 524 311 q 639 257 608 263 m 1000 517 q 1056 344 1078 414 q 1004 296 1044 308 q 976 292 989 292 q 940 304 957 292 q 915 330 924 317 q 889 372 907 343 q 838 451 867 414 q 804 540 797 503 q 832 583 807 567 q 875 597 851 597 q 1000 517 932 597 z "},"い":{"ha":1389,"x_min":185,"x_max":1232,"o":"m 185 557 q 195 692 178 646 q 274 758 213 739 q 366 738 324 775 q 421 629 408 701 q 557 376 451 438 q 631 352 581 363 q 697 318 681 342 q 717 235 722 288 q 672 150 711 182 q 585 119 635 119 q 474 140 536 119 q 391 183 435 153 q 302 261 347 213 q 224 388 257 310 q 185 557 192 465 m 926 656 q 918 833 835 775 q 998 849 954 861 q 1079 808 1042 838 q 1149 738 1117 779 q 1217 622 1192 681 q 1231 506 1242 563 q 1160 431 1221 450 q 1088 434 1119 418 q 1040 478 1057 450 q 990 561 1022 506 q 926 656 957 617 z "},"ぅ":{"ha":1389,"x_min":410,"x_max":917,"o":"m 592 588 q 518 688 500 619 q 547 728 525 713 q 601 743 569 743 q 626 740 610 743 q 715 715 661 733 q 792 683 768 697 q 833 606 844 649 q 806 565 826 581 q 758 550 786 550 q 738 553 751 550 q 592 588 633 574 m 917 397 q 865 107 974 249 q 675 -18 792 11 q 656 -19 668 -19 q 588 15 611 -19 q 579 86 565 49 q 658 161 590 117 q 743 229 719 200 q 756 321 779 272 q 653 365 729 379 q 581 343 638 363 q 478 318 504 314 q 411 357 431 325 q 410 419 396 386 q 489 494 425 463 q 632 531 553 526 l 664 531 q 917 397 865 531 z "},"う":{"ha":1389,"x_min":281,"x_max":1043,"o":"m 549 872 q 454 931 476 897 q 443 1010 432 964 q 497 1072 454 1051 q 594 1082 540 1093 q 729 1043 651 1069 q 839 997 807 1017 q 897 893 911 950 q 850 831 886 851 q 764 819 814 810 q 549 872 607 853 m 1021 574 q 1042 364 1061 475 q 944 151 1024 253 q 817 34 892 82 q 667 -32 743 -14 q 558 0 603 -47 q 536 110 513 47 q 592 176 550 144 q 690 244 635 207 q 779 319 746 281 q 809 395 806 353 q 796 474 813 438 q 735 531 779 510 q 633 542 692 551 q 509 501 610 538 q 375 469 408 464 q 288 517 315 479 q 281 608 261 554 q 397 715 304 669 q 606 767 489 761 q 728 763 671 769 q 846 738 786 757 q 951 676 906 718 q 1021 574 997 635 z "},"ぇ":{"ha":1389,"x_min":392,"x_max":1024,"o":"m 640 607 q 597 651 610 621 q 596 710 585 681 q 669 757 615 757 q 697 753 685 757 q 835 683 750 739 q 864 641 857 668 q 861 594 871 614 q 790 553 843 553 q 774 554 779 553 q 660 597 743 558 q 651 601 657 599 q 640 607 643 606 m 953 143 q 1015 115 1001 136 q 1024 57 1028 94 q 926 -14 1019 -11 q 918 -15 924 -15 q 817 3 872 -15 q 736 44 763 21 q 663 133 683 92 q 556 28 590 61 q 474 -12 513 -12 q 432 0 450 -12 q 394 50 400 21 q 424 129 389 86 q 671 382 469 189 q 485 379 522 378 q 392 449 406 383 q 406 511 385 486 q 493 546 432 544 q 546 547 507 547 q 822 540 753 547 q 886 508 863 539 q 906 444 910 475 q 872 380 903 421 q 822 322 840 339 q 803 285 810 313 q 810 224 796 258 q 953 143 849 160 z "},"え":{"ha":1389,"x_min":256,"x_max":1181,"o":"m 621 901 q 561 962 578 921 q 561 1042 544 1003 q 619 1100 579 1086 q 700 1101 660 1114 q 801 1057 735 1092 q 903 997 867 1022 q 942 939 933 976 q 939 878 951 901 q 818 822 910 811 q 748 842 789 826 q 667 878 707 858 q 621 901 626 899 m 1083 189 q 1167 151 1150 178 q 1181 71 1185 125 q 1142 1 1178 28 q 1044 -28 1106 -25 l 1033 -28 q 886 -2 965 -28 q 768 58 807 24 q 654 201 682 133 q 483 33 522 69 q 367 -24 424 -24 q 311 -7 339 -24 q 261 61 267 22 q 300 171 253 111 q 689 567 351 238 q 385 563 424 561 q 299 590 333 564 q 256 658 265 615 q 275 743 246 708 q 397 792 311 789 l 476 792 q 889 782 782 792 q 976 738 942 779 q 1004 650 1011 694 q 956 560 1000 619 q 882 474 913 501 q 862 440 872 464 q 847 381 851 417 q 863 313 842 344 q 1083 189 919 214 z "},"ぉ":{"ha":1389,"x_min":360,"x_max":1057,"o":"m 706 436 q 925 343 865 432 q 973 228 963 289 q 974 126 983 167 q 949 56 965 86 q 864 -7 911 -7 q 832 -1 847 -7 q 804 22 813 3 q 811 119 788 53 q 778 261 846 213 q 719 278 756 278 l 707 278 q 706 222 707 238 q 653 63 700 119 q 526 6 607 6 l 515 6 q 389 69 433 10 q 360 236 338 135 q 392 318 371 283 q 442 372 413 353 q 490 399 472 392 q 533 414 507 406 q 553 421 550 419 q 551 496 554 433 l 539 496 l 499 496 q 399 567 408 496 q 414 621 394 597 q 506 653 446 657 q 524 652 510 653 q 549 651 539 651 q 614 754 549 754 q 700 649 697 754 l 776 649 q 838 624 815 649 q 853 578 857 604 q 778 497 846 501 q 704 496 764 496 q 706 436 706 476 m 546 185 q 551 256 563 206 q 533 267 549 267 q 506 251 518 267 q 492 197 485 228 q 506 181 494 185 q 526 176 518 176 q 546 185 539 176 m 1003 611 q 1035 569 1021 592 q 1056 517 1050 546 q 1044 471 1063 489 q 1000 449 1026 449 q 943 478 969 449 q 925 500 938 485 q 907 522 913 515 q 893 540 900 533 q 875 606 868 574 q 901 644 879 633 q 933 654 917 654 q 1003 611 965 654 z "},"お":{"ha":1389,"x_min":207,"x_max":1228,"o":"m 706 625 q 801 620 751 626 q 924 581 851 614 q 1035 490 996 547 q 1103 326 1088 413 q 1108 178 1119 239 q 1069 72 1096 118 q 1001 -3 1038 18 q 907 -8 965 -25 q 863 59 864 4 q 883 160 861 114 q 900 231 897 194 q 886 311 903 268 q 829 383 869 354 q 707 408 782 417 q 706 317 707 342 q 625 78 697 160 q 432 3 553 -4 q 243 103 308 8 q 207 336 178 197 q 259 462 224 410 q 334 539 294 514 q 411 578 374 564 q 473 599 449 592 q 497 611 497 606 q 496 735 499 632 q 442 735 472 735 q 404 736 411 736 q 306 758 340 736 q 265 833 272 779 q 303 921 258 888 q 415 950 349 954 q 451 948 425 949 q 489 947 476 947 q 493 1004 490 983 q 504 1051 496 1025 q 531 1090 513 1078 q 578 1101 549 1101 q 697 949 694 1101 l 697 944 l 821 944 q 898 917 867 944 q 926 849 929 889 q 897 772 922 803 q 822 738 871 742 q 794 737 813 738 q 749 735 776 736 q 703 735 722 735 q 705 680 704 717 q 706 625 706 643 m 411 244 q 491 263 474 221 q 494 368 508 304 q 461 393 490 392 q 408 368 432 394 q 383 297 383 339 q 411 244 383 256 m 1151 892 q 1196 834 1176 865 q 1228 761 1215 803 q 1215 696 1240 719 q 1141 666 1176 660 q 1079 706 1106 672 q 1004 799 1054 733 q 977 881 974 840 q 1013 940 981 922 q 1053 953 1033 953 q 1090 944 1072 954 q 1121 923 1108 935 q 1151 892 1133 911 z "},"か":{"ha":1389,"x_min":154,"x_max":1306,"o":"m 792 817 q 943 431 961 714 q 890 208 936 313 q 799 46 843 103 q 724 -1 771 10 q 651 6 678 -11 q 598 77 611 25 q 603 165 585 129 q 654 264 617 199 q 708 376 692 329 q 719 474 725 424 q 685 567 713 539 q 608 607 658 596 q 421 183 444 213 q 333 122 382 133 q 249 138 285 111 q 200 206 211 163 q 213 304 189 249 q 347 610 300 485 q 271 606 297 606 q 188 631 218 606 q 154 696 158 657 q 174 793 149 746 q 256 856 199 840 q 456 871 307 871 q 497 964 481 917 q 565 1052 518 1022 q 665 1065 611 1082 q 722 1013 704 1053 q 729 919 739 974 q 706 849 725 903 q 792 817 763 835 m 1306 582 q 1290 512 1314 546 q 1235 467 1267 478 q 1166 473 1197 453 q 1093 544 1135 493 q 1028 637 1071 572 q 967 724 985 701 q 968 882 892 813 q 1125 865 1043 953 q 1232 726 1172 815 q 1306 582 1292 636 z "},"が":{"ha":1389,"x_min":154,"x_max":1336,"o":"m 792 817 q 943 431 961 714 q 890 208 936 313 q 799 46 843 103 q 724 -1 771 10 q 651 6 678 -11 q 598 77 611 25 q 603 165 585 129 q 654 264 617 199 q 708 376 692 329 q 719 474 725 424 q 685 567 713 539 q 608 607 658 596 q 421 183 444 213 q 333 122 382 133 q 249 138 285 111 q 200 206 211 163 q 213 304 189 249 q 347 610 300 485 q 271 606 297 606 q 188 631 218 606 q 154 696 158 657 q 174 793 149 746 q 256 856 199 840 q 456 871 307 871 q 497 964 481 917 q 565 1052 518 1022 q 665 1065 611 1082 q 722 1013 704 1053 q 729 919 739 974 q 706 849 725 903 q 792 817 763 835 m 1158 826 q 1306 582 1283 669 q 1290 512 1314 546 q 1235 467 1267 478 q 1166 473 1197 453 q 1093 544 1135 493 q 1028 637 1071 572 q 967 724 985 701 q 968 882 892 813 q 1036 911 997 911 q 1028 924 1033 915 q 1021 936 1024 932 q 1006 999 1004 964 q 1036 1049 1008 1035 q 1088 1047 1064 1063 q 1149 982 1113 1031 q 1167 831 1238 864 l 1158 826 m 1303 1042 q 1336 956 1335 988 q 1303 906 1338 925 q 1235 914 1265 888 q 1169 1003 1206 940 q 1154 1066 1151 1031 q 1185 1117 1157 1101 q 1303 1042 1240 1143 z "},"き":{"ha":1389,"x_min":304,"x_max":1118,"o":"m 1118 613 q 1089 544 1121 571 q 993 507 1057 517 q 974 505 992 507 q 946 501 957 503 q 977 453 967 472 q 995 406 988 433 q 992 358 1003 379 q 951 322 981 338 q 892 306 921 307 q 838 320 864 306 q 794 351 813 335 q 751 393 775 367 q 688 482 717 433 q 488 468 536 472 q 363 476 408 463 q 304 542 317 489 q 331 641 290 599 q 449 690 372 683 q 481 692 461 690 q 531 697 500 694 q 583 700 561 699 l 563 767 q 493 763 511 764 q 383 769 424 757 q 331 828 342 781 q 354 915 318 878 q 458 958 390 953 q 521 963 478 960 q 537 1055 515 1024 q 613 1096 558 1086 q 694 1076 668 1106 q 739 978 721 1047 q 915 986 860 986 q 979 956 953 986 q 1008 886 1006 925 q 983 826 1011 850 q 900 793 956 801 q 794 782 861 789 q 810 745 800 769 q 821 717 819 721 q 1011 726 979 726 q 1084 691 1054 725 q 1118 613 1114 657 m 799 136 q 843 73 839 115 q 813 -4 847 31 q 724 -39 779 -39 q 367 133 475 -36 q 324 272 318 210 q 388 354 331 333 q 428 362 407 365 q 460 355 449 358 q 488 335 472 351 q 515 308 504 319 q 543 274 525 296 q 575 239 561 253 q 697 174 611 203 q 799 136 783 144 z "},"ぎ":{"ha":1389,"x_min":304,"x_max":1244,"o":"m 799 136 q 843 73 839 115 q 813 -4 847 31 q 724 -39 779 -39 q 367 133 475 -36 q 324 272 318 210 q 388 354 331 333 q 428 362 407 365 q 460 355 449 358 q 488 335 472 351 q 515 308 504 319 q 543 274 525 296 q 575 239 561 253 q 697 174 611 203 q 799 136 783 144 m 976 1049 q 1028 1047 1004 1063 q 1089 982 1053 1031 q 1107 829 1178 864 q 1008 868 1065 810 q 900 793 1000 808 q 794 782 861 789 q 810 745 800 769 q 821 717 819 721 q 1011 726 979 726 q 1084 691 1054 725 q 1118 613 1114 657 q 1089 544 1121 571 q 993 507 1057 517 q 946 501 953 501 q 977 453 967 472 q 995 406 988 433 q 992 358 1003 379 q 951 322 981 338 q 892 306 921 307 q 838 320 864 306 q 794 351 813 335 q 751 393 775 367 q 688 482 717 433 q 488 468 536 472 q 363 476 408 463 q 304 542 317 489 q 331 641 290 599 q 449 690 372 683 q 481 692 461 690 q 531 697 500 694 q 583 700 561 699 l 563 767 q 493 763 511 764 q 383 769 424 757 q 331 828 342 781 q 354 915 318 878 q 458 958 390 953 q 521 963 478 960 q 537 1055 515 1024 q 613 1096 558 1086 q 694 1076 668 1106 q 739 978 721 1047 q 915 986 900 986 q 947 979 931 986 q 976 1049 940 1032 m 1244 1042 q 1243 906 1306 936 q 1176 914 1206 888 q 1111 1003 1146 940 q 1094 1066 1092 1031 q 1125 1117 1096 1101 q 1244 1042 1182 1144 z "},"く":{"ha":1389,"x_min":293,"x_max":964,"o":"m 363 371 q 306 446 325 404 q 293 539 286 488 q 342 635 300 590 q 538 829 401 697 q 724 1006 674 961 q 828 1053 769 1046 q 929 1018 888 1060 q 928 842 1010 924 q 817 742 906 819 q 653 597 729 664 l 575 531 q 746 381 594 515 q 926 214 897 246 q 964 124 960 176 q 938 38 968 71 q 853 -11 894 -6 q 749 19 813 -17 q 633 113 713 42 q 467 269 554 185 q 363 371 381 354 z "},"ぐ":{"ha":1389,"x_min":293,"x_max":1306,"o":"m 363 371 q 306 446 325 404 q 293 539 286 488 q 342 635 300 590 q 538 829 401 697 q 724 1006 674 961 q 828 1053 769 1046 q 929 1018 888 1060 q 928 842 1010 924 q 817 742 906 819 q 653 597 729 664 l 575 531 q 746 381 594 515 q 926 214 897 246 q 964 124 960 176 q 938 38 968 71 q 853 -11 894 -6 q 749 19 813 -17 q 633 113 713 42 q 467 269 554 185 q 363 371 381 354 m 1024 885 q 1008 948 1006 913 q 1038 997 1010 983 q 1090 995 1065 1011 q 1150 931 1114 979 q 1168 779 1239 813 q 1095 794 1136 763 q 1024 885 1054 825 m 1171 951 q 1156 1015 1153 979 q 1186 1065 1158 1050 q 1306 990 1244 1093 q 1304 854 1367 885 q 1237 863 1267 836 q 1171 951 1207 889 z "},"け":{"ha":1389,"x_min":181,"x_max":1233,"o":"m 442 825 q 447 576 436 763 q 471 332 458 390 q 460 224 482 272 q 382 167 438 175 q 291 190 325 158 q 233 293 257 222 q 201 442 217 343 q 181 662 186 542 q 199 872 176 782 q 263 978 218 949 q 353 996 308 1008 q 420 936 393 983 q 442 825 447 889 m 1164 818 q 1233 683 1247 768 q 1180 613 1228 646 q 1082 581 1132 581 l 1036 581 q 967 213 1024 361 q 864 31 925 99 q 742 -10 803 -37 q 682 163 633 39 q 710 220 688 178 q 748 299 732 263 q 782 413 764 336 q 808 581 800 489 l 693 581 q 579 613 628 581 q 531 699 531 644 q 683 843 531 821 q 800 850 722 847 q 793 890 800 856 q 819 1001 783 954 q 911 1047 854 1047 q 995 1003 964 1047 q 1035 892 1026 958 q 1039 843 1036 876 q 1164 818 1140 833 z "},"げ":{"ha":1389,"x_min":181,"x_max":1317,"o":"m 442 825 q 447 576 436 763 q 471 332 458 390 q 460 224 482 272 q 382 167 438 175 q 291 190 325 158 q 233 293 257 222 q 201 442 217 343 q 181 662 186 542 q 199 872 176 782 q 263 978 218 949 q 353 996 308 1008 q 420 936 393 983 q 442 825 447 889 m 1167 817 q 1233 683 1247 765 q 1180 613 1228 646 q 1082 581 1132 581 l 1036 581 q 967 213 1024 361 q 864 31 925 99 q 742 -10 803 -37 q 682 163 633 39 q 710 220 688 178 q 748 299 732 263 q 782 413 764 336 q 808 581 800 489 l 693 581 q 579 613 628 581 q 531 699 531 646 q 683 843 531 821 q 800 850 722 847 q 793 890 800 856 q 819 1001 783 954 q 911 1047 854 1047 q 995 1003 964 1047 q 1035 892 1026 958 q 1039 843 1036 876 q 1111 833 1092 838 q 1035 928 1067 865 q 1019 991 1017 956 q 1049 1040 1021 1026 q 1101 1038 1076 1054 q 1163 974 1125 1022 q 1181 821 1249 856 q 1167 817 1175 819 m 1317 1033 q 1315 897 1379 929 q 1249 906 1279 879 q 1183 993 1218 932 q 1167 1058 1165 1022 q 1197 1108 1169 1093 q 1317 1033 1254 1136 z "},"こ":{"ha":1389,"x_min":324,"x_max":1026,"o":"m 565 778 q 450 824 489 790 q 421 911 411 857 q 603 1018 439 1018 q 836 943 710 1018 q 1007 797 963 868 q 1026 708 1033 750 q 983 643 1019 667 q 906 621 951 618 q 824 658 860 624 q 709 730 788 693 q 565 778 631 767 m 324 264 q 360 483 236 422 q 456 490 415 507 q 543 413 497 472 q 874 272 644 282 q 952 218 925 271 q 968 114 979 165 q 888 40 956 64 q 704 31 819 17 q 481 108 588 46 q 324 264 375 171 z "},"ご":{"ha":1389,"x_min":324,"x_max":1244,"o":"m 565 778 q 450 824 489 790 q 421 911 411 857 q 603 1018 439 1018 q 836 943 710 1018 q 1007 797 963 868 q 1026 708 1033 750 q 983 643 1019 667 q 906 621 951 618 q 824 658 860 624 q 709 730 788 693 q 565 778 631 767 m 324 264 q 360 483 236 422 q 456 490 415 507 q 543 413 497 472 q 874 272 644 282 q 952 218 925 271 q 968 114 979 165 q 888 40 956 64 q 704 31 819 17 q 481 108 588 46 q 324 264 375 171 m 963 915 q 947 978 944 943 q 976 1028 949 1014 q 1028 1026 1004 1042 q 1089 961 1053 1010 q 1107 808 1178 843 q 1034 824 1075 792 q 963 915 993 856 m 1111 981 q 1094 1044 1092 1008 q 1125 1096 1096 1081 q 1187 1089 1160 1107 q 1244 1021 1214 1071 q 1243 885 1306 915 q 1176 893 1206 867 q 1111 981 1146 919 z "},"さ":{"ha":1389,"x_min":290,"x_max":1083,"o":"m 931 683 q 960 639 947 656 q 1020 560 1003 585 q 1053 503 1038 535 q 1064 450 1068 471 q 1040 407 1060 429 q 943 372 1003 363 q 824 447 883 382 q 689 625 738 544 q 494 597 578 604 q 374 609 418 592 q 318 683 329 626 q 344 790 306 744 q 453 846 382 835 q 585 869 508 854 q 568 935 574 911 q 644 1104 538 1072 q 731 1100 696 1119 q 789 1018 765 1081 q 806 975 793 1008 q 826 919 818 942 q 900 935 858 926 q 947 944 942 943 q 1035 933 996 956 q 1083 864 1074 910 q 1076 768 1097 804 q 999 708 1056 732 q 931 683 968 694 m 792 171 q 861 108 838 151 q 865 26 885 65 q 797 -40 839 -26 q 675 -43 754 -53 q 472 47 568 -28 q 319 235 375 122 q 291 396 275 319 q 375 483 307 472 q 455 463 422 490 q 522 379 488 436 q 579 299 557 322 q 651 242 610 268 q 716 204 692 215 q 792 171 740 193 z "},"ざ":{"ha":1389,"x_min":290,"x_max":1251,"o":"m 792 171 q 861 108 838 151 q 865 26 885 65 q 797 -40 839 -26 q 675 -43 754 -53 q 472 47 568 -28 q 319 235 375 122 q 291 396 275 319 q 375 483 307 472 q 455 463 422 490 q 522 379 488 436 q 579 299 557 322 q 651 242 610 268 q 716 204 692 215 q 792 171 740 193 m 983 1054 q 1035 1052 1011 1068 q 1096 988 1060 1036 q 1114 835 1185 869 q 1089 829 1104 829 q 999 708 1093 749 q 931 683 968 694 q 960 639 947 656 q 1010 574 994 594 q 1042 525 1025 554 q 1063 479 1060 496 q 1061 444 1065 463 q 1042 407 1057 425 q 943 372 1003 363 q 824 447 883 382 q 689 625 738 544 q 494 597 578 604 q 374 609 418 592 q 318 683 329 626 q 344 790 306 744 q 453 846 382 835 q 585 869 508 854 q 568 935 574 911 q 644 1104 538 1072 q 731 1100 696 1119 q 789 1018 765 1081 q 806 975 793 1008 q 826 919 818 942 q 900 935 858 926 q 947 944 942 943 q 958 946 951 944 q 967 947 964 947 q 954 1008 951 975 q 983 1054 957 1040 m 1251 1046 q 1250 911 1314 943 q 1183 919 1213 893 q 1118 1007 1153 946 q 1101 1071 1099 1035 q 1132 1121 1103 1107 q 1251 1046 1189 1150 z "},"し":{"ha":1389,"x_min":353,"x_max":1051,"o":"m 367 879 q 416 984 374 942 q 513 1017 458 1026 q 621 856 621 996 q 612 710 621 844 q 608 474 603 576 q 639 333 613 372 q 713 278 667 293 q 802 269 760 263 q 885 293 844 275 q 993 286 940 318 q 1051 193 1046 254 q 885 24 1060 82 q 736 -2 811 0 q 585 25 661 -4 q 454 115 508 54 q 376 312 401 175 q 353 594 350 449 q 367 879 356 739 z "},"じ":{"ha":1389,"x_min":353,"x_max":1164,"o":"m 367 879 q 416 984 374 942 q 513 1017 458 1026 q 621 856 621 996 q 612 710 621 844 q 608 474 603 576 q 639 333 613 372 q 713 278 667 293 q 802 269 760 263 q 885 293 844 275 q 993 286 940 318 q 1051 193 1046 254 q 885 24 1060 82 q 736 -2 811 0 q 585 25 661 -4 q 454 115 508 54 q 376 312 401 175 q 353 594 350 449 q 367 879 356 739 m 882 904 q 866 967 864 932 q 896 1017 868 1003 q 948 1015 924 1031 q 1008 950 972 999 q 1028 797 1097 833 q 954 813 996 781 q 882 904 913 844 m 1031 969 q 1015 1033 1013 997 q 1044 1085 1017 1069 q 1164 1010 1101 1113 q 1163 874 1226 906 q 1095 882 1125 856 q 1031 969 1065 908 z "},"す":{"ha":1389,"x_min":226,"x_max":1210,"o":"m 1210 822 q 1191 735 1215 764 q 1104 700 1167 707 q 901 690 1050 694 q 894 447 899 519 q 867 208 889 299 q 789 50 844 118 q 567 -53 699 -61 q 453 49 465 -46 q 458 85 450 68 q 488 119 467 103 q 521 142 508 135 q 557 163 533 150 q 606 217 640 208 q 590 214 600 215 q 550 213 579 213 q 494 218 521 213 q 434 243 467 224 q 378 294 401 263 q 331 410 336 351 q 346 514 325 469 q 404 589 367 558 q 538 645 456 631 q 653 639 621 660 q 654 683 653 657 q 394 683 443 681 q 276 708 315 688 q 226 788 238 728 q 267 894 215 850 q 396 936 319 939 q 647 933 422 936 q 644 988 644 969 q 681 1074 643 1042 q 768 1103 719 1106 q 893 992 876 1093 q 894 976 893 988 q 897 953 896 964 q 899 931 899 942 q 1082 932 1058 931 q 1169 902 1133 933 q 1210 822 1204 871 m 585 390 q 648 425 633 392 q 636 483 663 458 q 576 498 613 506 q 529 467 540 490 q 538 416 519 443 q 585 390 556 389 z "},"ず":{"ha":1389,"x_min":226,"x_max":1294,"o":"m 1188 881 q 1210 822 1206 854 q 1191 735 1215 764 q 1104 700 1167 707 q 901 690 1050 694 q 894 447 899 519 q 867 208 889 299 q 789 50 844 118 q 567 -53 699 -61 q 453 49 465 -46 q 458 85 450 68 q 488 119 467 103 q 521 142 508 135 q 557 163 533 150 q 606 217 640 208 q 590 214 600 215 q 550 213 579 213 q 494 218 521 213 q 434 243 467 224 q 378 294 401 263 q 331 410 336 351 q 346 514 325 469 q 404 589 367 558 q 538 645 456 631 q 653 639 621 660 q 654 683 653 657 q 394 683 443 681 q 276 708 315 688 q 226 788 238 728 q 267 894 215 850 q 396 936 319 939 q 647 933 422 936 q 644 988 644 969 q 681 1074 643 1042 q 768 1103 719 1106 q 893 992 876 1093 q 894 976 893 988 q 897 953 896 964 q 899 931 899 942 l 1007 931 q 998 988 994 958 q 1026 1031 1001 1018 q 1080 1028 1056 1044 q 1140 964 1104 1013 q 1188 881 1176 915 m 585 390 q 648 425 633 392 q 636 483 663 458 q 576 498 613 506 q 529 467 540 490 q 538 416 519 443 q 585 390 556 389 m 1294 1024 q 1294 888 1357 919 q 1227 896 1257 869 q 1161 983 1197 922 q 1145 1048 1143 1013 q 1175 1099 1147 1083 q 1294 1024 1232 1126 z "},"せ":{"ha":1389,"x_min":139,"x_max":1244,"o":"m 1132 854 q 1215 822 1186 847 q 1244 736 1244 797 q 1208 658 1244 689 q 1124 622 1171 626 q 1060 619 1085 619 q 1036 620 1050 619 q 1019 621 1022 621 q 1000 478 1025 529 q 963 438 989 454 q 910 422 938 422 l 907 422 q 817 500 842 424 q 804 613 804 538 l 583 613 q 578 542 579 582 q 583 437 578 503 q 617 320 588 371 q 696 254 646 269 q 846 233 761 233 q 913 236 871 233 l 1003 236 q 1083 175 1058 232 q 1071 63 1110 115 q 985 11 1042 25 q 835 -3 929 -3 q 747 -1 778 -3 q 540 59 632 0 q 401 217 449 118 q 360 369 374 274 q 349 528 347 465 q 351 625 351 590 q 208 638 226 632 q 139 744 142 661 q 163 816 136 785 q 236 858 190 847 q 329 869 282 869 q 348 869 338 869 q 361 868 358 868 q 381 957 365 924 q 494 1018 410 1019 q 575 944 551 1017 q 583 858 588 908 l 810 858 q 819 946 810 910 q 860 997 831 978 q 925 1014 890 1017 q 992 986 968 1011 q 1021 929 1017 961 q 1026 886 1024 910 q 1029 860 1029 863 q 1132 854 1094 860 z "},"ぜ":{"ha":1389,"x_min":139,"x_max":1347,"o":"m 1199 835 q 1244 736 1244 807 q 1208 658 1244 689 q 1124 622 1171 626 q 1060 619 1085 619 q 1036 620 1050 619 q 1019 621 1022 621 q 1000 478 1025 529 q 963 438 989 454 q 910 422 938 422 l 907 422 q 817 500 842 424 q 804 613 804 538 l 583 613 q 578 542 579 582 q 583 437 578 503 q 617 320 588 371 q 696 254 646 269 q 846 233 761 233 q 913 236 868 233 l 1003 236 q 1083 175 1058 232 q 1071 63 1110 115 q 985 11 1042 25 q 835 -3 929 -3 q 747 -1 778 -3 q 540 59 632 0 q 401 217 449 118 q 360 369 374 274 q 349 528 347 465 q 351 625 351 590 q 208 638 226 632 q 139 744 142 661 q 163 816 136 785 q 236 858 190 847 q 329 869 282 869 q 348 869 338 869 q 361 868 358 868 q 381 957 365 924 q 494 1018 410 1019 q 575 944 551 1017 q 583 858 588 908 l 810 858 q 819 946 810 910 q 860 997 831 978 q 925 1014 890 1017 q 992 986 968 1011 q 1021 929 1017 961 q 1026 886 1024 910 q 1029 860 1029 863 l 1078 860 q 1032 925 1054 886 q 1017 989 1015 954 q 1046 1038 1019 1024 q 1099 1037 1075 1053 q 1160 972 1124 1021 q 1199 835 1233 872 m 1314 1031 q 1347 946 1346 976 q 1314 896 1349 915 q 1247 903 1276 876 q 1181 992 1217 929 q 1165 1056 1163 1019 q 1196 1106 1168 1092 q 1314 1031 1251 1135 z "},"そ":{"ha":1389,"x_min":253,"x_max":1074,"o":"m 1038 140 q 1073 73 1071 118 q 1056 3 1075 28 q 960 -51 1025 -51 q 896 -40 933 -51 q 778 35 833 -22 q 699 183 722 92 q 728 418 664 317 l 408 418 q 253 514 272 418 q 263 583 246 557 q 328 654 279 610 q 356 679 344 668 q 578 829 424 742 q 500 826 542 826 q 447 829 475 826 q 379 862 408 833 q 350 936 350 890 q 388 1019 350 983 q 493 1054 426 1054 q 626 1057 513 1054 q 829 1060 763 1060 q 901 1058 886 1060 q 974 1017 947 1054 q 999 933 1006 975 q 948 847 992 893 q 840 758 904 800 q 735 692 775 715 q 656 649 696 669 l 949 649 q 1020 617 992 649 q 1051 549 1049 585 q 963 393 1057 488 q 922 247 911 342 q 937 209 924 226 q 963 183 950 192 q 1001 161 976 175 q 1038 140 1013 154 z "},"ぞ":{"ha":1389,"x_min":253,"x_max":1258,"o":"m 990 1044 q 1042 1044 1018 1060 q 1103 979 1067 1028 q 1122 826 1190 861 q 1057 836 1093 813 q 990 908 1021 860 q 892 797 968 858 q 760 705 815 736 q 656 649 706 674 l 949 649 q 1020 617 992 649 q 1051 549 1049 585 q 963 393 1057 488 q 922 247 911 342 q 937 209 924 226 q 963 183 950 192 q 1001 161 976 175 q 1038 140 1013 154 q 1073 73 1071 118 q 1056 1 1075 28 q 960 -51 1024 -51 q 896 -40 933 -51 q 778 35 833 -22 q 699 183 722 92 q 728 418 665 318 l 408 418 q 253 514 272 418 q 263 583 246 557 q 328 654 279 610 q 356 679 344 668 q 578 829 424 742 q 500 826 544 826 q 447 829 475 826 q 379 862 408 833 q 350 936 350 890 q 388 1019 350 983 q 493 1054 426 1054 q 626 1057 513 1054 q 829 1060 763 1060 q 901 1058 886 1060 q 968 1024 940 1054 q 990 1044 975 1038 m 1258 1038 q 1257 903 1321 935 q 1190 910 1219 883 q 1125 999 1160 936 q 1109 1063 1107 1026 q 1139 1113 1111 1099 q 1258 1038 1196 1142 z "},"た":{"ha":1389,"x_min":214,"x_max":1196,"o":"m 813 656 q 654 661 742 656 q 569 343 621 525 q 496 96 517 161 q 335 -29 449 -53 q 264 167 224 -6 q 401 676 279 235 q 393 678 399 678 q 265 703 310 682 q 214 785 219 725 q 255 891 207 850 q 382 929 303 932 q 467 925 407 928 q 638 1092 526 1129 q 711 1024 696 1074 q 710 910 726 975 q 860 897 853 899 q 929 848 903 890 q 954 756 956 806 q 813 656 950 660 m 897 583 q 1176 503 1122 597 q 1179 395 1208 440 q 1097 353 1150 350 q 992 362 1064 354 q 900 369 919 369 q 757 446 782 374 q 782 535 740 492 q 897 583 824 578 m 1110 210 q 1183 170 1153 208 q 1196 65 1213 132 q 1129 -5 1185 19 q 1009 -28 1074 -29 q 883 -12 944 -26 q 742 61 792 13 q 713 174 693 110 q 874 246 744 276 q 1110 210 1001 217 z "},"だ":{"ha":1389,"x_min":214,"x_max":1251,"o":"m 813 656 q 654 661 742 656 q 569 343 621 525 q 496 96 517 161 q 335 -29 449 -53 q 264 167 224 -6 q 401 676 279 235 q 393 678 399 678 q 265 703 310 682 q 214 785 219 725 q 255 891 207 850 q 382 929 303 932 q 467 925 407 928 q 638 1092 526 1129 q 711 1024 696 1074 q 710 910 726 975 q 860 897 853 899 q 929 848 903 890 q 954 756 956 806 q 813 656 950 660 m 897 583 q 1176 503 1122 597 q 1179 395 1208 440 q 1097 353 1150 350 q 992 362 1064 354 q 900 369 919 369 q 757 446 782 374 q 782 535 740 492 q 897 583 824 578 m 1110 210 q 1183 170 1153 208 q 1196 65 1213 132 q 1129 -5 1185 19 q 1009 -28 1074 -29 q 883 -12 944 -26 q 742 61 792 13 q 713 174 693 110 q 874 246 744 276 q 1110 210 1001 217 m 1114 808 q 1041 823 1082 792 q 969 914 1000 854 q 953 978 951 943 q 983 1028 956 1014 q 1035 1026 1011 1042 q 1096 961 1060 1010 q 1114 808 1185 843 m 1251 1019 q 1250 885 1314 917 q 1183 893 1213 867 q 1118 981 1153 919 q 1132 1094 1092 1025 q 1251 1019 1189 1124 z "},"ち":{"ha":1389,"x_min":256,"x_max":1081,"o":"m 946 556 q 1081 244 1107 435 q 1016 88 1069 164 q 896 -21 963 13 q 789 -60 832 -53 q 694 -58 746 -68 q 619 -17 646 -51 q 597 56 592 17 q 700 163 610 143 q 842 274 825 189 q 843 333 849 308 q 817 371 838 357 q 788 390 797 385 q 756 401 778 394 q 553 378 669 431 q 455 369 503 357 q 390 414 407 381 q 384 435 386 424 q 383 463 382 447 q 386 490 385 478 q 392 522 388 503 q 401 552 397 542 q 410 583 404 563 q 418 611 417 604 q 431 657 421 622 q 447 714 440 692 q 382 717 407 714 q 256 818 263 729 q 288 899 253 865 q 386 932 324 933 q 440 931 399 932 q 507 931 481 931 q 529 1014 517 968 q 589 1101 544 1072 q 685 1118 633 1129 q 756 1067 736 1106 q 763 971 775 1028 l 758 956 q 751 931 754 940 q 878 929 807 929 q 963 898 932 929 q 990 825 993 867 q 952 748 986 781 q 851 711 918 715 q 686 708 793 708 q 676 660 681 688 q 667 621 671 632 q 656 611 664 610 q 674 615 663 613 q 722 617 686 617 q 792 615 758 618 q 869 596 825 611 q 946 556 913 581 z "},"ぢ":{"ha":1389,"x_min":256,"x_max":1200,"o":"m 932 1035 q 985 1033 961 1049 q 1046 968 1010 1017 q 1064 817 1133 850 q 989 832 1032 800 q 990 828 989 831 q 990 825 990 826 q 952 748 986 781 q 851 711 918 715 q 686 708 793 708 q 676 660 681 688 q 667 621 671 632 q 656 611 664 610 q 674 615 663 613 q 722 617 686 617 q 792 615 758 618 q 869 596 825 611 q 946 556 913 581 q 1081 244 1107 435 q 1016 88 1069 164 q 896 -21 963 13 q 789 -60 832 -53 q 694 -58 746 -68 q 619 -17 646 -51 q 597 56 592 17 q 700 163 610 143 q 842 274 825 189 q 843 333 849 308 q 817 371 838 357 q 788 390 797 385 q 756 401 778 394 q 553 378 669 431 q 455 369 503 357 q 390 414 407 381 q 384 435 386 424 q 383 463 382 447 q 386 490 385 478 q 392 522 388 503 q 401 552 397 542 q 410 583 404 563 q 418 611 417 604 q 431 657 421 622 q 447 714 440 692 q 382 717 407 714 q 256 818 263 729 q 288 899 253 865 q 386 932 324 933 q 440 931 399 932 q 507 931 481 931 q 529 1014 517 968 q 589 1101 544 1072 q 685 1118 633 1129 q 756 1067 736 1106 q 763 971 775 1028 l 758 956 q 751 931 754 940 q 878 929 807 929 q 918 924 901 929 q 902 986 900 951 q 932 1035 904 1021 m 1200 1028 q 1199 893 1263 924 q 1132 901 1163 874 q 1067 989 1101 928 q 1051 1052 1049 1017 q 1081 1103 1053 1088 q 1200 1028 1139 1131 z "},"っ":{"ha":1389,"x_min":354,"x_max":1022,"o":"m 935 575 q 1010 456 990 525 q 1022 322 1031 386 q 981 199 1013 257 q 751 29 907 63 q 722 25 736 25 q 654 49 682 25 q 624 110 626 72 q 648 178 621 151 q 729 231 675 204 l 738 235 q 766 249 757 244 q 792 265 775 254 q 815 288 808 276 q 830 315 822 299 q 837 351 838 331 q 829 397 836 372 q 729 451 815 451 l 667 447 q 619 444 633 444 q 519 435 572 443 q 464 429 497 432 q 376 457 407 429 q 354 517 354 479 q 390 591 354 560 q 488 629 426 622 l 501 631 q 683 644 613 644 q 935 575 858 644 z "},"つ":{"ha":1389,"x_min":206,"x_max":1153,"o":"m 356 632 q 246 660 286 629 q 206 749 206 690 q 256 851 206 810 q 390 903 306 893 q 760 921 635 931 q 1029 826 943 907 q 1133 664 1103 758 q 1152 474 1164 569 q 1093 293 1140 379 q 768 53 990 103 q 650 70 700 39 q 594 163 600 101 q 628 256 590 219 q 743 329 667 292 q 861 404 832 372 q 892 579 919 468 q 859 632 882 613 q 799 657 836 651 q 731 663 761 663 q 650 658 700 663 q 579 653 600 653 q 451 641 518 650 q 356 632 385 632 z "},"づ":{"ha":1389,"x_min":206,"x_max":1315,"o":"m 356 632 q 246 660 286 629 q 206 749 206 690 q 256 851 206 810 q 390 903 306 893 q 760 921 635 931 q 1029 826 943 907 q 1133 664 1103 758 q 1152 474 1164 569 q 1093 293 1140 379 q 768 53 990 103 q 650 70 700 39 q 594 163 600 101 q 628 256 590 219 q 743 329 667 292 q 861 404 832 372 q 892 579 919 468 q 859 632 882 613 q 799 657 836 651 q 731 663 761 663 q 650 658 700 663 q 579 653 600 653 q 451 641 518 650 q 356 632 385 632 m 1033 914 q 1017 978 1015 943 q 1047 1028 1019 1013 q 1101 1026 1076 1042 q 1161 961 1125 1010 q 1179 808 1247 843 q 1106 823 1147 792 q 1033 914 1065 854 m 1182 981 q 1166 1044 1164 1008 q 1196 1094 1168 1081 q 1315 1019 1253 1124 q 1315 885 1378 917 q 1248 893 1278 867 q 1182 981 1218 919 z "},"て":{"ha":1389,"x_min":218,"x_max":1100,"o":"m 746 719 q 357 721 483 711 q 309 728 329 724 q 266 747 289 733 q 231 785 243 760 q 218 850 218 811 q 235 915 218 889 q 286 953 253 942 q 353 970 319 965 q 433 975 386 975 q 540 976 454 975 q 690 976 626 976 q 824 975 753 976 q 928 969 896 974 q 1043 908 1006 961 q 1051 769 1081 856 q 1010 679 1038 728 q 964 576 982 631 q 940 428 946 521 q 953 324 936 367 q 992 263 969 281 q 1041 227 1014 246 q 1076 197 1068 208 q 1099 76 1118 139 q 1011 -7 1081 14 q 848 40 940 -26 q 699 235 756 106 q 665 417 661 319 q 691 593 668 514 q 746 719 714 672 z "}}}
